G04 #@! TF.GenerationSoftware,KiCad,Pcbnew,(5.1.5)-3*
G04 #@! TF.CreationDate,2020-11-02T17:07:13+01:00*
G04 #@! TF.ProjectId,Heat Controller,48656174-2043-46f6-9e74-726f6c6c6572,rev?*
G04 #@! TF.SameCoordinates,Original*
G04 #@! TF.FileFunction,Copper,L1,Top*
G04 #@! TF.FilePolarity,Positive*
%FSLAX46Y46*%
G04 Gerber Fmt 4.6, Leading zero omitted, Abs format (unit mm)*
G04 Created by KiCad (PCBNEW (5.1.5)-3) date 2020-11-02 17:07:13*
%MOMM*%
%LPD*%
G04 APERTURE LIST*
%ADD10O,1.700000X1.700000*%
%ADD11R,1.700000X1.700000*%
%ADD12C,3.000000*%
%ADD13R,1.550000X1.300000*%
%ADD14C,2.300000*%
%ADD15R,2.300000X2.000000*%
%ADD16C,5.700000*%
%ADD17C,1.200000*%
%ADD18R,1.200000X1.200000*%
%ADD19O,2.200000X2.200000*%
%ADD20R,2.200000X2.200000*%
%ADD21C,1.800000*%
%ADD22R,1.800000X1.800000*%
%ADD23C,2.200000*%
%ADD24C,2.500000*%
%ADD25R,1.050000X1.500000*%
%ADD26O,1.050000X1.500000*%
%ADD27R,1.500000X1.050000*%
%ADD28O,1.500000X1.050000*%
%ADD29O,1.600000X1.600000*%
%ADD30R,1.600000X1.600000*%
%ADD31C,1.600000*%
%ADD32C,0.800000*%
%ADD33C,0.250000*%
%ADD34C,1.500000*%
%ADD35C,0.500000*%
%ADD36C,0.254000*%
G04 APERTURE END LIST*
D10*
X168000000Y-118830000D03*
X168000000Y-116290000D03*
D11*
X168000000Y-113750000D03*
D12*
X129500000Y-109500000D03*
X129500000Y-119500000D03*
X129500000Y-129500000D03*
X129500000Y-78500000D03*
X129500000Y-88500000D03*
X129500000Y-98500000D03*
D13*
X171025000Y-114590000D03*
X171025000Y-119090000D03*
X178975000Y-119090000D03*
X178975000Y-114590000D03*
D14*
X177400000Y-101950000D03*
X148000000Y-96750000D03*
D15*
X148000000Y-91750000D03*
D14*
X177400000Y-86550000D03*
D16*
X112500000Y-131250000D03*
X112500000Y-76750000D03*
D17*
X164060000Y-107950000D03*
D18*
X162560000Y-107950000D03*
D19*
X145750000Y-123090000D03*
D20*
X145750000Y-133250000D03*
D21*
X175460000Y-123500000D03*
D22*
X178000000Y-123500000D03*
D21*
X175460000Y-128000000D03*
D22*
X178000000Y-128000000D03*
D21*
X175460000Y-132500000D03*
D22*
X178000000Y-132500000D03*
D23*
X139750000Y-99860000D03*
X139750000Y-77000000D03*
X149390000Y-78250000D03*
X172250000Y-78250000D03*
D10*
X171500000Y-124380000D03*
X171500000Y-126920000D03*
X171500000Y-129460000D03*
D11*
X171500000Y-132000000D03*
D12*
X153500000Y-113000000D03*
D24*
X151550000Y-118950000D03*
D12*
X139300000Y-119000000D03*
X139350000Y-106950000D03*
D24*
X151550000Y-106950000D03*
D25*
X156845000Y-107950000D03*
D26*
X159385000Y-107950000D03*
X158115000Y-107950000D03*
D27*
X177800000Y-110490000D03*
D28*
X177800000Y-107950000D03*
X177800000Y-109220000D03*
D29*
X164870000Y-112395000D03*
X157250000Y-120015000D03*
X164870000Y-114935000D03*
X157250000Y-117475000D03*
X164870000Y-117475000D03*
X157250000Y-114935000D03*
X164870000Y-120015000D03*
D30*
X157250000Y-112395000D03*
D29*
X149250000Y-124130000D03*
D31*
X149250000Y-131750000D03*
D29*
X161250000Y-131750000D03*
D31*
X161250000Y-124130000D03*
D29*
X158250000Y-124130000D03*
D31*
X158250000Y-131750000D03*
D29*
X155250000Y-124130000D03*
D31*
X155250000Y-131750000D03*
D29*
X152250000Y-124130000D03*
D31*
X152250000Y-131750000D03*
X164250000Y-131750000D03*
D29*
X164250000Y-124130000D03*
D32*
X179000000Y-105250000D03*
X174750000Y-113000000D03*
X159000000Y-120000000D03*
X159000000Y-113500000D03*
X176250000Y-120500000D03*
X176250000Y-117500000D03*
X177250000Y-105250000D03*
X146250000Y-128500000D03*
X149500000Y-128500000D03*
X166500000Y-128750000D03*
X163000000Y-128750000D03*
X162250000Y-119000000D03*
X162250000Y-116000000D03*
X169750000Y-122000000D03*
X169750000Y-123500000D03*
X173250000Y-120500000D03*
D33*
X173160000Y-114590000D02*
X174750000Y-113000000D01*
X170650000Y-114590000D02*
X173160000Y-114590000D01*
X176340000Y-114590000D02*
X174750000Y-113000000D01*
X178600000Y-114590000D02*
X176340000Y-114590000D01*
X149782234Y-118950000D02*
X147732234Y-121000000D01*
X151550000Y-118950000D02*
X149782234Y-118950000D01*
X147732234Y-121000000D02*
X145000000Y-121000000D01*
X145000000Y-121000000D02*
X143750000Y-122250000D01*
X144400000Y-133250000D02*
X145750000Y-133250000D01*
X143750000Y-132600000D02*
X144400000Y-133250000D01*
X143750000Y-122250000D02*
X143750000Y-132600000D01*
X158250000Y-133500000D02*
X158250000Y-131750000D01*
X158549990Y-133799990D02*
X158250000Y-133500000D01*
X174187208Y-123500000D02*
X174000000Y-123687208D01*
X175460000Y-123500000D02*
X174187208Y-123500000D01*
X173700010Y-133799990D02*
X158549990Y-133799990D01*
X174000000Y-123687208D02*
X174000000Y-133500000D01*
X174000000Y-133500000D02*
X173700010Y-133799990D01*
X152250000Y-133750000D02*
X152250000Y-131750000D01*
X152750000Y-134250000D02*
X152250000Y-133750000D01*
X175000000Y-134250000D02*
X152750000Y-134250000D01*
X175460000Y-132500000D02*
X175460000Y-133790000D01*
X175460000Y-133790000D02*
X175000000Y-134250000D01*
D34*
X138140000Y-98250000D02*
X139750000Y-99860000D01*
X129500000Y-98250000D02*
X138140000Y-98250000D01*
X145350000Y-91750000D02*
X139700000Y-86100000D01*
X148000000Y-91750000D02*
X145350000Y-91750000D01*
X139750000Y-86050000D02*
X139750000Y-77000000D01*
X139700000Y-86100000D02*
X139750000Y-86050000D01*
X150465000Y-113000000D02*
X153500000Y-113000000D01*
X147320000Y-109855000D02*
X150465000Y-113000000D01*
X150650000Y-91750000D02*
X151765000Y-92865000D01*
X151765000Y-99695000D02*
X147320000Y-104140000D01*
X148000000Y-91750000D02*
X150650000Y-91750000D01*
X151765000Y-92865000D02*
X151765000Y-99695000D01*
X147320000Y-104140000D02*
X147320000Y-109855000D01*
D33*
X151150000Y-80010000D02*
X149390000Y-78250000D01*
X162560000Y-80010000D02*
X151150000Y-80010000D01*
X166720000Y-101950000D02*
X165100000Y-100330000D01*
X165100000Y-100330000D02*
X165100000Y-82550000D01*
X177400000Y-101950000D02*
X166720000Y-101950000D01*
X165100000Y-82550000D02*
X162560000Y-80010000D01*
D34*
X145010000Y-96750000D02*
X148000000Y-96750000D01*
X137160000Y-88900000D02*
X145010000Y-96750000D01*
X129500000Y-88250000D02*
X130150000Y-88900000D01*
X125730000Y-92020000D02*
X129500000Y-88250000D01*
X129500000Y-117490000D02*
X133350000Y-113640000D01*
X125730000Y-100330000D02*
X125730000Y-92020000D01*
X130150000Y-88900000D02*
X137160000Y-88900000D01*
X129500000Y-119750000D02*
X129500000Y-117490000D01*
X133350000Y-107950000D02*
X125730000Y-100330000D01*
X133350000Y-113640000D02*
X133350000Y-107950000D01*
X134620000Y-116205000D02*
X139350000Y-111475000D01*
X139350000Y-111475000D02*
X139350000Y-106950000D01*
X129500000Y-129750000D02*
X129500000Y-125135000D01*
X134620000Y-120015000D02*
X134620000Y-116205000D01*
X129500000Y-125135000D02*
X134620000Y-120015000D01*
D33*
X167500000Y-118885000D02*
X167640000Y-118745000D01*
X146250000Y-128500000D02*
X149500000Y-128500000D01*
X163000000Y-128750000D02*
X166500000Y-128750000D01*
D35*
X162250000Y-119000000D02*
X162250000Y-116000000D01*
D34*
X120650000Y-104140000D02*
X120650000Y-87100000D01*
X129500000Y-109750000D02*
X126260000Y-109750000D01*
X126260000Y-109750000D02*
X120650000Y-104140000D01*
X120650000Y-85090000D02*
X112395000Y-76835000D01*
X120650000Y-87100000D02*
X120650000Y-85090000D01*
X127490000Y-78250000D02*
X129500000Y-78250000D01*
X120650000Y-85090000D02*
X127490000Y-78250000D01*
X119380000Y-116630000D02*
X126260000Y-109750000D01*
X119380000Y-124370000D02*
X119380000Y-116630000D01*
X119380000Y-124370000D02*
X112500000Y-131250000D01*
D33*
X166500000Y-121250000D02*
X166500000Y-116519991D01*
X170000000Y-127960000D02*
X170000000Y-124798012D01*
X171500000Y-129460000D02*
X170000000Y-127960000D01*
X166500000Y-116519991D02*
X164915009Y-114935000D01*
X170000000Y-124798012D02*
X169024999Y-123823011D01*
X169024999Y-123774999D02*
X166500000Y-121250000D01*
X169024999Y-123823011D02*
X169024999Y-123774999D01*
X170400000Y-132000000D02*
X169500000Y-131100000D01*
X171500000Y-132000000D02*
X170400000Y-132000000D01*
X169500000Y-125050000D02*
X164465000Y-120015000D01*
X169500000Y-131100000D02*
X169500000Y-125050000D01*
X169750000Y-123500000D02*
X169750000Y-122000000D01*
X161250000Y-131250000D02*
X161250000Y-131750000D01*
X159750000Y-129750000D02*
X161250000Y-131250000D01*
X157976370Y-117475000D02*
X159750000Y-119248630D01*
X156845000Y-117475000D02*
X157976370Y-117475000D01*
X159750000Y-119248630D02*
X159750000Y-129750000D01*
X156000000Y-131000000D02*
X155250000Y-131750000D01*
X156750000Y-130250000D02*
X156000000Y-131000000D01*
X159750000Y-129750000D02*
X159250000Y-130250000D01*
X159250000Y-130250000D02*
X156750000Y-130250000D01*
X171840000Y-119090000D02*
X173250000Y-120500000D01*
X170650000Y-119090000D02*
X171840000Y-119090000D01*
X174660000Y-119090000D02*
X173250000Y-120500000D01*
X178600000Y-119090000D02*
X174660000Y-119090000D01*
X164250000Y-122750000D02*
X163750000Y-122250000D01*
X159685000Y-114935000D02*
X156845000Y-114935000D01*
X161000000Y-116250000D02*
X159685000Y-114935000D01*
X164250000Y-124130000D02*
X164250000Y-122750000D01*
X161000000Y-121750000D02*
X161000000Y-116250000D01*
X163750000Y-122250000D02*
X161500000Y-122250000D01*
X161500000Y-122250000D02*
X161000000Y-121750000D01*
X175250000Y-109750000D02*
X175780000Y-109220000D01*
X175250000Y-110770000D02*
X175250000Y-109750000D01*
X174520000Y-111500000D02*
X175250000Y-110770000D01*
X166500000Y-110750000D02*
X167250000Y-111500000D01*
X159685000Y-114935000D02*
X159815000Y-114935000D01*
X161000000Y-113750000D02*
X161000000Y-112000000D01*
X175780000Y-109220000D02*
X177800000Y-109220000D01*
X161000000Y-112000000D02*
X162250000Y-110750000D01*
X167250000Y-111500000D02*
X174520000Y-111500000D01*
X159815000Y-114935000D02*
X161000000Y-113750000D01*
X162250000Y-110750000D02*
X166500000Y-110750000D01*
D36*
G36*
X178606775Y-73198147D02*
G01*
X178838504Y-73268110D01*
X179981293Y-74410899D01*
X180049319Y-74630656D01*
X180090001Y-75017722D01*
X180090000Y-113401716D01*
X179994180Y-113350498D01*
X179874482Y-113314188D01*
X179750000Y-113301928D01*
X179260750Y-113305000D01*
X179102000Y-113463750D01*
X179102000Y-114463000D01*
X179122000Y-114463000D01*
X179122000Y-114717000D01*
X179102000Y-114717000D01*
X179102000Y-115716250D01*
X179260750Y-115875000D01*
X179750000Y-115878072D01*
X179874482Y-115865812D01*
X179994180Y-115829502D01*
X180090000Y-115778284D01*
X180090000Y-117901716D01*
X179994180Y-117850498D01*
X179874482Y-117814188D01*
X179750000Y-117801928D01*
X178200000Y-117801928D01*
X178075518Y-117814188D01*
X177955820Y-117850498D01*
X177845506Y-117909463D01*
X177748815Y-117988815D01*
X177669463Y-118085506D01*
X177610498Y-118195820D01*
X177574188Y-118315518D01*
X177572762Y-118330000D01*
X174697322Y-118330000D01*
X174659999Y-118326324D01*
X174622676Y-118330000D01*
X174622667Y-118330000D01*
X174511014Y-118340997D01*
X174367753Y-118384454D01*
X174235723Y-118455026D01*
X174181377Y-118499627D01*
X174119999Y-118549999D01*
X174096201Y-118578997D01*
X173250000Y-119425198D01*
X172438072Y-118613271D01*
X172438072Y-118440000D01*
X172425812Y-118315518D01*
X172389502Y-118195820D01*
X172330537Y-118085506D01*
X172251185Y-117988815D01*
X172154494Y-117909463D01*
X172044180Y-117850498D01*
X171924482Y-117814188D01*
X171800000Y-117801928D01*
X170250000Y-117801928D01*
X170125518Y-117814188D01*
X170005820Y-117850498D01*
X169895506Y-117909463D01*
X169798815Y-117988815D01*
X169719463Y-118085506D01*
X169660498Y-118195820D01*
X169624188Y-118315518D01*
X169611928Y-118440000D01*
X169611928Y-119740000D01*
X169624188Y-119864482D01*
X169660498Y-119984180D01*
X169719463Y-120094494D01*
X169798815Y-120191185D01*
X169895506Y-120270537D01*
X170005820Y-120329502D01*
X170125518Y-120365812D01*
X170250000Y-120378072D01*
X171800000Y-120378072D01*
X171924482Y-120365812D01*
X172013889Y-120338691D01*
X172215000Y-120539802D01*
X172215000Y-120601939D01*
X172254774Y-120801898D01*
X172332795Y-120990256D01*
X172446063Y-121159774D01*
X172590226Y-121303937D01*
X172759744Y-121417205D01*
X172948102Y-121495226D01*
X173148061Y-121535000D01*
X173351939Y-121535000D01*
X173551898Y-121495226D01*
X173740256Y-121417205D01*
X173909774Y-121303937D01*
X174053937Y-121159774D01*
X174167205Y-120990256D01*
X174245226Y-120801898D01*
X174285000Y-120601939D01*
X174285000Y-120539801D01*
X174974802Y-119850000D01*
X177572762Y-119850000D01*
X177574188Y-119864482D01*
X177610498Y-119984180D01*
X177669463Y-120094494D01*
X177748815Y-120191185D01*
X177845506Y-120270537D01*
X177955820Y-120329502D01*
X178075518Y-120365812D01*
X178200000Y-120378072D01*
X179750000Y-120378072D01*
X179874482Y-120365812D01*
X179994180Y-120329502D01*
X180090000Y-120278284D01*
X180090000Y-132967721D01*
X180051853Y-133356776D01*
X179981890Y-133588504D01*
X178839101Y-134731293D01*
X178619344Y-134799319D01*
X178232288Y-134840000D01*
X175479077Y-134840000D01*
X175540001Y-134790001D01*
X175563804Y-134760997D01*
X175970997Y-134353804D01*
X176000001Y-134330001D01*
X176094974Y-134214276D01*
X176165546Y-134082247D01*
X176209003Y-133938986D01*
X176218842Y-133839086D01*
X176438505Y-133692312D01*
X176504944Y-133625873D01*
X176510498Y-133644180D01*
X176569463Y-133754494D01*
X176648815Y-133851185D01*
X176745506Y-133930537D01*
X176855820Y-133989502D01*
X176975518Y-134025812D01*
X177100000Y-134038072D01*
X177714250Y-134035000D01*
X177873000Y-133876250D01*
X177873000Y-132627000D01*
X178127000Y-132627000D01*
X178127000Y-133876250D01*
X178285750Y-134035000D01*
X178900000Y-134038072D01*
X179024482Y-134025812D01*
X179144180Y-133989502D01*
X179254494Y-133930537D01*
X179351185Y-133851185D01*
X179430537Y-133754494D01*
X179489502Y-133644180D01*
X179525812Y-133524482D01*
X179538072Y-133400000D01*
X179535000Y-132785750D01*
X179376250Y-132627000D01*
X178127000Y-132627000D01*
X177873000Y-132627000D01*
X177853000Y-132627000D01*
X177853000Y-132373000D01*
X177873000Y-132373000D01*
X177873000Y-131123750D01*
X178127000Y-131123750D01*
X178127000Y-132373000D01*
X179376250Y-132373000D01*
X179535000Y-132214250D01*
X179538072Y-131600000D01*
X179525812Y-131475518D01*
X179489502Y-131355820D01*
X179430537Y-131245506D01*
X179351185Y-131148815D01*
X179254494Y-131069463D01*
X179144180Y-131010498D01*
X179024482Y-130974188D01*
X178900000Y-130961928D01*
X178285750Y-130965000D01*
X178127000Y-131123750D01*
X177873000Y-131123750D01*
X177714250Y-130965000D01*
X177100000Y-130961928D01*
X176975518Y-130974188D01*
X176855820Y-131010498D01*
X176745506Y-131069463D01*
X176648815Y-131148815D01*
X176569463Y-131245506D01*
X176510498Y-131355820D01*
X176504944Y-131374127D01*
X176438505Y-131307688D01*
X176187095Y-131139701D01*
X175907743Y-131023989D01*
X175611184Y-130965000D01*
X175308816Y-130965000D01*
X175012257Y-131023989D01*
X174760000Y-131128478D01*
X174760000Y-129371522D01*
X175012257Y-129476011D01*
X175308816Y-129535000D01*
X175611184Y-129535000D01*
X175907743Y-129476011D01*
X176187095Y-129360299D01*
X176438505Y-129192312D01*
X176504944Y-129125873D01*
X176510498Y-129144180D01*
X176569463Y-129254494D01*
X176648815Y-129351185D01*
X176745506Y-129430537D01*
X176855820Y-129489502D01*
X176975518Y-129525812D01*
X177100000Y-129538072D01*
X178900000Y-129538072D01*
X179024482Y-129525812D01*
X179144180Y-129489502D01*
X179254494Y-129430537D01*
X179351185Y-129351185D01*
X179430537Y-129254494D01*
X179489502Y-129144180D01*
X179525812Y-129024482D01*
X179538072Y-128900000D01*
X179538072Y-127100000D01*
X179525812Y-126975518D01*
X179489502Y-126855820D01*
X179430537Y-126745506D01*
X179351185Y-126648815D01*
X179254494Y-126569463D01*
X179144180Y-126510498D01*
X179024482Y-126474188D01*
X178900000Y-126461928D01*
X177100000Y-126461928D01*
X176975518Y-126474188D01*
X176855820Y-126510498D01*
X176745506Y-126569463D01*
X176648815Y-126648815D01*
X176569463Y-126745506D01*
X176510498Y-126855820D01*
X176504944Y-126874127D01*
X176438505Y-126807688D01*
X176187095Y-126639701D01*
X175907743Y-126523989D01*
X175611184Y-126465000D01*
X175308816Y-126465000D01*
X175012257Y-126523989D01*
X174760000Y-126628478D01*
X174760000Y-124871522D01*
X175012257Y-124976011D01*
X175308816Y-125035000D01*
X175611184Y-125035000D01*
X175907743Y-124976011D01*
X176187095Y-124860299D01*
X176438505Y-124692312D01*
X176504944Y-124625873D01*
X176510498Y-124644180D01*
X176569463Y-124754494D01*
X176648815Y-124851185D01*
X176745506Y-124930537D01*
X176855820Y-124989502D01*
X176975518Y-125025812D01*
X177100000Y-125038072D01*
X177714250Y-125035000D01*
X177873000Y-124876250D01*
X177873000Y-123627000D01*
X178127000Y-123627000D01*
X178127000Y-124876250D01*
X178285750Y-125035000D01*
X178900000Y-125038072D01*
X179024482Y-125025812D01*
X179144180Y-124989502D01*
X179254494Y-124930537D01*
X179351185Y-124851185D01*
X179430537Y-124754494D01*
X179489502Y-124644180D01*
X179525812Y-124524482D01*
X179538072Y-124400000D01*
X179535000Y-123785750D01*
X179376250Y-123627000D01*
X178127000Y-123627000D01*
X177873000Y-123627000D01*
X177853000Y-123627000D01*
X177853000Y-123373000D01*
X177873000Y-123373000D01*
X177873000Y-122123750D01*
X178127000Y-122123750D01*
X178127000Y-123373000D01*
X179376250Y-123373000D01*
X179535000Y-123214250D01*
X179538072Y-122600000D01*
X179525812Y-122475518D01*
X179489502Y-122355820D01*
X179430537Y-122245506D01*
X179351185Y-122148815D01*
X179254494Y-122069463D01*
X179144180Y-122010498D01*
X179024482Y-121974188D01*
X178900000Y-121961928D01*
X178285750Y-121965000D01*
X178127000Y-122123750D01*
X177873000Y-122123750D01*
X177714250Y-121965000D01*
X177100000Y-121961928D01*
X176975518Y-121974188D01*
X176855820Y-122010498D01*
X176745506Y-122069463D01*
X176648815Y-122148815D01*
X176569463Y-122245506D01*
X176510498Y-122355820D01*
X176504944Y-122374127D01*
X176438505Y-122307688D01*
X176187095Y-122139701D01*
X175907743Y-122023989D01*
X175611184Y-121965000D01*
X175308816Y-121965000D01*
X175012257Y-122023989D01*
X174732905Y-122139701D01*
X174481495Y-122307688D01*
X174267688Y-122521495D01*
X174119702Y-122742972D01*
X174038222Y-122750997D01*
X173894961Y-122794454D01*
X173762932Y-122865026D01*
X173647207Y-122959999D01*
X173623404Y-122989003D01*
X173489003Y-123123404D01*
X173459999Y-123147207D01*
X173426491Y-123188037D01*
X173365026Y-123262932D01*
X173306193Y-123373000D01*
X173294454Y-123394962D01*
X173250997Y-123538223D01*
X173240000Y-123649876D01*
X173240000Y-123649886D01*
X173236324Y-123687208D01*
X173240000Y-123724530D01*
X173240001Y-133039990D01*
X172955940Y-133039990D01*
X172975812Y-132974482D01*
X172988072Y-132850000D01*
X172988072Y-131150000D01*
X172975812Y-131025518D01*
X172939502Y-130905820D01*
X172880537Y-130795506D01*
X172801185Y-130698815D01*
X172704494Y-130619463D01*
X172594180Y-130560498D01*
X172521620Y-130538487D01*
X172653475Y-130406632D01*
X172815990Y-130163411D01*
X172927932Y-129893158D01*
X172985000Y-129606260D01*
X172985000Y-129313740D01*
X172927932Y-129026842D01*
X172815990Y-128756589D01*
X172653475Y-128513368D01*
X172446632Y-128306525D01*
X172272240Y-128190000D01*
X172446632Y-128073475D01*
X172653475Y-127866632D01*
X172815990Y-127623411D01*
X172927932Y-127353158D01*
X172985000Y-127066260D01*
X172985000Y-126773740D01*
X172927932Y-126486842D01*
X172815990Y-126216589D01*
X172653475Y-125973368D01*
X172446632Y-125766525D01*
X172264466Y-125644805D01*
X172381355Y-125575178D01*
X172597588Y-125380269D01*
X172771641Y-125146920D01*
X172896825Y-124884099D01*
X172941476Y-124736890D01*
X172820155Y-124507000D01*
X171627000Y-124507000D01*
X171627000Y-124527000D01*
X171373000Y-124527000D01*
X171373000Y-124507000D01*
X171353000Y-124507000D01*
X171353000Y-124253000D01*
X171373000Y-124253000D01*
X171373000Y-123059186D01*
X171627000Y-123059186D01*
X171627000Y-124253000D01*
X172820155Y-124253000D01*
X172941476Y-124023110D01*
X172896825Y-123875901D01*
X172771641Y-123613080D01*
X172597588Y-123379731D01*
X172381355Y-123184822D01*
X172131252Y-123035843D01*
X171856891Y-122938519D01*
X171627000Y-123059186D01*
X171373000Y-123059186D01*
X171143109Y-122938519D01*
X170868748Y-123035843D01*
X170715763Y-123126972D01*
X170667205Y-123009744D01*
X170553937Y-122840226D01*
X170510000Y-122796289D01*
X170510000Y-122703711D01*
X170553937Y-122659774D01*
X170667205Y-122490256D01*
X170745226Y-122301898D01*
X170785000Y-122101939D01*
X170785000Y-121898061D01*
X170745226Y-121698102D01*
X170667205Y-121509744D01*
X170553937Y-121340226D01*
X170409774Y-121196063D01*
X170240256Y-121082795D01*
X170051898Y-121004774D01*
X169851939Y-120965000D01*
X169648061Y-120965000D01*
X169448102Y-121004774D01*
X169259744Y-121082795D01*
X169090226Y-121196063D01*
X168946063Y-121340226D01*
X168832795Y-121509744D01*
X168754774Y-121698102D01*
X168715000Y-121898061D01*
X168715000Y-122101939D01*
X168754774Y-122301898D01*
X168832795Y-122490256D01*
X168868512Y-122543710D01*
X167260000Y-120935199D01*
X167260000Y-120121542D01*
X167296589Y-120145990D01*
X167566842Y-120257932D01*
X167853740Y-120315000D01*
X168146260Y-120315000D01*
X168433158Y-120257932D01*
X168703411Y-120145990D01*
X168946632Y-119983475D01*
X169153475Y-119776632D01*
X169315990Y-119533411D01*
X169427932Y-119263158D01*
X169485000Y-118976260D01*
X169485000Y-118683740D01*
X169427932Y-118396842D01*
X169315990Y-118126589D01*
X169153475Y-117883368D01*
X168946632Y-117676525D01*
X168772240Y-117560000D01*
X168946632Y-117443475D01*
X169153475Y-117236632D01*
X169315990Y-116993411D01*
X169427932Y-116723158D01*
X169485000Y-116436260D01*
X169485000Y-116143740D01*
X169427932Y-115856842D01*
X169315990Y-115586589D01*
X169153475Y-115343368D01*
X169050107Y-115240000D01*
X169611928Y-115240000D01*
X169624188Y-115364482D01*
X169660498Y-115484180D01*
X169719463Y-115594494D01*
X169798815Y-115691185D01*
X169895506Y-115770537D01*
X170005820Y-115829502D01*
X170125518Y-115865812D01*
X170250000Y-115878072D01*
X170739250Y-115875000D01*
X170898000Y-115716250D01*
X170898000Y-114717000D01*
X171152000Y-114717000D01*
X171152000Y-115716250D01*
X171310750Y-115875000D01*
X171800000Y-115878072D01*
X171924482Y-115865812D01*
X172044180Y-115829502D01*
X172154494Y-115770537D01*
X172251185Y-115691185D01*
X172330537Y-115594494D01*
X172389502Y-115484180D01*
X172425812Y-115364482D01*
X172438072Y-115240000D01*
X177561928Y-115240000D01*
X177574188Y-115364482D01*
X177610498Y-115484180D01*
X177669463Y-115594494D01*
X177748815Y-115691185D01*
X177845506Y-115770537D01*
X177955820Y-115829502D01*
X178075518Y-115865812D01*
X178200000Y-115878072D01*
X178689250Y-115875000D01*
X178848000Y-115716250D01*
X178848000Y-114717000D01*
X177723750Y-114717000D01*
X177565000Y-114875750D01*
X177561928Y-115240000D01*
X172438072Y-115240000D01*
X172435000Y-114875750D01*
X172276250Y-114717000D01*
X171152000Y-114717000D01*
X170898000Y-114717000D01*
X169773750Y-114717000D01*
X169615000Y-114875750D01*
X169611928Y-115240000D01*
X169050107Y-115240000D01*
X169021620Y-115211513D01*
X169094180Y-115189502D01*
X169204494Y-115130537D01*
X169301185Y-115051185D01*
X169380537Y-114954494D01*
X169439502Y-114844180D01*
X169475812Y-114724482D01*
X169488072Y-114600000D01*
X169488072Y-113940000D01*
X169611928Y-113940000D01*
X169615000Y-114304250D01*
X169773750Y-114463000D01*
X170898000Y-114463000D01*
X170898000Y-113463750D01*
X171152000Y-113463750D01*
X171152000Y-114463000D01*
X172276250Y-114463000D01*
X172435000Y-114304250D01*
X172438072Y-113940000D01*
X177561928Y-113940000D01*
X177565000Y-114304250D01*
X177723750Y-114463000D01*
X178848000Y-114463000D01*
X178848000Y-113463750D01*
X178689250Y-113305000D01*
X178200000Y-113301928D01*
X178075518Y-113314188D01*
X177955820Y-113350498D01*
X177845506Y-113409463D01*
X177748815Y-113488815D01*
X177669463Y-113585506D01*
X177610498Y-113695820D01*
X177574188Y-113815518D01*
X177561928Y-113940000D01*
X172438072Y-113940000D01*
X172425812Y-113815518D01*
X172389502Y-113695820D01*
X172330537Y-113585506D01*
X172251185Y-113488815D01*
X172154494Y-113409463D01*
X172044180Y-113350498D01*
X171924482Y-113314188D01*
X171800000Y-113301928D01*
X171310750Y-113305000D01*
X171152000Y-113463750D01*
X170898000Y-113463750D01*
X170739250Y-113305000D01*
X170250000Y-113301928D01*
X170125518Y-113314188D01*
X170005820Y-113350498D01*
X169895506Y-113409463D01*
X169798815Y-113488815D01*
X169719463Y-113585506D01*
X169660498Y-113695820D01*
X169624188Y-113815518D01*
X169611928Y-113940000D01*
X169488072Y-113940000D01*
X169488072Y-112900000D01*
X169475812Y-112775518D01*
X169439502Y-112655820D01*
X169380537Y-112545506D01*
X169301185Y-112448815D01*
X169204494Y-112369463D01*
X169094180Y-112310498D01*
X168974482Y-112274188D01*
X168850000Y-112261928D01*
X167267747Y-112261928D01*
X167287322Y-112260000D01*
X174482678Y-112260000D01*
X174520000Y-112263676D01*
X174557322Y-112260000D01*
X174557333Y-112260000D01*
X174668986Y-112249003D01*
X174812247Y-112205546D01*
X174944276Y-112134974D01*
X175060001Y-112040001D01*
X175083803Y-112010998D01*
X175761004Y-111333798D01*
X175790001Y-111310001D01*
X175830213Y-111261003D01*
X175884974Y-111194277D01*
X175955546Y-111062247D01*
X175969877Y-111015000D01*
X176411928Y-111015000D01*
X176424188Y-111139482D01*
X176460498Y-111259180D01*
X176519463Y-111369494D01*
X176598815Y-111466185D01*
X176695506Y-111545537D01*
X176805820Y-111604502D01*
X176925518Y-111640812D01*
X177050000Y-111653072D01*
X177514250Y-111650000D01*
X177673000Y-111491250D01*
X177673000Y-110617000D01*
X177927000Y-110617000D01*
X177927000Y-111491250D01*
X178085750Y-111650000D01*
X178550000Y-111653072D01*
X178674482Y-111640812D01*
X178794180Y-111604502D01*
X178904494Y-111545537D01*
X179001185Y-111466185D01*
X179080537Y-111369494D01*
X179139502Y-111259180D01*
X179175812Y-111139482D01*
X179188072Y-111015000D01*
X179185000Y-110775750D01*
X179026250Y-110617000D01*
X177927000Y-110617000D01*
X177673000Y-110617000D01*
X176573750Y-110617000D01*
X176415000Y-110775750D01*
X176411928Y-111015000D01*
X175969877Y-111015000D01*
X175977765Y-110988998D01*
X175999003Y-110918986D01*
X176010000Y-110807333D01*
X176010000Y-110807323D01*
X176013676Y-110770000D01*
X176010000Y-110732677D01*
X176010000Y-110064801D01*
X176094802Y-109980000D01*
X176412121Y-109980000D01*
X176415000Y-110204250D01*
X176573750Y-110363000D01*
X177346891Y-110363000D01*
X177347600Y-110363215D01*
X177518021Y-110380000D01*
X178081979Y-110380000D01*
X178252400Y-110363215D01*
X178253109Y-110363000D01*
X179026250Y-110363000D01*
X179185000Y-110204250D01*
X179188072Y-109965000D01*
X179175812Y-109840518D01*
X179139502Y-109720820D01*
X179104907Y-109656098D01*
X179168215Y-109447400D01*
X179190612Y-109220000D01*
X179168215Y-108992600D01*
X179101885Y-108773940D01*
X179000895Y-108585000D01*
X179101885Y-108396060D01*
X179168215Y-108177400D01*
X179190612Y-107950000D01*
X179168215Y-107722600D01*
X179101885Y-107503940D01*
X178994171Y-107302421D01*
X178849212Y-107125788D01*
X178672579Y-106980829D01*
X178471060Y-106873115D01*
X178252400Y-106806785D01*
X178081979Y-106790000D01*
X177518021Y-106790000D01*
X177347600Y-106806785D01*
X177128940Y-106873115D01*
X176927421Y-106980829D01*
X176750788Y-107125788D01*
X176605829Y-107302421D01*
X176498115Y-107503940D01*
X176431785Y-107722600D01*
X176409388Y-107950000D01*
X176431785Y-108177400D01*
X176498115Y-108396060D01*
X176532292Y-108460000D01*
X175817322Y-108460000D01*
X175779999Y-108456324D01*
X175742676Y-108460000D01*
X175742667Y-108460000D01*
X175631014Y-108470997D01*
X175487753Y-108514454D01*
X175355724Y-108585026D01*
X175239999Y-108679999D01*
X175216200Y-108708998D01*
X174738998Y-109186201D01*
X174710000Y-109209999D01*
X174686202Y-109238997D01*
X174686201Y-109238998D01*
X174615026Y-109325724D01*
X174544454Y-109457754D01*
X174527449Y-109513815D01*
X174500998Y-109601014D01*
X174492624Y-109686038D01*
X174486324Y-109750000D01*
X174490001Y-109787332D01*
X174490000Y-110455198D01*
X174205199Y-110740000D01*
X167564802Y-110740000D01*
X167063803Y-110239002D01*
X167040001Y-110209999D01*
X166924276Y-110115026D01*
X166792247Y-110044454D01*
X166648986Y-110000997D01*
X166537333Y-109990000D01*
X166537322Y-109990000D01*
X166500000Y-109986324D01*
X166462678Y-109990000D01*
X162287323Y-109990000D01*
X162250000Y-109986324D01*
X162212677Y-109990000D01*
X162212667Y-109990000D01*
X162101014Y-110000997D01*
X161965032Y-110042246D01*
X161957753Y-110044454D01*
X161825723Y-110115026D01*
X161742083Y-110183668D01*
X161709999Y-110209999D01*
X161686201Y-110238997D01*
X160488998Y-111436201D01*
X160460000Y-111459999D01*
X160436202Y-111488997D01*
X160436201Y-111488998D01*
X160365026Y-111575724D01*
X160294454Y-111707754D01*
X160250998Y-111851015D01*
X160236324Y-112000000D01*
X160240001Y-112037332D01*
X160240000Y-113435198D01*
X159500199Y-114175000D01*
X158468043Y-114175000D01*
X158364637Y-114020241D01*
X158166039Y-113821643D01*
X158174482Y-113820812D01*
X158294180Y-113784502D01*
X158404494Y-113725537D01*
X158501185Y-113646185D01*
X158580537Y-113549494D01*
X158639502Y-113439180D01*
X158675812Y-113319482D01*
X158688072Y-113195000D01*
X158688072Y-111595000D01*
X158675812Y-111470518D01*
X158639502Y-111350820D01*
X158580537Y-111240506D01*
X158501185Y-111143815D01*
X158404494Y-111064463D01*
X158294180Y-111005498D01*
X158174482Y-110969188D01*
X158050000Y-110956928D01*
X156450000Y-110956928D01*
X156325518Y-110969188D01*
X156205820Y-111005498D01*
X156095506Y-111064463D01*
X155998815Y-111143815D01*
X155919463Y-111240506D01*
X155860498Y-111350820D01*
X155824188Y-111470518D01*
X155811928Y-111595000D01*
X155811928Y-111632322D01*
X153589803Y-109410197D01*
X153570557Y-109394403D01*
X153548601Y-109382667D01*
X153524776Y-109375440D01*
X153500000Y-109373000D01*
X150302606Y-109373000D01*
X149127000Y-108197394D01*
X149127000Y-106764344D01*
X149665000Y-106764344D01*
X149665000Y-107135656D01*
X149737439Y-107499834D01*
X149879534Y-107842882D01*
X150085825Y-108151618D01*
X150348382Y-108414175D01*
X150657118Y-108620466D01*
X151000166Y-108762561D01*
X151364344Y-108835000D01*
X151735656Y-108835000D01*
X152099834Y-108762561D01*
X152442882Y-108620466D01*
X152751618Y-108414175D01*
X153014175Y-108151618D01*
X153220466Y-107842882D01*
X153362561Y-107499834D01*
X153422201Y-107200000D01*
X155681928Y-107200000D01*
X155681928Y-108700000D01*
X155694188Y-108824482D01*
X155730498Y-108944180D01*
X155789463Y-109054494D01*
X155868815Y-109151185D01*
X155965506Y-109230537D01*
X156075820Y-109289502D01*
X156195518Y-109325812D01*
X156320000Y-109338072D01*
X157370000Y-109338072D01*
X157494482Y-109325812D01*
X157614180Y-109289502D01*
X157678902Y-109254907D01*
X157887601Y-109318215D01*
X158115000Y-109340612D01*
X158342400Y-109318215D01*
X158561060Y-109251885D01*
X158749669Y-109151071D01*
X158808118Y-109192275D01*
X159017663Y-109285272D01*
X159079190Y-109293964D01*
X159258000Y-109168163D01*
X159258000Y-108403108D01*
X159258215Y-108402399D01*
X159275000Y-108231978D01*
X159275000Y-108077000D01*
X159512000Y-108077000D01*
X159512000Y-109168163D01*
X159690810Y-109293964D01*
X159752337Y-109285272D01*
X159961882Y-109192275D01*
X160149258Y-109060184D01*
X160307264Y-108894076D01*
X160429828Y-108700334D01*
X160512239Y-108486404D01*
X160551331Y-108260507D01*
X160391598Y-108077000D01*
X159512000Y-108077000D01*
X159275000Y-108077000D01*
X159275000Y-107668021D01*
X159258215Y-107497600D01*
X159258000Y-107496891D01*
X159258000Y-106731837D01*
X159512000Y-106731837D01*
X159512000Y-107823000D01*
X160391598Y-107823000D01*
X160551331Y-107639493D01*
X160512239Y-107413596D01*
X160487741Y-107350000D01*
X161321928Y-107350000D01*
X161321928Y-108550000D01*
X161334188Y-108674482D01*
X161370498Y-108794180D01*
X161429463Y-108904494D01*
X161508815Y-109001185D01*
X161605506Y-109080537D01*
X161715820Y-109139502D01*
X161835518Y-109175812D01*
X161960000Y-109188072D01*
X163160000Y-109188072D01*
X163284482Y-109175812D01*
X163404180Y-109139502D01*
X163514494Y-109080537D01*
X163531681Y-109066432D01*
X163658516Y-109124237D01*
X163895313Y-109180000D01*
X164138438Y-109188495D01*
X164378549Y-109149395D01*
X164606418Y-109064202D01*
X164682852Y-109023348D01*
X164730159Y-108799764D01*
X164060000Y-108129605D01*
X164045858Y-108143748D01*
X163866253Y-107964143D01*
X163880395Y-107950000D01*
X164239605Y-107950000D01*
X164909764Y-108620159D01*
X165133348Y-108572852D01*
X165234237Y-108351484D01*
X165290000Y-108114687D01*
X165298495Y-107871562D01*
X165275423Y-107729872D01*
X167310000Y-107729872D01*
X167310000Y-108170128D01*
X167395890Y-108601925D01*
X167564369Y-109008669D01*
X167808962Y-109374729D01*
X168120271Y-109686038D01*
X168486331Y-109930631D01*
X168893075Y-110099110D01*
X169324872Y-110185000D01*
X169765128Y-110185000D01*
X170196925Y-110099110D01*
X170603669Y-109930631D01*
X170969729Y-109686038D01*
X171281038Y-109374729D01*
X171525631Y-109008669D01*
X171694110Y-108601925D01*
X171780000Y-108170128D01*
X171780000Y-107729872D01*
X171694110Y-107298075D01*
X171525631Y-106891331D01*
X171281038Y-106525271D01*
X170969729Y-106213962D01*
X170603669Y-105969369D01*
X170196925Y-105800890D01*
X169765128Y-105715000D01*
X169324872Y-105715000D01*
X168893075Y-105800890D01*
X168486331Y-105969369D01*
X168120271Y-106213962D01*
X167808962Y-106525271D01*
X167564369Y-106891331D01*
X167395890Y-107298075D01*
X167310000Y-107729872D01*
X165275423Y-107729872D01*
X165259395Y-107631451D01*
X165174202Y-107403582D01*
X165133348Y-107327148D01*
X164909764Y-107279841D01*
X164239605Y-107950000D01*
X163880395Y-107950000D01*
X163866253Y-107935858D01*
X164045858Y-107756253D01*
X164060000Y-107770395D01*
X164730159Y-107100236D01*
X164682852Y-106876652D01*
X164461484Y-106775763D01*
X164224687Y-106720000D01*
X163981562Y-106711505D01*
X163741451Y-106750605D01*
X163527883Y-106830451D01*
X163514494Y-106819463D01*
X163404180Y-106760498D01*
X163284482Y-106724188D01*
X163160000Y-106711928D01*
X161960000Y-106711928D01*
X161835518Y-106724188D01*
X161715820Y-106760498D01*
X161605506Y-106819463D01*
X161508815Y-106898815D01*
X161429463Y-106995506D01*
X161370498Y-107105820D01*
X161334188Y-107225518D01*
X161321928Y-107350000D01*
X160487741Y-107350000D01*
X160429828Y-107199666D01*
X160307264Y-107005924D01*
X160149258Y-106839816D01*
X159961882Y-106707725D01*
X159752337Y-106614728D01*
X159690810Y-106606036D01*
X159512000Y-106731837D01*
X159258000Y-106731837D01*
X159079190Y-106606036D01*
X159017663Y-106614728D01*
X158808118Y-106707725D01*
X158749669Y-106748929D01*
X158561059Y-106648115D01*
X158342399Y-106581785D01*
X158115000Y-106559388D01*
X157887600Y-106581785D01*
X157678902Y-106645093D01*
X157614180Y-106610498D01*
X157494482Y-106574188D01*
X157370000Y-106561928D01*
X156320000Y-106561928D01*
X156195518Y-106574188D01*
X156075820Y-106610498D01*
X155965506Y-106669463D01*
X155868815Y-106748815D01*
X155789463Y-106845506D01*
X155730498Y-106955820D01*
X155694188Y-107075518D01*
X155681928Y-107200000D01*
X153422201Y-107200000D01*
X153435000Y-107135656D01*
X153435000Y-106764344D01*
X153362561Y-106400166D01*
X153220466Y-106057118D01*
X153014175Y-105748382D01*
X152751618Y-105485825D01*
X152442882Y-105279534D01*
X152125478Y-105148061D01*
X176215000Y-105148061D01*
X176215000Y-105351939D01*
X176254774Y-105551898D01*
X176332795Y-105740256D01*
X176446063Y-105909774D01*
X176590226Y-106053937D01*
X176759744Y-106167205D01*
X176948102Y-106245226D01*
X177148061Y-106285000D01*
X177351939Y-106285000D01*
X177551898Y-106245226D01*
X177740256Y-106167205D01*
X177909774Y-106053937D01*
X178053937Y-105909774D01*
X178167205Y-105740256D01*
X178245226Y-105551898D01*
X178285000Y-105351939D01*
X178285000Y-105148061D01*
X178245226Y-104948102D01*
X178167205Y-104759744D01*
X178053937Y-104590226D01*
X177909774Y-104446063D01*
X177740256Y-104332795D01*
X177551898Y-104254774D01*
X177351939Y-104215000D01*
X177148061Y-104215000D01*
X176948102Y-104254774D01*
X176759744Y-104332795D01*
X176590226Y-104446063D01*
X176446063Y-104590226D01*
X176332795Y-104759744D01*
X176254774Y-104948102D01*
X176215000Y-105148061D01*
X152125478Y-105148061D01*
X152099834Y-105137439D01*
X151735656Y-105065000D01*
X151364344Y-105065000D01*
X151000166Y-105137439D01*
X150657118Y-105279534D01*
X150348382Y-105485825D01*
X150085825Y-105748382D01*
X149879534Y-106057118D01*
X149737439Y-106400166D01*
X149665000Y-106764344D01*
X149127000Y-106764344D01*
X149127000Y-105311039D01*
X150294549Y-104377000D01*
X153250000Y-104377000D01*
X153274776Y-104374560D01*
X153298601Y-104367333D01*
X153320557Y-104355597D01*
X153339803Y-104339803D01*
X156089803Y-101589803D01*
X156105597Y-101570557D01*
X156117333Y-101548601D01*
X156124560Y-101524776D01*
X156127000Y-101500000D01*
X156127000Y-92000000D01*
X156124560Y-91975224D01*
X156117333Y-91951399D01*
X156105597Y-91929443D01*
X156093065Y-91913583D01*
X152843065Y-88413583D01*
X152824417Y-88397087D01*
X152802910Y-88384546D01*
X152779370Y-88376443D01*
X152750000Y-88373000D01*
X147302606Y-88373000D01*
X146127000Y-87197394D01*
X146127000Y-78079117D01*
X147655000Y-78079117D01*
X147655000Y-78420883D01*
X147721675Y-78756081D01*
X147852463Y-79071831D01*
X148042337Y-79355998D01*
X148284002Y-79597663D01*
X148568169Y-79787537D01*
X148883919Y-79918325D01*
X149219117Y-79985000D01*
X149560883Y-79985000D01*
X149896081Y-79918325D01*
X149957912Y-79892714D01*
X150586200Y-80521002D01*
X150609999Y-80550001D01*
X150725724Y-80644974D01*
X150857753Y-80715546D01*
X151001014Y-80759003D01*
X151112667Y-80770000D01*
X151112677Y-80770000D01*
X151150000Y-80773676D01*
X151187323Y-80770000D01*
X162245199Y-80770000D01*
X164340001Y-82864804D01*
X164340000Y-100292678D01*
X164336324Y-100330000D01*
X164340000Y-100367322D01*
X164340000Y-100367332D01*
X164350997Y-100478985D01*
X164376634Y-100563500D01*
X164394454Y-100622246D01*
X164465026Y-100754276D01*
X164504871Y-100802826D01*
X164559999Y-100870001D01*
X164589003Y-100893804D01*
X166156201Y-102461003D01*
X166179999Y-102490001D01*
X166208997Y-102513799D01*
X166295723Y-102584974D01*
X166427753Y-102655546D01*
X166571014Y-102699003D01*
X166682667Y-102710000D01*
X166682677Y-102710000D01*
X166720000Y-102713676D01*
X166757323Y-102710000D01*
X175782732Y-102710000D01*
X175818153Y-102795515D01*
X176013500Y-103087871D01*
X176262129Y-103336500D01*
X176554485Y-103531847D01*
X176879335Y-103666404D01*
X177224193Y-103735000D01*
X177575807Y-103735000D01*
X177920665Y-103666404D01*
X178245515Y-103531847D01*
X178537871Y-103336500D01*
X178786500Y-103087871D01*
X178981847Y-102795515D01*
X179116404Y-102470665D01*
X179185000Y-102125807D01*
X179185000Y-101774193D01*
X179116404Y-101429335D01*
X178981847Y-101104485D01*
X178786500Y-100812129D01*
X178537871Y-100563500D01*
X178245515Y-100368153D01*
X177920665Y-100233596D01*
X177575807Y-100165000D01*
X177224193Y-100165000D01*
X176879335Y-100233596D01*
X176554485Y-100368153D01*
X176262129Y-100563500D01*
X176013500Y-100812129D01*
X175818153Y-101104485D01*
X175782732Y-101190000D01*
X167034802Y-101190000D01*
X165860000Y-100015199D01*
X165860000Y-87792349D01*
X176337256Y-87792349D01*
X176451118Y-88072090D01*
X176766296Y-88227961D01*
X177105826Y-88319349D01*
X177456661Y-88342741D01*
X177805319Y-88297240D01*
X178138400Y-88184594D01*
X178348882Y-88072090D01*
X178462744Y-87792349D01*
X177400000Y-86729605D01*
X176337256Y-87792349D01*
X165860000Y-87792349D01*
X165860000Y-86606661D01*
X175607259Y-86606661D01*
X175652760Y-86955319D01*
X175765406Y-87288400D01*
X175877910Y-87498882D01*
X176157651Y-87612744D01*
X177220395Y-86550000D01*
X177579605Y-86550000D01*
X178642349Y-87612744D01*
X178922090Y-87498882D01*
X179077961Y-87183704D01*
X179169349Y-86844174D01*
X179192741Y-86493339D01*
X179147240Y-86144681D01*
X179034594Y-85811600D01*
X178922090Y-85601118D01*
X178642349Y-85487256D01*
X177579605Y-86550000D01*
X177220395Y-86550000D01*
X176157651Y-85487256D01*
X175877910Y-85601118D01*
X175722039Y-85916296D01*
X175630651Y-86255826D01*
X175607259Y-86606661D01*
X165860000Y-86606661D01*
X165860000Y-85307651D01*
X176337256Y-85307651D01*
X177400000Y-86370395D01*
X178462744Y-85307651D01*
X178348882Y-85027910D01*
X178033704Y-84872039D01*
X177694174Y-84780651D01*
X177343339Y-84757259D01*
X176994681Y-84802760D01*
X176661600Y-84915406D01*
X176451118Y-85027910D01*
X176337256Y-85307651D01*
X165860000Y-85307651D01*
X165860000Y-82587322D01*
X165863676Y-82549999D01*
X165860000Y-82512676D01*
X165860000Y-82512667D01*
X165849003Y-82401014D01*
X165805546Y-82257753D01*
X165734974Y-82125724D01*
X165721811Y-82109685D01*
X165663799Y-82038996D01*
X165663795Y-82038992D01*
X165640001Y-82009999D01*
X165611008Y-81986205D01*
X163123804Y-79499003D01*
X163100001Y-79469999D01*
X162984276Y-79375026D01*
X162852247Y-79304454D01*
X162708986Y-79260997D01*
X162597333Y-79250000D01*
X162597322Y-79250000D01*
X162560000Y-79246324D01*
X162522678Y-79250000D01*
X151464802Y-79250000D01*
X151032714Y-78817912D01*
X151058325Y-78756081D01*
X151125000Y-78420883D01*
X151125000Y-78079117D01*
X170515000Y-78079117D01*
X170515000Y-78420883D01*
X170581675Y-78756081D01*
X170712463Y-79071831D01*
X170902337Y-79355998D01*
X171144002Y-79597663D01*
X171428169Y-79787537D01*
X171743919Y-79918325D01*
X172079117Y-79985000D01*
X172420883Y-79985000D01*
X172756081Y-79918325D01*
X173071831Y-79787537D01*
X173355998Y-79597663D01*
X173597663Y-79355998D01*
X173787537Y-79071831D01*
X173918325Y-78756081D01*
X173985000Y-78420883D01*
X173985000Y-78079117D01*
X173918325Y-77743919D01*
X173787537Y-77428169D01*
X173597663Y-77144002D01*
X173355998Y-76902337D01*
X173071831Y-76712463D01*
X172756081Y-76581675D01*
X172420883Y-76515000D01*
X172079117Y-76515000D01*
X171743919Y-76581675D01*
X171428169Y-76712463D01*
X171144002Y-76902337D01*
X170902337Y-77144002D01*
X170712463Y-77428169D01*
X170581675Y-77743919D01*
X170515000Y-78079117D01*
X151125000Y-78079117D01*
X151058325Y-77743919D01*
X150927537Y-77428169D01*
X150737663Y-77144002D01*
X150495998Y-76902337D01*
X150211831Y-76712463D01*
X149896081Y-76581675D01*
X149560883Y-76515000D01*
X149219117Y-76515000D01*
X148883919Y-76581675D01*
X148568169Y-76712463D01*
X148284002Y-76902337D01*
X148042337Y-77144002D01*
X147852463Y-77428169D01*
X147721675Y-77743919D01*
X147655000Y-78079117D01*
X146127000Y-78079117D01*
X146127000Y-73160000D01*
X178217721Y-73160000D01*
X178606775Y-73198147D01*
G37*
X178606775Y-73198147D02*
X178838504Y-73268110D01*
X179981293Y-74410899D01*
X180049319Y-74630656D01*
X180090001Y-75017722D01*
X180090000Y-113401716D01*
X179994180Y-113350498D01*
X179874482Y-113314188D01*
X179750000Y-113301928D01*
X179260750Y-113305000D01*
X179102000Y-113463750D01*
X179102000Y-114463000D01*
X179122000Y-114463000D01*
X179122000Y-114717000D01*
X179102000Y-114717000D01*
X179102000Y-115716250D01*
X179260750Y-115875000D01*
X179750000Y-115878072D01*
X179874482Y-115865812D01*
X179994180Y-115829502D01*
X180090000Y-115778284D01*
X180090000Y-117901716D01*
X179994180Y-117850498D01*
X179874482Y-117814188D01*
X179750000Y-117801928D01*
X178200000Y-117801928D01*
X178075518Y-117814188D01*
X177955820Y-117850498D01*
X177845506Y-117909463D01*
X177748815Y-117988815D01*
X177669463Y-118085506D01*
X177610498Y-118195820D01*
X177574188Y-118315518D01*
X177572762Y-118330000D01*
X174697322Y-118330000D01*
X174659999Y-118326324D01*
X174622676Y-118330000D01*
X174622667Y-118330000D01*
X174511014Y-118340997D01*
X174367753Y-118384454D01*
X174235723Y-118455026D01*
X174181377Y-118499627D01*
X174119999Y-118549999D01*
X174096201Y-118578997D01*
X173250000Y-119425198D01*
X172438072Y-118613271D01*
X172438072Y-118440000D01*
X172425812Y-118315518D01*
X172389502Y-118195820D01*
X172330537Y-118085506D01*
X172251185Y-117988815D01*
X172154494Y-117909463D01*
X172044180Y-117850498D01*
X171924482Y-117814188D01*
X171800000Y-117801928D01*
X170250000Y-117801928D01*
X170125518Y-117814188D01*
X170005820Y-117850498D01*
X169895506Y-117909463D01*
X169798815Y-117988815D01*
X169719463Y-118085506D01*
X169660498Y-118195820D01*
X169624188Y-118315518D01*
X169611928Y-118440000D01*
X169611928Y-119740000D01*
X169624188Y-119864482D01*
X169660498Y-119984180D01*
X169719463Y-120094494D01*
X169798815Y-120191185D01*
X169895506Y-120270537D01*
X170005820Y-120329502D01*
X170125518Y-120365812D01*
X170250000Y-120378072D01*
X171800000Y-120378072D01*
X171924482Y-120365812D01*
X172013889Y-120338691D01*
X172215000Y-120539802D01*
X172215000Y-120601939D01*
X172254774Y-120801898D01*
X172332795Y-120990256D01*
X172446063Y-121159774D01*
X172590226Y-121303937D01*
X172759744Y-121417205D01*
X172948102Y-121495226D01*
X173148061Y-121535000D01*
X173351939Y-121535000D01*
X173551898Y-121495226D01*
X173740256Y-121417205D01*
X173909774Y-121303937D01*
X174053937Y-121159774D01*
X174167205Y-120990256D01*
X174245226Y-120801898D01*
X174285000Y-120601939D01*
X174285000Y-120539801D01*
X174974802Y-119850000D01*
X177572762Y-119850000D01*
X177574188Y-119864482D01*
X177610498Y-119984180D01*
X177669463Y-120094494D01*
X177748815Y-120191185D01*
X177845506Y-120270537D01*
X177955820Y-120329502D01*
X178075518Y-120365812D01*
X178200000Y-120378072D01*
X179750000Y-120378072D01*
X179874482Y-120365812D01*
X179994180Y-120329502D01*
X180090000Y-120278284D01*
X180090000Y-132967721D01*
X180051853Y-133356776D01*
X179981890Y-133588504D01*
X178839101Y-134731293D01*
X178619344Y-134799319D01*
X178232288Y-134840000D01*
X175479077Y-134840000D01*
X175540001Y-134790001D01*
X175563804Y-134760997D01*
X175970997Y-134353804D01*
X176000001Y-134330001D01*
X176094974Y-134214276D01*
X176165546Y-134082247D01*
X176209003Y-133938986D01*
X176218842Y-133839086D01*
X176438505Y-133692312D01*
X176504944Y-133625873D01*
X176510498Y-133644180D01*
X176569463Y-133754494D01*
X176648815Y-133851185D01*
X176745506Y-133930537D01*
X176855820Y-133989502D01*
X176975518Y-134025812D01*
X177100000Y-134038072D01*
X177714250Y-134035000D01*
X177873000Y-133876250D01*
X177873000Y-132627000D01*
X178127000Y-132627000D01*
X178127000Y-133876250D01*
X178285750Y-134035000D01*
X178900000Y-134038072D01*
X179024482Y-134025812D01*
X179144180Y-133989502D01*
X179254494Y-133930537D01*
X179351185Y-133851185D01*
X179430537Y-133754494D01*
X179489502Y-133644180D01*
X179525812Y-133524482D01*
X179538072Y-133400000D01*
X179535000Y-132785750D01*
X179376250Y-132627000D01*
X178127000Y-132627000D01*
X177873000Y-132627000D01*
X177853000Y-132627000D01*
X177853000Y-132373000D01*
X177873000Y-132373000D01*
X177873000Y-131123750D01*
X178127000Y-131123750D01*
X178127000Y-132373000D01*
X179376250Y-132373000D01*
X179535000Y-132214250D01*
X179538072Y-131600000D01*
X179525812Y-131475518D01*
X179489502Y-131355820D01*
X179430537Y-131245506D01*
X179351185Y-131148815D01*
X179254494Y-131069463D01*
X179144180Y-131010498D01*
X179024482Y-130974188D01*
X178900000Y-130961928D01*
X178285750Y-130965000D01*
X178127000Y-131123750D01*
X177873000Y-131123750D01*
X177714250Y-130965000D01*
X177100000Y-130961928D01*
X176975518Y-130974188D01*
X176855820Y-131010498D01*
X176745506Y-131069463D01*
X176648815Y-131148815D01*
X176569463Y-131245506D01*
X176510498Y-131355820D01*
X176504944Y-131374127D01*
X176438505Y-131307688D01*
X176187095Y-131139701D01*
X175907743Y-131023989D01*
X175611184Y-130965000D01*
X175308816Y-130965000D01*
X175012257Y-131023989D01*
X174760000Y-131128478D01*
X174760000Y-129371522D01*
X175012257Y-129476011D01*
X175308816Y-129535000D01*
X175611184Y-129535000D01*
X175907743Y-129476011D01*
X176187095Y-129360299D01*
X176438505Y-129192312D01*
X176504944Y-129125873D01*
X176510498Y-129144180D01*
X176569463Y-129254494D01*
X176648815Y-129351185D01*
X176745506Y-129430537D01*
X176855820Y-129489502D01*
X176975518Y-129525812D01*
X177100000Y-129538072D01*
X178900000Y-129538072D01*
X179024482Y-129525812D01*
X179144180Y-129489502D01*
X179254494Y-129430537D01*
X179351185Y-129351185D01*
X179430537Y-129254494D01*
X179489502Y-129144180D01*
X179525812Y-129024482D01*
X179538072Y-128900000D01*
X179538072Y-127100000D01*
X179525812Y-126975518D01*
X179489502Y-126855820D01*
X179430537Y-126745506D01*
X179351185Y-126648815D01*
X179254494Y-126569463D01*
X179144180Y-126510498D01*
X179024482Y-126474188D01*
X178900000Y-126461928D01*
X177100000Y-126461928D01*
X176975518Y-126474188D01*
X176855820Y-126510498D01*
X176745506Y-126569463D01*
X176648815Y-126648815D01*
X176569463Y-126745506D01*
X176510498Y-126855820D01*
X176504944Y-126874127D01*
X176438505Y-126807688D01*
X176187095Y-126639701D01*
X175907743Y-126523989D01*
X175611184Y-126465000D01*
X175308816Y-126465000D01*
X175012257Y-126523989D01*
X174760000Y-126628478D01*
X174760000Y-124871522D01*
X175012257Y-124976011D01*
X175308816Y-125035000D01*
X175611184Y-125035000D01*
X175907743Y-124976011D01*
X176187095Y-124860299D01*
X176438505Y-124692312D01*
X176504944Y-124625873D01*
X176510498Y-124644180D01*
X176569463Y-124754494D01*
X176648815Y-124851185D01*
X176745506Y-124930537D01*
X176855820Y-124989502D01*
X176975518Y-125025812D01*
X177100000Y-125038072D01*
X177714250Y-125035000D01*
X177873000Y-124876250D01*
X177873000Y-123627000D01*
X178127000Y-123627000D01*
X178127000Y-124876250D01*
X178285750Y-125035000D01*
X178900000Y-125038072D01*
X179024482Y-125025812D01*
X179144180Y-124989502D01*
X179254494Y-124930537D01*
X179351185Y-124851185D01*
X179430537Y-124754494D01*
X179489502Y-124644180D01*
X179525812Y-124524482D01*
X179538072Y-124400000D01*
X179535000Y-123785750D01*
X179376250Y-123627000D01*
X178127000Y-123627000D01*
X177873000Y-123627000D01*
X177853000Y-123627000D01*
X177853000Y-123373000D01*
X177873000Y-123373000D01*
X177873000Y-122123750D01*
X178127000Y-122123750D01*
X178127000Y-123373000D01*
X179376250Y-123373000D01*
X179535000Y-123214250D01*
X179538072Y-122600000D01*
X179525812Y-122475518D01*
X179489502Y-122355820D01*
X179430537Y-122245506D01*
X179351185Y-122148815D01*
X179254494Y-122069463D01*
X179144180Y-122010498D01*
X179024482Y-121974188D01*
X178900000Y-121961928D01*
X178285750Y-121965000D01*
X178127000Y-122123750D01*
X177873000Y-122123750D01*
X177714250Y-121965000D01*
X177100000Y-121961928D01*
X176975518Y-121974188D01*
X176855820Y-122010498D01*
X176745506Y-122069463D01*
X176648815Y-122148815D01*
X176569463Y-122245506D01*
X176510498Y-122355820D01*
X176504944Y-122374127D01*
X176438505Y-122307688D01*
X176187095Y-122139701D01*
X175907743Y-122023989D01*
X175611184Y-121965000D01*
X175308816Y-121965000D01*
X175012257Y-122023989D01*
X174732905Y-122139701D01*
X174481495Y-122307688D01*
X174267688Y-122521495D01*
X174119702Y-122742972D01*
X174038222Y-122750997D01*
X173894961Y-122794454D01*
X173762932Y-122865026D01*
X173647207Y-122959999D01*
X173623404Y-122989003D01*
X173489003Y-123123404D01*
X173459999Y-123147207D01*
X173426491Y-123188037D01*
X173365026Y-123262932D01*
X173306193Y-123373000D01*
X173294454Y-123394962D01*
X173250997Y-123538223D01*
X173240000Y-123649876D01*
X173240000Y-123649886D01*
X173236324Y-123687208D01*
X173240000Y-123724530D01*
X173240001Y-133039990D01*
X172955940Y-133039990D01*
X172975812Y-132974482D01*
X172988072Y-132850000D01*
X172988072Y-131150000D01*
X172975812Y-131025518D01*
X172939502Y-130905820D01*
X172880537Y-130795506D01*
X172801185Y-130698815D01*
X172704494Y-130619463D01*
X172594180Y-130560498D01*
X172521620Y-130538487D01*
X172653475Y-130406632D01*
X172815990Y-130163411D01*
X172927932Y-129893158D01*
X172985000Y-129606260D01*
X172985000Y-129313740D01*
X172927932Y-129026842D01*
X172815990Y-128756589D01*
X172653475Y-128513368D01*
X172446632Y-128306525D01*
X172272240Y-128190000D01*
X172446632Y-128073475D01*
X172653475Y-127866632D01*
X172815990Y-127623411D01*
X172927932Y-127353158D01*
X172985000Y-127066260D01*
X172985000Y-126773740D01*
X172927932Y-126486842D01*
X172815990Y-126216589D01*
X172653475Y-125973368D01*
X172446632Y-125766525D01*
X172264466Y-125644805D01*
X172381355Y-125575178D01*
X172597588Y-125380269D01*
X172771641Y-125146920D01*
X172896825Y-124884099D01*
X172941476Y-124736890D01*
X172820155Y-124507000D01*
X171627000Y-124507000D01*
X171627000Y-124527000D01*
X171373000Y-124527000D01*
X171373000Y-124507000D01*
X171353000Y-124507000D01*
X171353000Y-124253000D01*
X171373000Y-124253000D01*
X171373000Y-123059186D01*
X171627000Y-123059186D01*
X171627000Y-124253000D01*
X172820155Y-124253000D01*
X172941476Y-124023110D01*
X172896825Y-123875901D01*
X172771641Y-123613080D01*
X172597588Y-123379731D01*
X172381355Y-123184822D01*
X172131252Y-123035843D01*
X171856891Y-122938519D01*
X171627000Y-123059186D01*
X171373000Y-123059186D01*
X171143109Y-122938519D01*
X170868748Y-123035843D01*
X170715763Y-123126972D01*
X170667205Y-123009744D01*
X170553937Y-122840226D01*
X170510000Y-122796289D01*
X170510000Y-122703711D01*
X170553937Y-122659774D01*
X170667205Y-122490256D01*
X170745226Y-122301898D01*
X170785000Y-122101939D01*
X170785000Y-121898061D01*
X170745226Y-121698102D01*
X170667205Y-121509744D01*
X170553937Y-121340226D01*
X170409774Y-121196063D01*
X170240256Y-121082795D01*
X170051898Y-121004774D01*
X169851939Y-120965000D01*
X169648061Y-120965000D01*
X169448102Y-121004774D01*
X169259744Y-121082795D01*
X169090226Y-121196063D01*
X168946063Y-121340226D01*
X168832795Y-121509744D01*
X168754774Y-121698102D01*
X168715000Y-121898061D01*
X168715000Y-122101939D01*
X168754774Y-122301898D01*
X168832795Y-122490256D01*
X168868512Y-122543710D01*
X167260000Y-120935199D01*
X167260000Y-120121542D01*
X167296589Y-120145990D01*
X167566842Y-120257932D01*
X167853740Y-120315000D01*
X168146260Y-120315000D01*
X168433158Y-120257932D01*
X168703411Y-120145990D01*
X168946632Y-119983475D01*
X169153475Y-119776632D01*
X169315990Y-119533411D01*
X169427932Y-119263158D01*
X169485000Y-118976260D01*
X169485000Y-118683740D01*
X169427932Y-118396842D01*
X169315990Y-118126589D01*
X169153475Y-117883368D01*
X168946632Y-117676525D01*
X168772240Y-117560000D01*
X168946632Y-117443475D01*
X169153475Y-117236632D01*
X169315990Y-116993411D01*
X169427932Y-116723158D01*
X169485000Y-116436260D01*
X169485000Y-116143740D01*
X169427932Y-115856842D01*
X169315990Y-115586589D01*
X169153475Y-115343368D01*
X169050107Y-115240000D01*
X169611928Y-115240000D01*
X169624188Y-115364482D01*
X169660498Y-115484180D01*
X169719463Y-115594494D01*
X169798815Y-115691185D01*
X169895506Y-115770537D01*
X170005820Y-115829502D01*
X170125518Y-115865812D01*
X170250000Y-115878072D01*
X170739250Y-115875000D01*
X170898000Y-115716250D01*
X170898000Y-114717000D01*
X171152000Y-114717000D01*
X171152000Y-115716250D01*
X171310750Y-115875000D01*
X171800000Y-115878072D01*
X171924482Y-115865812D01*
X172044180Y-115829502D01*
X172154494Y-115770537D01*
X172251185Y-115691185D01*
X172330537Y-115594494D01*
X172389502Y-115484180D01*
X172425812Y-115364482D01*
X172438072Y-115240000D01*
X177561928Y-115240000D01*
X177574188Y-115364482D01*
X177610498Y-115484180D01*
X177669463Y-115594494D01*
X177748815Y-115691185D01*
X177845506Y-115770537D01*
X177955820Y-115829502D01*
X178075518Y-115865812D01*
X178200000Y-115878072D01*
X178689250Y-115875000D01*
X178848000Y-115716250D01*
X178848000Y-114717000D01*
X177723750Y-114717000D01*
X177565000Y-114875750D01*
X177561928Y-115240000D01*
X172438072Y-115240000D01*
X172435000Y-114875750D01*
X172276250Y-114717000D01*
X171152000Y-114717000D01*
X170898000Y-114717000D01*
X169773750Y-114717000D01*
X169615000Y-114875750D01*
X169611928Y-115240000D01*
X169050107Y-115240000D01*
X169021620Y-115211513D01*
X169094180Y-115189502D01*
X169204494Y-115130537D01*
X169301185Y-115051185D01*
X169380537Y-114954494D01*
X169439502Y-114844180D01*
X169475812Y-114724482D01*
X169488072Y-114600000D01*
X169488072Y-113940000D01*
X169611928Y-113940000D01*
X169615000Y-114304250D01*
X169773750Y-114463000D01*
X170898000Y-114463000D01*
X170898000Y-113463750D01*
X171152000Y-113463750D01*
X171152000Y-114463000D01*
X172276250Y-114463000D01*
X172435000Y-114304250D01*
X172438072Y-113940000D01*
X177561928Y-113940000D01*
X177565000Y-114304250D01*
X177723750Y-114463000D01*
X178848000Y-114463000D01*
X178848000Y-113463750D01*
X178689250Y-113305000D01*
X178200000Y-113301928D01*
X178075518Y-113314188D01*
X177955820Y-113350498D01*
X177845506Y-113409463D01*
X177748815Y-113488815D01*
X177669463Y-113585506D01*
X177610498Y-113695820D01*
X177574188Y-113815518D01*
X177561928Y-113940000D01*
X172438072Y-113940000D01*
X172425812Y-113815518D01*
X172389502Y-113695820D01*
X172330537Y-113585506D01*
X172251185Y-113488815D01*
X172154494Y-113409463D01*
X172044180Y-113350498D01*
X171924482Y-113314188D01*
X171800000Y-113301928D01*
X171310750Y-113305000D01*
X171152000Y-113463750D01*
X170898000Y-113463750D01*
X170739250Y-113305000D01*
X170250000Y-113301928D01*
X170125518Y-113314188D01*
X170005820Y-113350498D01*
X169895506Y-113409463D01*
X169798815Y-113488815D01*
X169719463Y-113585506D01*
X169660498Y-113695820D01*
X169624188Y-113815518D01*
X169611928Y-113940000D01*
X169488072Y-113940000D01*
X169488072Y-112900000D01*
X169475812Y-112775518D01*
X169439502Y-112655820D01*
X169380537Y-112545506D01*
X169301185Y-112448815D01*
X169204494Y-112369463D01*
X169094180Y-112310498D01*
X168974482Y-112274188D01*
X168850000Y-112261928D01*
X167267747Y-112261928D01*
X167287322Y-112260000D01*
X174482678Y-112260000D01*
X174520000Y-112263676D01*
X174557322Y-112260000D01*
X174557333Y-112260000D01*
X174668986Y-112249003D01*
X174812247Y-112205546D01*
X174944276Y-112134974D01*
X175060001Y-112040001D01*
X175083803Y-112010998D01*
X175761004Y-111333798D01*
X175790001Y-111310001D01*
X175830213Y-111261003D01*
X175884974Y-111194277D01*
X175955546Y-111062247D01*
X175969877Y-111015000D01*
X176411928Y-111015000D01*
X176424188Y-111139482D01*
X176460498Y-111259180D01*
X176519463Y-111369494D01*
X176598815Y-111466185D01*
X176695506Y-111545537D01*
X176805820Y-111604502D01*
X176925518Y-111640812D01*
X177050000Y-111653072D01*
X177514250Y-111650000D01*
X177673000Y-111491250D01*
X177673000Y-110617000D01*
X177927000Y-110617000D01*
X177927000Y-111491250D01*
X178085750Y-111650000D01*
X178550000Y-111653072D01*
X178674482Y-111640812D01*
X178794180Y-111604502D01*
X178904494Y-111545537D01*
X179001185Y-111466185D01*
X179080537Y-111369494D01*
X179139502Y-111259180D01*
X179175812Y-111139482D01*
X179188072Y-111015000D01*
X179185000Y-110775750D01*
X179026250Y-110617000D01*
X177927000Y-110617000D01*
X177673000Y-110617000D01*
X176573750Y-110617000D01*
X176415000Y-110775750D01*
X176411928Y-111015000D01*
X175969877Y-111015000D01*
X175977765Y-110988998D01*
X175999003Y-110918986D01*
X176010000Y-110807333D01*
X176010000Y-110807323D01*
X176013676Y-110770000D01*
X176010000Y-110732677D01*
X176010000Y-110064801D01*
X176094802Y-109980000D01*
X176412121Y-109980000D01*
X176415000Y-110204250D01*
X176573750Y-110363000D01*
X177346891Y-110363000D01*
X177347600Y-110363215D01*
X177518021Y-110380000D01*
X178081979Y-110380000D01*
X178252400Y-110363215D01*
X178253109Y-110363000D01*
X179026250Y-110363000D01*
X179185000Y-110204250D01*
X179188072Y-109965000D01*
X179175812Y-109840518D01*
X179139502Y-109720820D01*
X179104907Y-109656098D01*
X179168215Y-109447400D01*
X179190612Y-109220000D01*
X179168215Y-108992600D01*
X179101885Y-108773940D01*
X179000895Y-108585000D01*
X179101885Y-108396060D01*
X179168215Y-108177400D01*
X179190612Y-107950000D01*
X179168215Y-107722600D01*
X179101885Y-107503940D01*
X178994171Y-107302421D01*
X178849212Y-107125788D01*
X178672579Y-106980829D01*
X178471060Y-106873115D01*
X178252400Y-106806785D01*
X178081979Y-106790000D01*
X177518021Y-106790000D01*
X177347600Y-106806785D01*
X177128940Y-106873115D01*
X176927421Y-106980829D01*
X176750788Y-107125788D01*
X176605829Y-107302421D01*
X176498115Y-107503940D01*
X176431785Y-107722600D01*
X176409388Y-107950000D01*
X176431785Y-108177400D01*
X176498115Y-108396060D01*
X176532292Y-108460000D01*
X175817322Y-108460000D01*
X175779999Y-108456324D01*
X175742676Y-108460000D01*
X175742667Y-108460000D01*
X175631014Y-108470997D01*
X175487753Y-108514454D01*
X175355724Y-108585026D01*
X175239999Y-108679999D01*
X175216200Y-108708998D01*
X174738998Y-109186201D01*
X174710000Y-109209999D01*
X174686202Y-109238997D01*
X174686201Y-109238998D01*
X174615026Y-109325724D01*
X174544454Y-109457754D01*
X174527449Y-109513815D01*
X174500998Y-109601014D01*
X174492624Y-109686038D01*
X174486324Y-109750000D01*
X174490001Y-109787332D01*
X174490000Y-110455198D01*
X174205199Y-110740000D01*
X167564802Y-110740000D01*
X167063803Y-110239002D01*
X167040001Y-110209999D01*
X166924276Y-110115026D01*
X166792247Y-110044454D01*
X166648986Y-110000997D01*
X166537333Y-109990000D01*
X166537322Y-109990000D01*
X166500000Y-109986324D01*
X166462678Y-109990000D01*
X162287323Y-109990000D01*
X162250000Y-109986324D01*
X162212677Y-109990000D01*
X162212667Y-109990000D01*
X162101014Y-110000997D01*
X161965032Y-110042246D01*
X161957753Y-110044454D01*
X161825723Y-110115026D01*
X161742083Y-110183668D01*
X161709999Y-110209999D01*
X161686201Y-110238997D01*
X160488998Y-111436201D01*
X160460000Y-111459999D01*
X160436202Y-111488997D01*
X160436201Y-111488998D01*
X160365026Y-111575724D01*
X160294454Y-111707754D01*
X160250998Y-111851015D01*
X160236324Y-112000000D01*
X160240001Y-112037332D01*
X160240000Y-113435198D01*
X159500199Y-114175000D01*
X158468043Y-114175000D01*
X158364637Y-114020241D01*
X158166039Y-113821643D01*
X158174482Y-113820812D01*
X158294180Y-113784502D01*
X158404494Y-113725537D01*
X158501185Y-113646185D01*
X158580537Y-113549494D01*
X158639502Y-113439180D01*
X158675812Y-113319482D01*
X158688072Y-113195000D01*
X158688072Y-111595000D01*
X158675812Y-111470518D01*
X158639502Y-111350820D01*
X158580537Y-111240506D01*
X158501185Y-111143815D01*
X158404494Y-111064463D01*
X158294180Y-111005498D01*
X158174482Y-110969188D01*
X158050000Y-110956928D01*
X156450000Y-110956928D01*
X156325518Y-110969188D01*
X156205820Y-111005498D01*
X156095506Y-111064463D01*
X155998815Y-111143815D01*
X155919463Y-111240506D01*
X155860498Y-111350820D01*
X155824188Y-111470518D01*
X155811928Y-111595000D01*
X155811928Y-111632322D01*
X153589803Y-109410197D01*
X153570557Y-109394403D01*
X153548601Y-109382667D01*
X153524776Y-109375440D01*
X153500000Y-109373000D01*
X150302606Y-109373000D01*
X149127000Y-108197394D01*
X149127000Y-106764344D01*
X149665000Y-106764344D01*
X149665000Y-107135656D01*
X149737439Y-107499834D01*
X149879534Y-107842882D01*
X150085825Y-108151618D01*
X150348382Y-108414175D01*
X150657118Y-108620466D01*
X151000166Y-108762561D01*
X151364344Y-108835000D01*
X151735656Y-108835000D01*
X152099834Y-108762561D01*
X152442882Y-108620466D01*
X152751618Y-108414175D01*
X153014175Y-108151618D01*
X153220466Y-107842882D01*
X153362561Y-107499834D01*
X153422201Y-107200000D01*
X155681928Y-107200000D01*
X155681928Y-108700000D01*
X155694188Y-108824482D01*
X155730498Y-108944180D01*
X155789463Y-109054494D01*
X155868815Y-109151185D01*
X155965506Y-109230537D01*
X156075820Y-109289502D01*
X156195518Y-109325812D01*
X156320000Y-109338072D01*
X157370000Y-109338072D01*
X157494482Y-109325812D01*
X157614180Y-109289502D01*
X157678902Y-109254907D01*
X157887601Y-109318215D01*
X158115000Y-109340612D01*
X158342400Y-109318215D01*
X158561060Y-109251885D01*
X158749669Y-109151071D01*
X158808118Y-109192275D01*
X159017663Y-109285272D01*
X159079190Y-109293964D01*
X159258000Y-109168163D01*
X159258000Y-108403108D01*
X159258215Y-108402399D01*
X159275000Y-108231978D01*
X159275000Y-108077000D01*
X159512000Y-108077000D01*
X159512000Y-109168163D01*
X159690810Y-109293964D01*
X159752337Y-109285272D01*
X159961882Y-109192275D01*
X160149258Y-109060184D01*
X160307264Y-108894076D01*
X160429828Y-108700334D01*
X160512239Y-108486404D01*
X160551331Y-108260507D01*
X160391598Y-108077000D01*
X159512000Y-108077000D01*
X159275000Y-108077000D01*
X159275000Y-107668021D01*
X159258215Y-107497600D01*
X159258000Y-107496891D01*
X159258000Y-106731837D01*
X159512000Y-106731837D01*
X159512000Y-107823000D01*
X160391598Y-107823000D01*
X160551331Y-107639493D01*
X160512239Y-107413596D01*
X160487741Y-107350000D01*
X161321928Y-107350000D01*
X161321928Y-108550000D01*
X161334188Y-108674482D01*
X161370498Y-108794180D01*
X161429463Y-108904494D01*
X161508815Y-109001185D01*
X161605506Y-109080537D01*
X161715820Y-109139502D01*
X161835518Y-109175812D01*
X161960000Y-109188072D01*
X163160000Y-109188072D01*
X163284482Y-109175812D01*
X163404180Y-109139502D01*
X163514494Y-109080537D01*
X163531681Y-109066432D01*
X163658516Y-109124237D01*
X163895313Y-109180000D01*
X164138438Y-109188495D01*
X164378549Y-109149395D01*
X164606418Y-109064202D01*
X164682852Y-109023348D01*
X164730159Y-108799764D01*
X164060000Y-108129605D01*
X164045858Y-108143748D01*
X163866253Y-107964143D01*
X163880395Y-107950000D01*
X164239605Y-107950000D01*
X164909764Y-108620159D01*
X165133348Y-108572852D01*
X165234237Y-108351484D01*
X165290000Y-108114687D01*
X165298495Y-107871562D01*
X165275423Y-107729872D01*
X167310000Y-107729872D01*
X167310000Y-108170128D01*
X167395890Y-108601925D01*
X167564369Y-109008669D01*
X167808962Y-109374729D01*
X168120271Y-109686038D01*
X168486331Y-109930631D01*
X168893075Y-110099110D01*
X169324872Y-110185000D01*
X169765128Y-110185000D01*
X170196925Y-110099110D01*
X170603669Y-109930631D01*
X170969729Y-109686038D01*
X171281038Y-109374729D01*
X171525631Y-109008669D01*
X171694110Y-108601925D01*
X171780000Y-108170128D01*
X171780000Y-107729872D01*
X171694110Y-107298075D01*
X171525631Y-106891331D01*
X171281038Y-106525271D01*
X170969729Y-106213962D01*
X170603669Y-105969369D01*
X170196925Y-105800890D01*
X169765128Y-105715000D01*
X169324872Y-105715000D01*
X168893075Y-105800890D01*
X168486331Y-105969369D01*
X168120271Y-106213962D01*
X167808962Y-106525271D01*
X167564369Y-106891331D01*
X167395890Y-107298075D01*
X167310000Y-107729872D01*
X165275423Y-107729872D01*
X165259395Y-107631451D01*
X165174202Y-107403582D01*
X165133348Y-107327148D01*
X164909764Y-107279841D01*
X164239605Y-107950000D01*
X163880395Y-107950000D01*
X163866253Y-107935858D01*
X164045858Y-107756253D01*
X164060000Y-107770395D01*
X164730159Y-107100236D01*
X164682852Y-106876652D01*
X164461484Y-106775763D01*
X164224687Y-106720000D01*
X163981562Y-106711505D01*
X163741451Y-106750605D01*
X163527883Y-106830451D01*
X163514494Y-106819463D01*
X163404180Y-106760498D01*
X163284482Y-106724188D01*
X163160000Y-106711928D01*
X161960000Y-106711928D01*
X161835518Y-106724188D01*
X161715820Y-106760498D01*
X161605506Y-106819463D01*
X161508815Y-106898815D01*
X161429463Y-106995506D01*
X161370498Y-107105820D01*
X161334188Y-107225518D01*
X161321928Y-107350000D01*
X160487741Y-107350000D01*
X160429828Y-107199666D01*
X160307264Y-107005924D01*
X160149258Y-106839816D01*
X159961882Y-106707725D01*
X159752337Y-106614728D01*
X159690810Y-106606036D01*
X159512000Y-106731837D01*
X159258000Y-106731837D01*
X159079190Y-106606036D01*
X159017663Y-106614728D01*
X158808118Y-106707725D01*
X158749669Y-106748929D01*
X158561059Y-106648115D01*
X158342399Y-106581785D01*
X158115000Y-106559388D01*
X157887600Y-106581785D01*
X157678902Y-106645093D01*
X157614180Y-106610498D01*
X157494482Y-106574188D01*
X157370000Y-106561928D01*
X156320000Y-106561928D01*
X156195518Y-106574188D01*
X156075820Y-106610498D01*
X155965506Y-106669463D01*
X155868815Y-106748815D01*
X155789463Y-106845506D01*
X155730498Y-106955820D01*
X155694188Y-107075518D01*
X155681928Y-107200000D01*
X153422201Y-107200000D01*
X153435000Y-107135656D01*
X153435000Y-106764344D01*
X153362561Y-106400166D01*
X153220466Y-106057118D01*
X153014175Y-105748382D01*
X152751618Y-105485825D01*
X152442882Y-105279534D01*
X152125478Y-105148061D01*
X176215000Y-105148061D01*
X176215000Y-105351939D01*
X176254774Y-105551898D01*
X176332795Y-105740256D01*
X176446063Y-105909774D01*
X176590226Y-106053937D01*
X176759744Y-106167205D01*
X176948102Y-106245226D01*
X177148061Y-106285000D01*
X177351939Y-106285000D01*
X177551898Y-106245226D01*
X177740256Y-106167205D01*
X177909774Y-106053937D01*
X178053937Y-105909774D01*
X178167205Y-105740256D01*
X178245226Y-105551898D01*
X178285000Y-105351939D01*
X178285000Y-105148061D01*
X178245226Y-104948102D01*
X178167205Y-104759744D01*
X178053937Y-104590226D01*
X177909774Y-104446063D01*
X177740256Y-104332795D01*
X177551898Y-104254774D01*
X177351939Y-104215000D01*
X177148061Y-104215000D01*
X176948102Y-104254774D01*
X176759744Y-104332795D01*
X176590226Y-104446063D01*
X176446063Y-104590226D01*
X176332795Y-104759744D01*
X176254774Y-104948102D01*
X176215000Y-105148061D01*
X152125478Y-105148061D01*
X152099834Y-105137439D01*
X151735656Y-105065000D01*
X151364344Y-105065000D01*
X151000166Y-105137439D01*
X150657118Y-105279534D01*
X150348382Y-105485825D01*
X150085825Y-105748382D01*
X149879534Y-106057118D01*
X149737439Y-106400166D01*
X149665000Y-106764344D01*
X149127000Y-106764344D01*
X149127000Y-105311039D01*
X150294549Y-104377000D01*
X153250000Y-104377000D01*
X153274776Y-104374560D01*
X153298601Y-104367333D01*
X153320557Y-104355597D01*
X153339803Y-104339803D01*
X156089803Y-101589803D01*
X156105597Y-101570557D01*
X156117333Y-101548601D01*
X156124560Y-101524776D01*
X156127000Y-101500000D01*
X156127000Y-92000000D01*
X156124560Y-91975224D01*
X156117333Y-91951399D01*
X156105597Y-91929443D01*
X156093065Y-91913583D01*
X152843065Y-88413583D01*
X152824417Y-88397087D01*
X152802910Y-88384546D01*
X152779370Y-88376443D01*
X152750000Y-88373000D01*
X147302606Y-88373000D01*
X146127000Y-87197394D01*
X146127000Y-78079117D01*
X147655000Y-78079117D01*
X147655000Y-78420883D01*
X147721675Y-78756081D01*
X147852463Y-79071831D01*
X148042337Y-79355998D01*
X148284002Y-79597663D01*
X148568169Y-79787537D01*
X148883919Y-79918325D01*
X149219117Y-79985000D01*
X149560883Y-79985000D01*
X149896081Y-79918325D01*
X149957912Y-79892714D01*
X150586200Y-80521002D01*
X150609999Y-80550001D01*
X150725724Y-80644974D01*
X150857753Y-80715546D01*
X151001014Y-80759003D01*
X151112667Y-80770000D01*
X151112677Y-80770000D01*
X151150000Y-80773676D01*
X151187323Y-80770000D01*
X162245199Y-80770000D01*
X164340001Y-82864804D01*
X164340000Y-100292678D01*
X164336324Y-100330000D01*
X164340000Y-100367322D01*
X164340000Y-100367332D01*
X164350997Y-100478985D01*
X164376634Y-100563500D01*
X164394454Y-100622246D01*
X164465026Y-100754276D01*
X164504871Y-100802826D01*
X164559999Y-100870001D01*
X164589003Y-100893804D01*
X166156201Y-102461003D01*
X166179999Y-102490001D01*
X166208997Y-102513799D01*
X166295723Y-102584974D01*
X166427753Y-102655546D01*
X166571014Y-102699003D01*
X166682667Y-102710000D01*
X166682677Y-102710000D01*
X166720000Y-102713676D01*
X166757323Y-102710000D01*
X175782732Y-102710000D01*
X175818153Y-102795515D01*
X176013500Y-103087871D01*
X176262129Y-103336500D01*
X176554485Y-103531847D01*
X176879335Y-103666404D01*
X177224193Y-103735000D01*
X177575807Y-103735000D01*
X177920665Y-103666404D01*
X178245515Y-103531847D01*
X178537871Y-103336500D01*
X178786500Y-103087871D01*
X178981847Y-102795515D01*
X179116404Y-102470665D01*
X179185000Y-102125807D01*
X179185000Y-101774193D01*
X179116404Y-101429335D01*
X178981847Y-101104485D01*
X178786500Y-100812129D01*
X178537871Y-100563500D01*
X178245515Y-100368153D01*
X177920665Y-100233596D01*
X177575807Y-100165000D01*
X177224193Y-100165000D01*
X176879335Y-100233596D01*
X176554485Y-100368153D01*
X176262129Y-100563500D01*
X176013500Y-100812129D01*
X175818153Y-101104485D01*
X175782732Y-101190000D01*
X167034802Y-101190000D01*
X165860000Y-100015199D01*
X165860000Y-87792349D01*
X176337256Y-87792349D01*
X176451118Y-88072090D01*
X176766296Y-88227961D01*
X177105826Y-88319349D01*
X177456661Y-88342741D01*
X177805319Y-88297240D01*
X178138400Y-88184594D01*
X178348882Y-88072090D01*
X178462744Y-87792349D01*
X177400000Y-86729605D01*
X176337256Y-87792349D01*
X165860000Y-87792349D01*
X165860000Y-86606661D01*
X175607259Y-86606661D01*
X175652760Y-86955319D01*
X175765406Y-87288400D01*
X175877910Y-87498882D01*
X176157651Y-87612744D01*
X177220395Y-86550000D01*
X177579605Y-86550000D01*
X178642349Y-87612744D01*
X178922090Y-87498882D01*
X179077961Y-87183704D01*
X179169349Y-86844174D01*
X179192741Y-86493339D01*
X179147240Y-86144681D01*
X179034594Y-85811600D01*
X178922090Y-85601118D01*
X178642349Y-85487256D01*
X177579605Y-86550000D01*
X177220395Y-86550000D01*
X176157651Y-85487256D01*
X175877910Y-85601118D01*
X175722039Y-85916296D01*
X175630651Y-86255826D01*
X175607259Y-86606661D01*
X165860000Y-86606661D01*
X165860000Y-85307651D01*
X176337256Y-85307651D01*
X177400000Y-86370395D01*
X178462744Y-85307651D01*
X178348882Y-85027910D01*
X178033704Y-84872039D01*
X177694174Y-84780651D01*
X177343339Y-84757259D01*
X176994681Y-84802760D01*
X176661600Y-84915406D01*
X176451118Y-85027910D01*
X176337256Y-85307651D01*
X165860000Y-85307651D01*
X165860000Y-82587322D01*
X165863676Y-82549999D01*
X165860000Y-82512676D01*
X165860000Y-82512667D01*
X165849003Y-82401014D01*
X165805546Y-82257753D01*
X165734974Y-82125724D01*
X165721811Y-82109685D01*
X165663799Y-82038996D01*
X165663795Y-82038992D01*
X165640001Y-82009999D01*
X165611008Y-81986205D01*
X163123804Y-79499003D01*
X163100001Y-79469999D01*
X162984276Y-79375026D01*
X162852247Y-79304454D01*
X162708986Y-79260997D01*
X162597333Y-79250000D01*
X162597322Y-79250000D01*
X162560000Y-79246324D01*
X162522678Y-79250000D01*
X151464802Y-79250000D01*
X151032714Y-78817912D01*
X151058325Y-78756081D01*
X151125000Y-78420883D01*
X151125000Y-78079117D01*
X170515000Y-78079117D01*
X170515000Y-78420883D01*
X170581675Y-78756081D01*
X170712463Y-79071831D01*
X170902337Y-79355998D01*
X171144002Y-79597663D01*
X171428169Y-79787537D01*
X171743919Y-79918325D01*
X172079117Y-79985000D01*
X172420883Y-79985000D01*
X172756081Y-79918325D01*
X173071831Y-79787537D01*
X173355998Y-79597663D01*
X173597663Y-79355998D01*
X173787537Y-79071831D01*
X173918325Y-78756081D01*
X173985000Y-78420883D01*
X173985000Y-78079117D01*
X173918325Y-77743919D01*
X173787537Y-77428169D01*
X173597663Y-77144002D01*
X173355998Y-76902337D01*
X173071831Y-76712463D01*
X172756081Y-76581675D01*
X172420883Y-76515000D01*
X172079117Y-76515000D01*
X171743919Y-76581675D01*
X171428169Y-76712463D01*
X171144002Y-76902337D01*
X170902337Y-77144002D01*
X170712463Y-77428169D01*
X170581675Y-77743919D01*
X170515000Y-78079117D01*
X151125000Y-78079117D01*
X151058325Y-77743919D01*
X150927537Y-77428169D01*
X150737663Y-77144002D01*
X150495998Y-76902337D01*
X150211831Y-76712463D01*
X149896081Y-76581675D01*
X149560883Y-76515000D01*
X149219117Y-76515000D01*
X148883919Y-76581675D01*
X148568169Y-76712463D01*
X148284002Y-76902337D01*
X148042337Y-77144002D01*
X147852463Y-77428169D01*
X147721675Y-77743919D01*
X147655000Y-78079117D01*
X146127000Y-78079117D01*
X146127000Y-73160000D01*
X178217721Y-73160000D01*
X178606775Y-73198147D01*
G36*
X155978320Y-118154727D02*
G01*
X156135363Y-118389759D01*
X156335241Y-118589637D01*
X156570273Y-118746680D01*
X156580865Y-118751067D01*
X156394869Y-118862615D01*
X156186481Y-119051586D01*
X156018963Y-119277580D01*
X155898754Y-119531913D01*
X155858096Y-119665961D01*
X155980085Y-119888000D01*
X157123000Y-119888000D01*
X157123000Y-119868000D01*
X157377000Y-119868000D01*
X157377000Y-119888000D01*
X158519915Y-119888000D01*
X158641904Y-119665961D01*
X158601246Y-119531913D01*
X158481037Y-119277580D01*
X158313519Y-119051586D01*
X158105131Y-118862615D01*
X157919135Y-118751067D01*
X157929727Y-118746680D01*
X158075708Y-118649139D01*
X158990000Y-119563432D01*
X158990000Y-122898593D01*
X158929727Y-122858320D01*
X158668574Y-122750147D01*
X158391335Y-122695000D01*
X158108665Y-122695000D01*
X157831426Y-122750147D01*
X157570273Y-122858320D01*
X157335241Y-123015363D01*
X157135363Y-123215241D01*
X156978320Y-123450273D01*
X156870147Y-123711426D01*
X156815000Y-123988665D01*
X156815000Y-124271335D01*
X156870147Y-124548574D01*
X156978320Y-124809727D01*
X157135363Y-125044759D01*
X157335241Y-125244637D01*
X157570273Y-125401680D01*
X157831426Y-125509853D01*
X158108665Y-125565000D01*
X158391335Y-125565000D01*
X158668574Y-125509853D01*
X158929727Y-125401680D01*
X158990001Y-125361407D01*
X158990001Y-129435198D01*
X158935199Y-129490000D01*
X156787322Y-129490000D01*
X156749999Y-129486324D01*
X156712676Y-129490000D01*
X156712667Y-129490000D01*
X156601014Y-129500997D01*
X156457753Y-129544454D01*
X156325724Y-129615026D01*
X156209999Y-129709999D01*
X156186201Y-129738998D01*
X155573887Y-130351312D01*
X155391335Y-130315000D01*
X155108665Y-130315000D01*
X154831426Y-130370147D01*
X154570273Y-130478320D01*
X154335241Y-130635363D01*
X154135363Y-130835241D01*
X153978320Y-131070273D01*
X153870147Y-131331426D01*
X153815000Y-131608665D01*
X153815000Y-131891335D01*
X153870147Y-132168574D01*
X153978320Y-132429727D01*
X154135363Y-132664759D01*
X154335241Y-132864637D01*
X154570273Y-133021680D01*
X154831426Y-133129853D01*
X155108665Y-133185000D01*
X155391335Y-133185000D01*
X155668574Y-133129853D01*
X155929727Y-133021680D01*
X156164759Y-132864637D01*
X156364637Y-132664759D01*
X156521680Y-132429727D01*
X156629853Y-132168574D01*
X156685000Y-131891335D01*
X156685000Y-131608665D01*
X156648688Y-131426113D01*
X156959788Y-131115014D01*
X156870147Y-131331426D01*
X156815000Y-131608665D01*
X156815000Y-131891335D01*
X156870147Y-132168574D01*
X156978320Y-132429727D01*
X157135363Y-132664759D01*
X157335241Y-132864637D01*
X157490000Y-132968044D01*
X157490000Y-133462677D01*
X157487309Y-133490000D01*
X153064801Y-133490000D01*
X153010000Y-133435199D01*
X153010000Y-132968043D01*
X153164759Y-132864637D01*
X153364637Y-132664759D01*
X153521680Y-132429727D01*
X153629853Y-132168574D01*
X153685000Y-131891335D01*
X153685000Y-131608665D01*
X153629853Y-131331426D01*
X153521680Y-131070273D01*
X153364637Y-130835241D01*
X153164759Y-130635363D01*
X152929727Y-130478320D01*
X152668574Y-130370147D01*
X152391335Y-130315000D01*
X152108665Y-130315000D01*
X151831426Y-130370147D01*
X151570273Y-130478320D01*
X151335241Y-130635363D01*
X151135363Y-130835241D01*
X150978320Y-131070273D01*
X150870147Y-131331426D01*
X150815000Y-131608665D01*
X150815000Y-131891335D01*
X150870147Y-132168574D01*
X150978320Y-132429727D01*
X151135363Y-132664759D01*
X151335241Y-132864637D01*
X151490000Y-132968044D01*
X151490000Y-133712677D01*
X151486324Y-133750000D01*
X151490000Y-133787322D01*
X151490000Y-133787332D01*
X151500997Y-133898985D01*
X151539469Y-134025812D01*
X151544454Y-134042246D01*
X151615026Y-134174276D01*
X151630162Y-134192719D01*
X151709999Y-134290001D01*
X151739003Y-134313804D01*
X152186196Y-134760997D01*
X152209999Y-134790001D01*
X152270923Y-134840000D01*
X147253889Y-134840000D01*
X147301185Y-134801185D01*
X147380537Y-134704494D01*
X147439502Y-134594180D01*
X147475812Y-134474482D01*
X147488072Y-134350000D01*
X147488072Y-132150000D01*
X147475812Y-132025518D01*
X147439502Y-131905820D01*
X147380537Y-131795506D01*
X147301185Y-131698815D01*
X147204494Y-131619463D01*
X147184293Y-131608665D01*
X147815000Y-131608665D01*
X147815000Y-131891335D01*
X147870147Y-132168574D01*
X147978320Y-132429727D01*
X148135363Y-132664759D01*
X148335241Y-132864637D01*
X148570273Y-133021680D01*
X148831426Y-133129853D01*
X149108665Y-133185000D01*
X149391335Y-133185000D01*
X149668574Y-133129853D01*
X149929727Y-133021680D01*
X150164759Y-132864637D01*
X150364637Y-132664759D01*
X150521680Y-132429727D01*
X150629853Y-132168574D01*
X150685000Y-131891335D01*
X150685000Y-131608665D01*
X150629853Y-131331426D01*
X150521680Y-131070273D01*
X150364637Y-130835241D01*
X150164759Y-130635363D01*
X149929727Y-130478320D01*
X149668574Y-130370147D01*
X149391335Y-130315000D01*
X149108665Y-130315000D01*
X148831426Y-130370147D01*
X148570273Y-130478320D01*
X148335241Y-130635363D01*
X148135363Y-130835241D01*
X147978320Y-131070273D01*
X147870147Y-131331426D01*
X147815000Y-131608665D01*
X147184293Y-131608665D01*
X147094180Y-131560498D01*
X146974482Y-131524188D01*
X146850000Y-131511928D01*
X144650000Y-131511928D01*
X144525518Y-131524188D01*
X144510000Y-131528895D01*
X144510000Y-128398061D01*
X145215000Y-128398061D01*
X145215000Y-128601939D01*
X145254774Y-128801898D01*
X145332795Y-128990256D01*
X145446063Y-129159774D01*
X145590226Y-129303937D01*
X145759744Y-129417205D01*
X145948102Y-129495226D01*
X146148061Y-129535000D01*
X146351939Y-129535000D01*
X146551898Y-129495226D01*
X146740256Y-129417205D01*
X146909774Y-129303937D01*
X146953711Y-129260000D01*
X148796289Y-129260000D01*
X148840226Y-129303937D01*
X149009744Y-129417205D01*
X149198102Y-129495226D01*
X149398061Y-129535000D01*
X149601939Y-129535000D01*
X149801898Y-129495226D01*
X149990256Y-129417205D01*
X150159774Y-129303937D01*
X150303937Y-129159774D01*
X150417205Y-128990256D01*
X150495226Y-128801898D01*
X150535000Y-128601939D01*
X150535000Y-128398061D01*
X150495226Y-128198102D01*
X150417205Y-128009744D01*
X150303937Y-127840226D01*
X150159774Y-127696063D01*
X149990256Y-127582795D01*
X149801898Y-127504774D01*
X149601939Y-127465000D01*
X149398061Y-127465000D01*
X149198102Y-127504774D01*
X149009744Y-127582795D01*
X148840226Y-127696063D01*
X148796289Y-127740000D01*
X146953711Y-127740000D01*
X146909774Y-127696063D01*
X146740256Y-127582795D01*
X146551898Y-127504774D01*
X146351939Y-127465000D01*
X146148061Y-127465000D01*
X145948102Y-127504774D01*
X145759744Y-127582795D01*
X145590226Y-127696063D01*
X145446063Y-127840226D01*
X145332795Y-128009744D01*
X145254774Y-128198102D01*
X145215000Y-128398061D01*
X144510000Y-128398061D01*
X144510000Y-124303661D01*
X144644002Y-124437663D01*
X144928169Y-124627537D01*
X145243919Y-124758325D01*
X145579117Y-124825000D01*
X145920883Y-124825000D01*
X146256081Y-124758325D01*
X146571831Y-124627537D01*
X146855998Y-124437663D01*
X147097663Y-124195998D01*
X147236198Y-123988665D01*
X147815000Y-123988665D01*
X147815000Y-124271335D01*
X147870147Y-124548574D01*
X147978320Y-124809727D01*
X148135363Y-125044759D01*
X148335241Y-125244637D01*
X148570273Y-125401680D01*
X148831426Y-125509853D01*
X149108665Y-125565000D01*
X149391335Y-125565000D01*
X149668574Y-125509853D01*
X149929727Y-125401680D01*
X150164759Y-125244637D01*
X150364637Y-125044759D01*
X150521680Y-124809727D01*
X150629853Y-124548574D01*
X150685000Y-124271335D01*
X150685000Y-123988665D01*
X150815000Y-123988665D01*
X150815000Y-124271335D01*
X150870147Y-124548574D01*
X150978320Y-124809727D01*
X151135363Y-125044759D01*
X151335241Y-125244637D01*
X151570273Y-125401680D01*
X151831426Y-125509853D01*
X152108665Y-125565000D01*
X152391335Y-125565000D01*
X152668574Y-125509853D01*
X152929727Y-125401680D01*
X153164759Y-125244637D01*
X153364637Y-125044759D01*
X153521680Y-124809727D01*
X153629853Y-124548574D01*
X153685000Y-124271335D01*
X153685000Y-123988665D01*
X153815000Y-123988665D01*
X153815000Y-124271335D01*
X153870147Y-124548574D01*
X153978320Y-124809727D01*
X154135363Y-125044759D01*
X154335241Y-125244637D01*
X154570273Y-125401680D01*
X154831426Y-125509853D01*
X155108665Y-125565000D01*
X155391335Y-125565000D01*
X155668574Y-125509853D01*
X155929727Y-125401680D01*
X156164759Y-125244637D01*
X156364637Y-125044759D01*
X156521680Y-124809727D01*
X156629853Y-124548574D01*
X156685000Y-124271335D01*
X156685000Y-123988665D01*
X156629853Y-123711426D01*
X156521680Y-123450273D01*
X156364637Y-123215241D01*
X156164759Y-123015363D01*
X155929727Y-122858320D01*
X155668574Y-122750147D01*
X155391335Y-122695000D01*
X155108665Y-122695000D01*
X154831426Y-122750147D01*
X154570273Y-122858320D01*
X154335241Y-123015363D01*
X154135363Y-123215241D01*
X153978320Y-123450273D01*
X153870147Y-123711426D01*
X153815000Y-123988665D01*
X153685000Y-123988665D01*
X153629853Y-123711426D01*
X153521680Y-123450273D01*
X153364637Y-123215241D01*
X153164759Y-123015363D01*
X152929727Y-122858320D01*
X152668574Y-122750147D01*
X152391335Y-122695000D01*
X152108665Y-122695000D01*
X151831426Y-122750147D01*
X151570273Y-122858320D01*
X151335241Y-123015363D01*
X151135363Y-123215241D01*
X150978320Y-123450273D01*
X150870147Y-123711426D01*
X150815000Y-123988665D01*
X150685000Y-123988665D01*
X150629853Y-123711426D01*
X150521680Y-123450273D01*
X150364637Y-123215241D01*
X150164759Y-123015363D01*
X149929727Y-122858320D01*
X149668574Y-122750147D01*
X149391335Y-122695000D01*
X149108665Y-122695000D01*
X148831426Y-122750147D01*
X148570273Y-122858320D01*
X148335241Y-123015363D01*
X148135363Y-123215241D01*
X147978320Y-123450273D01*
X147870147Y-123711426D01*
X147815000Y-123988665D01*
X147236198Y-123988665D01*
X147287537Y-123911831D01*
X147418325Y-123596081D01*
X147485000Y-123260883D01*
X147485000Y-122919117D01*
X147418325Y-122583919D01*
X147287537Y-122268169D01*
X147097663Y-121984002D01*
X146873661Y-121760000D01*
X147694912Y-121760000D01*
X147732234Y-121763676D01*
X147769556Y-121760000D01*
X147769567Y-121760000D01*
X147881220Y-121749003D01*
X148024481Y-121705546D01*
X148156510Y-121634974D01*
X148166226Y-121627000D01*
X152750000Y-121627000D01*
X152774776Y-121624560D01*
X152798601Y-121617333D01*
X152820557Y-121605597D01*
X152839803Y-121589803D01*
X154065567Y-120364039D01*
X155858096Y-120364039D01*
X155898754Y-120498087D01*
X156018963Y-120752420D01*
X156186481Y-120978414D01*
X156394869Y-121167385D01*
X156636119Y-121312070D01*
X156900960Y-121406909D01*
X157123000Y-121285624D01*
X157123000Y-120142000D01*
X157377000Y-120142000D01*
X157377000Y-121285624D01*
X157599040Y-121406909D01*
X157863881Y-121312070D01*
X158105131Y-121167385D01*
X158313519Y-120978414D01*
X158481037Y-120752420D01*
X158601246Y-120498087D01*
X158641904Y-120364039D01*
X158519915Y-120142000D01*
X157377000Y-120142000D01*
X157123000Y-120142000D01*
X155980085Y-120142000D01*
X155858096Y-120364039D01*
X154065567Y-120364039D01*
X155839803Y-118589803D01*
X155855597Y-118570557D01*
X155867333Y-118548601D01*
X155874560Y-118524776D01*
X155877000Y-118500000D01*
X155877000Y-117910119D01*
X155978320Y-118154727D01*
G37*
X155978320Y-118154727D02*
X156135363Y-118389759D01*
X156335241Y-118589637D01*
X156570273Y-118746680D01*
X156580865Y-118751067D01*
X156394869Y-118862615D01*
X156186481Y-119051586D01*
X156018963Y-119277580D01*
X155898754Y-119531913D01*
X155858096Y-119665961D01*
X155980085Y-119888000D01*
X157123000Y-119888000D01*
X157123000Y-119868000D01*
X157377000Y-119868000D01*
X157377000Y-119888000D01*
X158519915Y-119888000D01*
X158641904Y-119665961D01*
X158601246Y-119531913D01*
X158481037Y-119277580D01*
X158313519Y-119051586D01*
X158105131Y-118862615D01*
X157919135Y-118751067D01*
X157929727Y-118746680D01*
X158075708Y-118649139D01*
X158990000Y-119563432D01*
X158990000Y-122898593D01*
X158929727Y-122858320D01*
X158668574Y-122750147D01*
X158391335Y-122695000D01*
X158108665Y-122695000D01*
X157831426Y-122750147D01*
X157570273Y-122858320D01*
X157335241Y-123015363D01*
X157135363Y-123215241D01*
X156978320Y-123450273D01*
X156870147Y-123711426D01*
X156815000Y-123988665D01*
X156815000Y-124271335D01*
X156870147Y-124548574D01*
X156978320Y-124809727D01*
X157135363Y-125044759D01*
X157335241Y-125244637D01*
X157570273Y-125401680D01*
X157831426Y-125509853D01*
X158108665Y-125565000D01*
X158391335Y-125565000D01*
X158668574Y-125509853D01*
X158929727Y-125401680D01*
X158990001Y-125361407D01*
X158990001Y-129435198D01*
X158935199Y-129490000D01*
X156787322Y-129490000D01*
X156749999Y-129486324D01*
X156712676Y-129490000D01*
X156712667Y-129490000D01*
X156601014Y-129500997D01*
X156457753Y-129544454D01*
X156325724Y-129615026D01*
X156209999Y-129709999D01*
X156186201Y-129738998D01*
X155573887Y-130351312D01*
X155391335Y-130315000D01*
X155108665Y-130315000D01*
X154831426Y-130370147D01*
X154570273Y-130478320D01*
X154335241Y-130635363D01*
X154135363Y-130835241D01*
X153978320Y-131070273D01*
X153870147Y-131331426D01*
X153815000Y-131608665D01*
X153815000Y-131891335D01*
X153870147Y-132168574D01*
X153978320Y-132429727D01*
X154135363Y-132664759D01*
X154335241Y-132864637D01*
X154570273Y-133021680D01*
X154831426Y-133129853D01*
X155108665Y-133185000D01*
X155391335Y-133185000D01*
X155668574Y-133129853D01*
X155929727Y-133021680D01*
X156164759Y-132864637D01*
X156364637Y-132664759D01*
X156521680Y-132429727D01*
X156629853Y-132168574D01*
X156685000Y-131891335D01*
X156685000Y-131608665D01*
X156648688Y-131426113D01*
X156959788Y-131115014D01*
X156870147Y-131331426D01*
X156815000Y-131608665D01*
X156815000Y-131891335D01*
X156870147Y-132168574D01*
X156978320Y-132429727D01*
X157135363Y-132664759D01*
X157335241Y-132864637D01*
X157490000Y-132968044D01*
X157490000Y-133462677D01*
X157487309Y-133490000D01*
X153064801Y-133490000D01*
X153010000Y-133435199D01*
X153010000Y-132968043D01*
X153164759Y-132864637D01*
X153364637Y-132664759D01*
X153521680Y-132429727D01*
X153629853Y-132168574D01*
X153685000Y-131891335D01*
X153685000Y-131608665D01*
X153629853Y-131331426D01*
X153521680Y-131070273D01*
X153364637Y-130835241D01*
X153164759Y-130635363D01*
X152929727Y-130478320D01*
X152668574Y-130370147D01*
X152391335Y-130315000D01*
X152108665Y-130315000D01*
X151831426Y-130370147D01*
X151570273Y-130478320D01*
X151335241Y-130635363D01*
X151135363Y-130835241D01*
X150978320Y-131070273D01*
X150870147Y-131331426D01*
X150815000Y-131608665D01*
X150815000Y-131891335D01*
X150870147Y-132168574D01*
X150978320Y-132429727D01*
X151135363Y-132664759D01*
X151335241Y-132864637D01*
X151490000Y-132968044D01*
X151490000Y-133712677D01*
X151486324Y-133750000D01*
X151490000Y-133787322D01*
X151490000Y-133787332D01*
X151500997Y-133898985D01*
X151539469Y-134025812D01*
X151544454Y-134042246D01*
X151615026Y-134174276D01*
X151630162Y-134192719D01*
X151709999Y-134290001D01*
X151739003Y-134313804D01*
X152186196Y-134760997D01*
X152209999Y-134790001D01*
X152270923Y-134840000D01*
X147253889Y-134840000D01*
X147301185Y-134801185D01*
X147380537Y-134704494D01*
X147439502Y-134594180D01*
X147475812Y-134474482D01*
X147488072Y-134350000D01*
X147488072Y-132150000D01*
X147475812Y-132025518D01*
X147439502Y-131905820D01*
X147380537Y-131795506D01*
X147301185Y-131698815D01*
X147204494Y-131619463D01*
X147184293Y-131608665D01*
X147815000Y-131608665D01*
X147815000Y-131891335D01*
X147870147Y-132168574D01*
X147978320Y-132429727D01*
X148135363Y-132664759D01*
X148335241Y-132864637D01*
X148570273Y-133021680D01*
X148831426Y-133129853D01*
X149108665Y-133185000D01*
X149391335Y-133185000D01*
X149668574Y-133129853D01*
X149929727Y-133021680D01*
X150164759Y-132864637D01*
X150364637Y-132664759D01*
X150521680Y-132429727D01*
X150629853Y-132168574D01*
X150685000Y-131891335D01*
X150685000Y-131608665D01*
X150629853Y-131331426D01*
X150521680Y-131070273D01*
X150364637Y-130835241D01*
X150164759Y-130635363D01*
X149929727Y-130478320D01*
X149668574Y-130370147D01*
X149391335Y-130315000D01*
X149108665Y-130315000D01*
X148831426Y-130370147D01*
X148570273Y-130478320D01*
X148335241Y-130635363D01*
X148135363Y-130835241D01*
X147978320Y-131070273D01*
X147870147Y-131331426D01*
X147815000Y-131608665D01*
X147184293Y-131608665D01*
X147094180Y-131560498D01*
X146974482Y-131524188D01*
X146850000Y-131511928D01*
X144650000Y-131511928D01*
X144525518Y-131524188D01*
X144510000Y-131528895D01*
X144510000Y-128398061D01*
X145215000Y-128398061D01*
X145215000Y-128601939D01*
X145254774Y-128801898D01*
X145332795Y-128990256D01*
X145446063Y-129159774D01*
X145590226Y-129303937D01*
X145759744Y-129417205D01*
X145948102Y-129495226D01*
X146148061Y-129535000D01*
X146351939Y-129535000D01*
X146551898Y-129495226D01*
X146740256Y-129417205D01*
X146909774Y-129303937D01*
X146953711Y-129260000D01*
X148796289Y-129260000D01*
X148840226Y-129303937D01*
X149009744Y-129417205D01*
X149198102Y-129495226D01*
X149398061Y-129535000D01*
X149601939Y-129535000D01*
X149801898Y-129495226D01*
X149990256Y-129417205D01*
X150159774Y-129303937D01*
X150303937Y-129159774D01*
X150417205Y-128990256D01*
X150495226Y-128801898D01*
X150535000Y-128601939D01*
X150535000Y-128398061D01*
X150495226Y-128198102D01*
X150417205Y-128009744D01*
X150303937Y-127840226D01*
X150159774Y-127696063D01*
X149990256Y-127582795D01*
X149801898Y-127504774D01*
X149601939Y-127465000D01*
X149398061Y-127465000D01*
X149198102Y-127504774D01*
X149009744Y-127582795D01*
X148840226Y-127696063D01*
X148796289Y-127740000D01*
X146953711Y-127740000D01*
X146909774Y-127696063D01*
X146740256Y-127582795D01*
X146551898Y-127504774D01*
X146351939Y-127465000D01*
X146148061Y-127465000D01*
X145948102Y-127504774D01*
X145759744Y-127582795D01*
X145590226Y-127696063D01*
X145446063Y-127840226D01*
X145332795Y-128009744D01*
X145254774Y-128198102D01*
X145215000Y-128398061D01*
X144510000Y-128398061D01*
X144510000Y-124303661D01*
X144644002Y-124437663D01*
X144928169Y-124627537D01*
X145243919Y-124758325D01*
X145579117Y-124825000D01*
X145920883Y-124825000D01*
X146256081Y-124758325D01*
X146571831Y-124627537D01*
X146855998Y-124437663D01*
X147097663Y-124195998D01*
X147236198Y-123988665D01*
X147815000Y-123988665D01*
X147815000Y-124271335D01*
X147870147Y-124548574D01*
X147978320Y-124809727D01*
X148135363Y-125044759D01*
X148335241Y-125244637D01*
X148570273Y-125401680D01*
X148831426Y-125509853D01*
X149108665Y-125565000D01*
X149391335Y-125565000D01*
X149668574Y-125509853D01*
X149929727Y-125401680D01*
X150164759Y-125244637D01*
X150364637Y-125044759D01*
X150521680Y-124809727D01*
X150629853Y-124548574D01*
X150685000Y-124271335D01*
X150685000Y-123988665D01*
X150815000Y-123988665D01*
X150815000Y-124271335D01*
X150870147Y-124548574D01*
X150978320Y-124809727D01*
X151135363Y-125044759D01*
X151335241Y-125244637D01*
X151570273Y-125401680D01*
X151831426Y-125509853D01*
X152108665Y-125565000D01*
X152391335Y-125565000D01*
X152668574Y-125509853D01*
X152929727Y-125401680D01*
X153164759Y-125244637D01*
X153364637Y-125044759D01*
X153521680Y-124809727D01*
X153629853Y-124548574D01*
X153685000Y-124271335D01*
X153685000Y-123988665D01*
X153815000Y-123988665D01*
X153815000Y-124271335D01*
X153870147Y-124548574D01*
X153978320Y-124809727D01*
X154135363Y-125044759D01*
X154335241Y-125244637D01*
X154570273Y-125401680D01*
X154831426Y-125509853D01*
X155108665Y-125565000D01*
X155391335Y-125565000D01*
X155668574Y-125509853D01*
X155929727Y-125401680D01*
X156164759Y-125244637D01*
X156364637Y-125044759D01*
X156521680Y-124809727D01*
X156629853Y-124548574D01*
X156685000Y-124271335D01*
X156685000Y-123988665D01*
X156629853Y-123711426D01*
X156521680Y-123450273D01*
X156364637Y-123215241D01*
X156164759Y-123015363D01*
X155929727Y-122858320D01*
X155668574Y-122750147D01*
X155391335Y-122695000D01*
X155108665Y-122695000D01*
X154831426Y-122750147D01*
X154570273Y-122858320D01*
X154335241Y-123015363D01*
X154135363Y-123215241D01*
X153978320Y-123450273D01*
X153870147Y-123711426D01*
X153815000Y-123988665D01*
X153685000Y-123988665D01*
X153629853Y-123711426D01*
X153521680Y-123450273D01*
X153364637Y-123215241D01*
X153164759Y-123015363D01*
X152929727Y-122858320D01*
X152668574Y-122750147D01*
X152391335Y-122695000D01*
X152108665Y-122695000D01*
X151831426Y-122750147D01*
X151570273Y-122858320D01*
X151335241Y-123015363D01*
X151135363Y-123215241D01*
X150978320Y-123450273D01*
X150870147Y-123711426D01*
X150815000Y-123988665D01*
X150685000Y-123988665D01*
X150629853Y-123711426D01*
X150521680Y-123450273D01*
X150364637Y-123215241D01*
X150164759Y-123015363D01*
X149929727Y-122858320D01*
X149668574Y-122750147D01*
X149391335Y-122695000D01*
X149108665Y-122695000D01*
X148831426Y-122750147D01*
X148570273Y-122858320D01*
X148335241Y-123015363D01*
X148135363Y-123215241D01*
X147978320Y-123450273D01*
X147870147Y-123711426D01*
X147815000Y-123988665D01*
X147236198Y-123988665D01*
X147287537Y-123911831D01*
X147418325Y-123596081D01*
X147485000Y-123260883D01*
X147485000Y-122919117D01*
X147418325Y-122583919D01*
X147287537Y-122268169D01*
X147097663Y-121984002D01*
X146873661Y-121760000D01*
X147694912Y-121760000D01*
X147732234Y-121763676D01*
X147769556Y-121760000D01*
X147769567Y-121760000D01*
X147881220Y-121749003D01*
X148024481Y-121705546D01*
X148156510Y-121634974D01*
X148166226Y-121627000D01*
X152750000Y-121627000D01*
X152774776Y-121624560D01*
X152798601Y-121617333D01*
X152820557Y-121605597D01*
X152839803Y-121589803D01*
X154065567Y-120364039D01*
X155858096Y-120364039D01*
X155898754Y-120498087D01*
X156018963Y-120752420D01*
X156186481Y-120978414D01*
X156394869Y-121167385D01*
X156636119Y-121312070D01*
X156900960Y-121406909D01*
X157123000Y-121285624D01*
X157123000Y-120142000D01*
X157377000Y-120142000D01*
X157377000Y-121285624D01*
X157599040Y-121406909D01*
X157863881Y-121312070D01*
X158105131Y-121167385D01*
X158313519Y-120978414D01*
X158481037Y-120752420D01*
X158601246Y-120498087D01*
X158641904Y-120364039D01*
X158519915Y-120142000D01*
X157377000Y-120142000D01*
X157123000Y-120142000D01*
X155980085Y-120142000D01*
X155858096Y-120364039D01*
X154065567Y-120364039D01*
X155839803Y-118589803D01*
X155855597Y-118570557D01*
X155867333Y-118548601D01*
X155874560Y-118524776D01*
X155877000Y-118500000D01*
X155877000Y-117910119D01*
X155978320Y-118154727D01*
M02*
