G04 #@! TF.GenerationSoftware,KiCad,Pcbnew,(5.1.5)-3*
G04 #@! TF.CreationDate,2020-11-02T17:07:13+01:00*
G04 #@! TF.ProjectId,Heat Controller,48656174-2043-46f6-9e74-726f6c6c6572,rev?*
G04 #@! TF.SameCoordinates,Original*
G04 #@! TF.FileFunction,Legend,Top*
G04 #@! TF.FilePolarity,Positive*
%FSLAX46Y46*%
G04 Gerber Fmt 4.6, Leading zero omitted, Abs format (unit mm)*
G04 Created by KiCad (PCBNEW (5.1.5)-3) date 2020-11-02 17:07:13*
%MOMM*%
%LPD*%
G04 APERTURE LIST*
%ADD10C,0.125000*%
%ADD11C,0.150000*%
%ADD12C,0.300000*%
%ADD13C,0.120000*%
G04 APERTURE END LIST*
D10*
X177083333Y-105726190D02*
X176845238Y-105726190D01*
X176821428Y-105964285D01*
X176845238Y-105940476D01*
X176892857Y-105916666D01*
X177011904Y-105916666D01*
X177059523Y-105940476D01*
X177083333Y-105964285D01*
X177107142Y-106011904D01*
X177107142Y-106130952D01*
X177083333Y-106178571D01*
X177059523Y-106202380D01*
X177011904Y-106226190D01*
X176892857Y-106226190D01*
X176845238Y-106202380D01*
X176821428Y-106178571D01*
X177250000Y-105726190D02*
X177416666Y-106226190D01*
X177583333Y-105726190D01*
X177750000Y-106035714D02*
X178130952Y-106035714D01*
X178630952Y-105750000D02*
X178583333Y-105726190D01*
X178511904Y-105726190D01*
X178440476Y-105750000D01*
X178392857Y-105797619D01*
X178369047Y-105845238D01*
X178345238Y-105940476D01*
X178345238Y-106011904D01*
X178369047Y-106107142D01*
X178392857Y-106154761D01*
X178440476Y-106202380D01*
X178511904Y-106226190D01*
X178559523Y-106226190D01*
X178630952Y-106202380D01*
X178654761Y-106178571D01*
X178654761Y-106011904D01*
X178559523Y-106011904D01*
X178869047Y-106226190D02*
X178869047Y-105726190D01*
X179154761Y-106226190D01*
X179154761Y-105726190D01*
X179392857Y-106226190D02*
X179392857Y-105726190D01*
X179511904Y-105726190D01*
X179583333Y-105750000D01*
X179630952Y-105797619D01*
X179654761Y-105845238D01*
X179678571Y-105940476D01*
X179678571Y-106011904D01*
X179654761Y-106107142D01*
X179630952Y-106154761D01*
X179583333Y-106202380D01*
X179511904Y-106226190D01*
X179392857Y-106226190D01*
D11*
X111372619Y-94923824D02*
X112372619Y-95048824D01*
X111896428Y-94989300D02*
X111896428Y-95560729D01*
X111372619Y-95495252D02*
X112372619Y-95620252D01*
X111420238Y-96358348D02*
X111372619Y-96257157D01*
X111372619Y-96066681D01*
X111420238Y-95977395D01*
X111515476Y-95941681D01*
X111896428Y-95989300D01*
X111991666Y-96048824D01*
X112039285Y-96150014D01*
X112039285Y-96340491D01*
X111991666Y-96429776D01*
X111896428Y-96465491D01*
X111801190Y-96453586D01*
X111705952Y-95965491D01*
X111372619Y-97257157D02*
X111896428Y-97322633D01*
X111991666Y-97286919D01*
X112039285Y-97197633D01*
X112039285Y-97007157D01*
X111991666Y-96905967D01*
X111420238Y-97263110D02*
X111372619Y-97161919D01*
X111372619Y-96923824D01*
X111420238Y-96834538D01*
X111515476Y-96798824D01*
X111610714Y-96810729D01*
X111705952Y-96870252D01*
X111753571Y-96971443D01*
X111753571Y-97209538D01*
X111801190Y-97310729D01*
X112039285Y-97673824D02*
X112039285Y-98054776D01*
X112372619Y-97858348D02*
X111515476Y-97751205D01*
X111420238Y-97786919D01*
X111372619Y-97876205D01*
X111372619Y-97971443D01*
X111420238Y-98739300D02*
X111372619Y-98638110D01*
X111372619Y-98447633D01*
X111420238Y-98358348D01*
X111467857Y-98316681D01*
X111563095Y-98280967D01*
X111848809Y-98316681D01*
X111944047Y-98376205D01*
X111991666Y-98429776D01*
X112039285Y-98530967D01*
X112039285Y-98721443D01*
X111991666Y-98810729D01*
X111372619Y-99304776D02*
X111420238Y-99215491D01*
X111467857Y-99173824D01*
X111563095Y-99138110D01*
X111848809Y-99173824D01*
X111944047Y-99233348D01*
X111991666Y-99286919D01*
X112039285Y-99388110D01*
X112039285Y-99530967D01*
X111991666Y-99620252D01*
X111944047Y-99661919D01*
X111848809Y-99697633D01*
X111563095Y-99661919D01*
X111467857Y-99602395D01*
X111420238Y-99548824D01*
X111372619Y-99447633D01*
X111372619Y-99304776D01*
X112039285Y-100150014D02*
X111372619Y-100066681D01*
X111944047Y-100138110D02*
X111991666Y-100191681D01*
X112039285Y-100292872D01*
X112039285Y-100435729D01*
X111991666Y-100525014D01*
X111896428Y-100560729D01*
X111372619Y-100495252D01*
X112039285Y-100911919D02*
X112039285Y-101292872D01*
X112372619Y-101096443D02*
X111515476Y-100989300D01*
X111420238Y-101025014D01*
X111372619Y-101114300D01*
X111372619Y-101209538D01*
X111372619Y-101542872D02*
X112039285Y-101626205D01*
X111848809Y-101602395D02*
X111944047Y-101661919D01*
X111991666Y-101715491D01*
X112039285Y-101816681D01*
X112039285Y-101911919D01*
X111372619Y-102304776D02*
X111420238Y-102215491D01*
X111467857Y-102173824D01*
X111563095Y-102138110D01*
X111848809Y-102173824D01*
X111944047Y-102233348D01*
X111991666Y-102286919D01*
X112039285Y-102388110D01*
X112039285Y-102530967D01*
X111991666Y-102620252D01*
X111944047Y-102661919D01*
X111848809Y-102697633D01*
X111563095Y-102661919D01*
X111467857Y-102602395D01*
X111420238Y-102548824D01*
X111372619Y-102447633D01*
X111372619Y-102304776D01*
X111372619Y-103209538D02*
X111420238Y-103120252D01*
X111515476Y-103084538D01*
X112372619Y-103191681D01*
X111372619Y-103733348D02*
X111420238Y-103644062D01*
X111515476Y-103608348D01*
X112372619Y-103715491D01*
X111420238Y-104501205D02*
X111372619Y-104400014D01*
X111372619Y-104209538D01*
X111420238Y-104120252D01*
X111515476Y-104084538D01*
X111896428Y-104132157D01*
X111991666Y-104191681D01*
X112039285Y-104292872D01*
X112039285Y-104483348D01*
X111991666Y-104572633D01*
X111896428Y-104608348D01*
X111801190Y-104596443D01*
X111705952Y-104108348D01*
X111372619Y-104971443D02*
X112039285Y-105054776D01*
X111848809Y-105030967D02*
X111944047Y-105090491D01*
X111991666Y-105144062D01*
X112039285Y-105245252D01*
X112039285Y-105340491D01*
X111372619Y-106352395D02*
X112372619Y-106477395D01*
X112372619Y-106858348D01*
X112325000Y-106947633D01*
X112277380Y-106989300D01*
X112182142Y-107025014D01*
X112039285Y-107007157D01*
X111944047Y-106947633D01*
X111896428Y-106894062D01*
X111848809Y-106792872D01*
X111848809Y-106411919D01*
X111467857Y-107935729D02*
X111420238Y-107882157D01*
X111372619Y-107733348D01*
X111372619Y-107638110D01*
X111420238Y-107501205D01*
X111515476Y-107417872D01*
X111610714Y-107382157D01*
X111801190Y-107358348D01*
X111944047Y-107376205D01*
X112134523Y-107447633D01*
X112229761Y-107507157D01*
X112325000Y-107614300D01*
X112372619Y-107763110D01*
X112372619Y-107858348D01*
X112325000Y-107995252D01*
X112277380Y-108036919D01*
X111896428Y-108751205D02*
X111848809Y-108888110D01*
X111801190Y-108929776D01*
X111705952Y-108965491D01*
X111563095Y-108947633D01*
X111467857Y-108888110D01*
X111420238Y-108834538D01*
X111372619Y-108733348D01*
X111372619Y-108352395D01*
X112372619Y-108477395D01*
X112372619Y-108810729D01*
X112325000Y-108900014D01*
X112277380Y-108941681D01*
X112182142Y-108977395D01*
X112086904Y-108965491D01*
X111991666Y-108905967D01*
X111944047Y-108852395D01*
X111896428Y-108751205D01*
X111896428Y-108417872D01*
X112372619Y-110096443D02*
X111372619Y-110304776D01*
X112372619Y-110763110D01*
X111372619Y-111495252D02*
X111372619Y-110923824D01*
X111372619Y-111209538D02*
X112372619Y-111334538D01*
X112229761Y-111221443D01*
X112134523Y-111114300D01*
X112086904Y-111013110D01*
X111467857Y-111935729D02*
X111420238Y-111977395D01*
X111372619Y-111923824D01*
X111420238Y-111882157D01*
X111467857Y-111935729D01*
X111372619Y-111923824D01*
X112372619Y-112715491D02*
X112372619Y-112810729D01*
X112325000Y-112900014D01*
X112277380Y-112941681D01*
X112182142Y-112977395D01*
X111991666Y-113001205D01*
X111753571Y-112971443D01*
X111563095Y-112900014D01*
X111467857Y-112840491D01*
X111420238Y-112786919D01*
X111372619Y-112685729D01*
X111372619Y-112590491D01*
X111420238Y-112501205D01*
X111467857Y-112459538D01*
X111563095Y-112423824D01*
X111753571Y-112400014D01*
X111991666Y-112429776D01*
X112182142Y-112501205D01*
X112277380Y-112560729D01*
X112325000Y-112614300D01*
X112372619Y-112715491D01*
X109722619Y-90019062D02*
X110722619Y-90144062D01*
X110722619Y-90382157D01*
X110675000Y-90519062D01*
X110579761Y-90602395D01*
X110484523Y-90638110D01*
X110294047Y-90661919D01*
X110151190Y-90644062D01*
X109960714Y-90572633D01*
X109865476Y-90513110D01*
X109770238Y-90405967D01*
X109722619Y-90257157D01*
X109722619Y-90019062D01*
X109770238Y-91405967D02*
X109722619Y-91304776D01*
X109722619Y-91114300D01*
X109770238Y-91025014D01*
X109865476Y-90989300D01*
X110246428Y-91036919D01*
X110341666Y-91096443D01*
X110389285Y-91197633D01*
X110389285Y-91388110D01*
X110341666Y-91477395D01*
X110246428Y-91513110D01*
X110151190Y-91501205D01*
X110055952Y-91013110D01*
X109770238Y-91834538D02*
X109722619Y-91923824D01*
X109722619Y-92114300D01*
X109770238Y-92215491D01*
X109865476Y-92275014D01*
X109913095Y-92280967D01*
X110008333Y-92245252D01*
X110055952Y-92155967D01*
X110055952Y-92013110D01*
X110103571Y-91923824D01*
X110198809Y-91888110D01*
X110246428Y-91894062D01*
X110341666Y-91953586D01*
X110389285Y-92054776D01*
X110389285Y-92197633D01*
X110341666Y-92286919D01*
X109722619Y-92685729D02*
X110389285Y-92769062D01*
X110722619Y-92810729D02*
X110675000Y-92757157D01*
X110627380Y-92798824D01*
X110675000Y-92852395D01*
X110722619Y-92810729D01*
X110627380Y-92798824D01*
X110389285Y-93673824D02*
X109579761Y-93572633D01*
X109484523Y-93513110D01*
X109436904Y-93459538D01*
X109389285Y-93358348D01*
X109389285Y-93215491D01*
X109436904Y-93126205D01*
X109770238Y-93596443D02*
X109722619Y-93495252D01*
X109722619Y-93304776D01*
X109770238Y-93215491D01*
X109817857Y-93173824D01*
X109913095Y-93138110D01*
X110198809Y-93173824D01*
X110294047Y-93233348D01*
X110341666Y-93286919D01*
X110389285Y-93388110D01*
X110389285Y-93578586D01*
X110341666Y-93667872D01*
X110389285Y-94150014D02*
X109722619Y-94066681D01*
X110294047Y-94138110D02*
X110341666Y-94191681D01*
X110389285Y-94292872D01*
X110389285Y-94435729D01*
X110341666Y-94525014D01*
X110246428Y-94560729D01*
X109722619Y-94495252D01*
X109770238Y-95358348D02*
X109722619Y-95257157D01*
X109722619Y-95066681D01*
X109770238Y-94977395D01*
X109865476Y-94941681D01*
X110246428Y-94989300D01*
X110341666Y-95048824D01*
X110389285Y-95150014D01*
X110389285Y-95340491D01*
X110341666Y-95429776D01*
X110246428Y-95465491D01*
X110151190Y-95453586D01*
X110055952Y-94965491D01*
X109722619Y-96257157D02*
X110722619Y-96382157D01*
X109770238Y-96263110D02*
X109722619Y-96161919D01*
X109722619Y-95971443D01*
X109770238Y-95882157D01*
X109817857Y-95840491D01*
X109913095Y-95804776D01*
X110198809Y-95840491D01*
X110294047Y-95900014D01*
X110341666Y-95953586D01*
X110389285Y-96054776D01*
X110389285Y-96245252D01*
X110341666Y-96334538D01*
X109722619Y-97495252D02*
X110722619Y-97620252D01*
X110341666Y-97572633D02*
X110389285Y-97673824D01*
X110389285Y-97864300D01*
X110341666Y-97953586D01*
X110294047Y-97995252D01*
X110198809Y-98030967D01*
X109913095Y-97995252D01*
X109817857Y-97935729D01*
X109770238Y-97882157D01*
X109722619Y-97780967D01*
X109722619Y-97590491D01*
X109770238Y-97501205D01*
X110389285Y-98388110D02*
X109722619Y-98542872D01*
X110389285Y-98864300D02*
X109722619Y-98542872D01*
X109484523Y-98417872D01*
X109436904Y-98364300D01*
X109389285Y-98263110D01*
X110008333Y-99911919D02*
X110008333Y-100388110D01*
X109722619Y-99780967D02*
X110722619Y-100239300D01*
X109722619Y-100447633D01*
X109722619Y-100780967D02*
X110389285Y-100864300D01*
X110198809Y-100840491D02*
X110294047Y-100900014D01*
X110341666Y-100953586D01*
X110389285Y-101054776D01*
X110389285Y-101150014D01*
X110389285Y-101483348D02*
X109532142Y-101376205D01*
X109436904Y-101316681D01*
X109389285Y-101215491D01*
X109389285Y-101167872D01*
X110722619Y-101525014D02*
X110675000Y-101471443D01*
X110627380Y-101513110D01*
X110675000Y-101566681D01*
X110722619Y-101525014D01*
X110627380Y-101513110D01*
X109722619Y-102304776D02*
X110246428Y-102370252D01*
X110341666Y-102334538D01*
X110389285Y-102245252D01*
X110389285Y-102054776D01*
X110341666Y-101953586D01*
X109770238Y-102310729D02*
X109722619Y-102209538D01*
X109722619Y-101971443D01*
X109770238Y-101882157D01*
X109865476Y-101846443D01*
X109960714Y-101858348D01*
X110055952Y-101917872D01*
X110103571Y-102019062D01*
X110103571Y-102257157D01*
X110151190Y-102358348D01*
X110389285Y-102864300D02*
X109722619Y-102780967D01*
X110294047Y-102852395D02*
X110341666Y-102905967D01*
X110389285Y-103007157D01*
X110389285Y-103150014D01*
X110341666Y-103239300D01*
X110246428Y-103275014D01*
X109722619Y-103209538D01*
X110246428Y-104846443D02*
X110198809Y-104983348D01*
X110151190Y-105025014D01*
X110055952Y-105060729D01*
X109913095Y-105042872D01*
X109817857Y-104983348D01*
X109770238Y-104929776D01*
X109722619Y-104828586D01*
X109722619Y-104447633D01*
X110722619Y-104572633D01*
X110722619Y-104905967D01*
X110675000Y-104995252D01*
X110627380Y-105036919D01*
X110532142Y-105072633D01*
X110436904Y-105060729D01*
X110341666Y-105001205D01*
X110294047Y-104947633D01*
X110246428Y-104846443D01*
X110246428Y-104513110D01*
X110389285Y-105959538D02*
X109722619Y-105876205D01*
X110389285Y-105530967D02*
X109865476Y-105465491D01*
X109770238Y-105501205D01*
X109722619Y-105590491D01*
X109722619Y-105733348D01*
X109770238Y-105834538D01*
X109817857Y-105888110D01*
X109722619Y-106352395D02*
X110389285Y-106435729D01*
X110722619Y-106477395D02*
X110675000Y-106423824D01*
X110627380Y-106465491D01*
X110675000Y-106519062D01*
X110722619Y-106477395D01*
X110627380Y-106465491D01*
X110389285Y-106911919D02*
X109532142Y-106804776D01*
X109436904Y-106745252D01*
X109389285Y-106644062D01*
X109389285Y-106596443D01*
X110722619Y-106953586D02*
X110675000Y-106900014D01*
X110627380Y-106941681D01*
X110675000Y-106995252D01*
X110722619Y-106953586D01*
X110627380Y-106941681D01*
X109770238Y-107263110D02*
X109722619Y-107352395D01*
X109722619Y-107542872D01*
X109770238Y-107644062D01*
X109865476Y-107703586D01*
X109913095Y-107709538D01*
X110008333Y-107673824D01*
X110055952Y-107584538D01*
X110055952Y-107441681D01*
X110103571Y-107352395D01*
X110198809Y-107316681D01*
X110246428Y-107322633D01*
X110341666Y-107382157D01*
X110389285Y-107483348D01*
X110389285Y-107626205D01*
X110341666Y-107715491D01*
X109770238Y-108501205D02*
X109722619Y-108400014D01*
X109722619Y-108209538D01*
X109770238Y-108120252D01*
X109865476Y-108084538D01*
X110246428Y-108132157D01*
X110341666Y-108191681D01*
X110389285Y-108292872D01*
X110389285Y-108483348D01*
X110341666Y-108572633D01*
X110246428Y-108608348D01*
X110151190Y-108596443D01*
X110055952Y-108108348D01*
X109722619Y-108971443D02*
X110389285Y-109054776D01*
X110198809Y-109030967D02*
X110294047Y-109090491D01*
X110341666Y-109144062D01*
X110389285Y-109245252D01*
X110389285Y-109340491D01*
X109722619Y-110019062D02*
X110722619Y-110144062D01*
X109770238Y-110025014D02*
X109722619Y-109923824D01*
X109722619Y-109733348D01*
X109770238Y-109644062D01*
X109817857Y-109602395D01*
X109913095Y-109566681D01*
X110198809Y-109602395D01*
X110294047Y-109661919D01*
X110341666Y-109715491D01*
X110389285Y-109816681D01*
X110389285Y-110007157D01*
X110341666Y-110096443D01*
X109770238Y-110548824D02*
X109722619Y-110542872D01*
X109627380Y-110483348D01*
X109579761Y-110429776D01*
X110389285Y-111673824D02*
X110389285Y-112054776D01*
X109722619Y-111733348D02*
X110579761Y-111840491D01*
X110675000Y-111900014D01*
X110722619Y-112001205D01*
X110722619Y-112096443D01*
X109722619Y-112447633D02*
X109770238Y-112358348D01*
X109817857Y-112316681D01*
X109913095Y-112280967D01*
X110198809Y-112316681D01*
X110294047Y-112376205D01*
X110341666Y-112429776D01*
X110389285Y-112530967D01*
X110389285Y-112673824D01*
X110341666Y-112763110D01*
X110294047Y-112804776D01*
X110198809Y-112840491D01*
X109913095Y-112804776D01*
X109817857Y-112745252D01*
X109770238Y-112691681D01*
X109722619Y-112590491D01*
X109722619Y-112447633D01*
X109722619Y-113209538D02*
X110389285Y-113292872D01*
X110198809Y-113269062D02*
X110294047Y-113328586D01*
X110341666Y-113382157D01*
X110389285Y-113483348D01*
X110389285Y-113578586D01*
X109817857Y-115173824D02*
X109770238Y-115120252D01*
X109722619Y-114971443D01*
X109722619Y-114876205D01*
X109770238Y-114739300D01*
X109865476Y-114655967D01*
X109960714Y-114620252D01*
X110151190Y-114596443D01*
X110294047Y-114614300D01*
X110484523Y-114685729D01*
X110579761Y-114745252D01*
X110675000Y-114852395D01*
X110722619Y-115001205D01*
X110722619Y-115096443D01*
X110675000Y-115233348D01*
X110627380Y-115275014D01*
X109722619Y-115733348D02*
X109770238Y-115644062D01*
X109817857Y-115602395D01*
X109913095Y-115566681D01*
X110198809Y-115602395D01*
X110294047Y-115661919D01*
X110341666Y-115715491D01*
X110389285Y-115816681D01*
X110389285Y-115959538D01*
X110341666Y-116048824D01*
X110294047Y-116090491D01*
X110198809Y-116126205D01*
X109913095Y-116090491D01*
X109817857Y-116030967D01*
X109770238Y-115977395D01*
X109722619Y-115876205D01*
X109722619Y-115733348D01*
X109770238Y-116929776D02*
X109722619Y-116828586D01*
X109722619Y-116638110D01*
X109770238Y-116548824D01*
X109817857Y-116507157D01*
X109913095Y-116471443D01*
X110198809Y-116507157D01*
X110294047Y-116566681D01*
X110341666Y-116620252D01*
X110389285Y-116721443D01*
X110389285Y-116911919D01*
X110341666Y-117001205D01*
X109722619Y-117495252D02*
X109770238Y-117405967D01*
X109817857Y-117364300D01*
X109913095Y-117328586D01*
X110198809Y-117364300D01*
X110294047Y-117423824D01*
X110341666Y-117477395D01*
X110389285Y-117578586D01*
X110389285Y-117721443D01*
X110341666Y-117810729D01*
X110294047Y-117852395D01*
X110198809Y-117888110D01*
X109913095Y-117852395D01*
X109817857Y-117792872D01*
X109770238Y-117739300D01*
X109722619Y-117638110D01*
X109722619Y-117495252D01*
D12*
X113911904Y-84345238D02*
X115211904Y-84345238D01*
X113911904Y-84964285D02*
X115211904Y-84964285D01*
X113911904Y-85707142D01*
X115211904Y-85707142D01*
X113911904Y-86326190D02*
X115211904Y-86326190D01*
X115211904Y-86821428D01*
X115150000Y-86945238D01*
X115088095Y-87007142D01*
X114964285Y-87069047D01*
X114778571Y-87069047D01*
X114654761Y-87007142D01*
X114592857Y-86945238D01*
X114530952Y-86821428D01*
X114530952Y-86326190D01*
X115211904Y-87626190D02*
X114159523Y-87626190D01*
X114035714Y-87688095D01*
X113973809Y-87750000D01*
X113911904Y-87873809D01*
X113911904Y-88121428D01*
X113973809Y-88245238D01*
X114035714Y-88307142D01*
X114159523Y-88369047D01*
X115211904Y-88369047D01*
X115211904Y-88802380D02*
X115211904Y-89545238D01*
X113911904Y-89173809D02*
X115211904Y-89173809D01*
X113416666Y-91340476D02*
X113478571Y-91278571D01*
X113664285Y-91154761D01*
X113788095Y-91092857D01*
X113973809Y-91030952D01*
X114283333Y-90969047D01*
X114530952Y-90969047D01*
X114840476Y-91030952D01*
X115026190Y-91092857D01*
X115150000Y-91154761D01*
X115335714Y-91278571D01*
X115397619Y-91340476D01*
X113911904Y-92516666D02*
X113911904Y-91773809D01*
X113911904Y-92145238D02*
X115211904Y-92145238D01*
X115026190Y-92021428D01*
X114902380Y-91897619D01*
X114840476Y-91773809D01*
X114035714Y-93073809D02*
X113973809Y-93135714D01*
X113911904Y-93073809D01*
X113973809Y-93011904D01*
X114035714Y-93073809D01*
X113911904Y-93073809D01*
X114716666Y-93073809D02*
X114654761Y-93135714D01*
X114592857Y-93073809D01*
X114654761Y-93011904D01*
X114716666Y-93073809D01*
X114592857Y-93073809D01*
X114592857Y-94683333D02*
X114592857Y-95116666D01*
X113911904Y-95302380D02*
X113911904Y-94683333D01*
X115211904Y-94683333D01*
X115211904Y-95302380D01*
X113911904Y-96416666D02*
X114592857Y-96416666D01*
X114716666Y-96354761D01*
X114778571Y-96230952D01*
X114778571Y-95983333D01*
X114716666Y-95859523D01*
X113973809Y-96416666D02*
X113911904Y-96292857D01*
X113911904Y-95983333D01*
X113973809Y-95859523D01*
X114097619Y-95797619D01*
X114221428Y-95797619D01*
X114345238Y-95859523D01*
X114407142Y-95983333D01*
X114407142Y-96292857D01*
X114469047Y-96416666D01*
X113911904Y-97035714D02*
X114778571Y-97035714D01*
X114530952Y-97035714D02*
X114654761Y-97097619D01*
X114716666Y-97159523D01*
X114778571Y-97283333D01*
X114778571Y-97407142D01*
X114778571Y-97654761D02*
X114778571Y-98150000D01*
X115211904Y-97840476D02*
X114097619Y-97840476D01*
X113973809Y-97902380D01*
X113911904Y-98026190D01*
X113911904Y-98150000D01*
X113911904Y-98583333D02*
X115211904Y-98583333D01*
X113911904Y-99140476D02*
X114592857Y-99140476D01*
X114716666Y-99078571D01*
X114778571Y-98954761D01*
X114778571Y-98769047D01*
X114716666Y-98645238D01*
X114654761Y-98583333D01*
X114407142Y-100750000D02*
X114407142Y-101740476D01*
X115088095Y-103288095D02*
X115150000Y-103350000D01*
X115211904Y-103473809D01*
X115211904Y-103783333D01*
X115150000Y-103907142D01*
X115088095Y-103969047D01*
X114964285Y-104030952D01*
X114840476Y-104030952D01*
X114654761Y-103969047D01*
X113911904Y-103226190D01*
X113911904Y-104030952D01*
X114035714Y-104588095D02*
X113973809Y-104650000D01*
X113911904Y-104588095D01*
X113973809Y-104526190D01*
X114035714Y-104588095D01*
X113911904Y-104588095D01*
X114716666Y-104588095D02*
X114654761Y-104650000D01*
X114592857Y-104588095D01*
X114654761Y-104526190D01*
X114716666Y-104588095D01*
X114592857Y-104588095D01*
X113911904Y-106197619D02*
X115211904Y-106197619D01*
X113911904Y-106940476D01*
X115211904Y-106940476D01*
X114407142Y-108550000D02*
X114407142Y-109540476D01*
X115211904Y-111026190D02*
X115211904Y-111830952D01*
X114716666Y-111397619D01*
X114716666Y-111583333D01*
X114654761Y-111707142D01*
X114592857Y-111769047D01*
X114469047Y-111830952D01*
X114159523Y-111830952D01*
X114035714Y-111769047D01*
X113973809Y-111707142D01*
X113911904Y-111583333D01*
X113911904Y-111211904D01*
X113973809Y-111088095D01*
X114035714Y-111026190D01*
X114035714Y-112388095D02*
X113973809Y-112450000D01*
X113911904Y-112388095D01*
X113973809Y-112326190D01*
X114035714Y-112388095D01*
X113911904Y-112388095D01*
X114716666Y-112388095D02*
X114654761Y-112450000D01*
X114592857Y-112388095D01*
X114654761Y-112326190D01*
X114716666Y-112388095D01*
X114592857Y-112388095D01*
X113911904Y-114616666D02*
X113911904Y-113997619D01*
X115211904Y-113997619D01*
X113416666Y-114926190D02*
X113478571Y-114988095D01*
X113664285Y-115111904D01*
X113788095Y-115173809D01*
X113973809Y-115235714D01*
X114283333Y-115297619D01*
X114530952Y-115297619D01*
X114840476Y-115235714D01*
X115026190Y-115173809D01*
X115150000Y-115111904D01*
X115335714Y-114988095D01*
X115397619Y-114926190D01*
X115211904Y-117154761D02*
X115211904Y-117402380D01*
X115150000Y-117526190D01*
X115026190Y-117650000D01*
X114778571Y-117711904D01*
X114345238Y-117711904D01*
X114097619Y-117650000D01*
X113973809Y-117526190D01*
X113911904Y-117402380D01*
X113911904Y-117154761D01*
X113973809Y-117030952D01*
X114097619Y-116907142D01*
X114345238Y-116845238D01*
X114778571Y-116845238D01*
X115026190Y-116907142D01*
X115150000Y-117030952D01*
X115211904Y-117154761D01*
X115211904Y-118269047D02*
X114159523Y-118269047D01*
X114035714Y-118330952D01*
X113973809Y-118392857D01*
X113911904Y-118516666D01*
X113911904Y-118764285D01*
X113973809Y-118888095D01*
X114035714Y-118950000D01*
X114159523Y-119011904D01*
X115211904Y-119011904D01*
X115211904Y-119445238D02*
X115211904Y-120188095D01*
X113911904Y-119816666D02*
X115211904Y-119816666D01*
X113911904Y-120621428D02*
X115211904Y-120621428D01*
X115211904Y-121116666D01*
X115150000Y-121240476D01*
X115088095Y-121302380D01*
X114964285Y-121364285D01*
X114778571Y-121364285D01*
X114654761Y-121302380D01*
X114592857Y-121240476D01*
X114530952Y-121116666D01*
X114530952Y-120621428D01*
X115211904Y-121921428D02*
X114159523Y-121921428D01*
X114035714Y-121983333D01*
X113973809Y-122045238D01*
X113911904Y-122169047D01*
X113911904Y-122416666D01*
X113973809Y-122540476D01*
X114035714Y-122602380D01*
X114159523Y-122664285D01*
X115211904Y-122664285D01*
X115211904Y-123097619D02*
X115211904Y-123840476D01*
X113911904Y-123469047D02*
X115211904Y-123469047D01*
D11*
X177103571Y-83071428D02*
X177103571Y-83404761D01*
X177627380Y-83404761D02*
X176627380Y-83404761D01*
X176627380Y-82928571D01*
X177627380Y-82023809D02*
X177627380Y-82595238D01*
X177627380Y-82309523D02*
X176627380Y-82309523D01*
X176770238Y-82404761D01*
X176865476Y-82500000D01*
X176913095Y-82595238D01*
X177532142Y-81595238D02*
X177579761Y-81547619D01*
X177627380Y-81595238D01*
X177579761Y-81642857D01*
X177532142Y-81595238D01*
X177627380Y-81595238D01*
X177008333Y-81595238D02*
X177055952Y-81547619D01*
X177103571Y-81595238D01*
X177055952Y-81642857D01*
X177008333Y-81595238D01*
X177103571Y-81595238D01*
X176722619Y-80404761D02*
X176675000Y-80357142D01*
X176627380Y-80261904D01*
X176627380Y-80023809D01*
X176675000Y-79928571D01*
X176722619Y-79880952D01*
X176817857Y-79833333D01*
X176913095Y-79833333D01*
X177055952Y-79880952D01*
X177627380Y-80452380D01*
X177627380Y-79833333D01*
X177532142Y-79404761D02*
X177579761Y-79357142D01*
X177627380Y-79404761D01*
X177579761Y-79452380D01*
X177532142Y-79404761D01*
X177627380Y-79404761D01*
X176627380Y-78738095D02*
X176627380Y-78642857D01*
X176675000Y-78547619D01*
X176722619Y-78500000D01*
X176817857Y-78452380D01*
X177008333Y-78404761D01*
X177246428Y-78404761D01*
X177436904Y-78452380D01*
X177532142Y-78500000D01*
X177579761Y-78547619D01*
X177627380Y-78642857D01*
X177627380Y-78738095D01*
X177579761Y-78833333D01*
X177532142Y-78880952D01*
X177436904Y-78928571D01*
X177246428Y-78976190D01*
X177008333Y-78976190D01*
X176817857Y-78928571D01*
X176722619Y-78880952D01*
X176675000Y-78833333D01*
X176627380Y-78738095D01*
X177341666Y-78023809D02*
X177341666Y-77547619D01*
X177627380Y-78119047D02*
X176627380Y-77785714D01*
X177627380Y-77452380D01*
X178753571Y-83071428D02*
X178753571Y-83404761D01*
X179277380Y-83404761D02*
X178277380Y-83404761D01*
X178277380Y-82928571D01*
X178372619Y-82595238D02*
X178325000Y-82547619D01*
X178277380Y-82452380D01*
X178277380Y-82214285D01*
X178325000Y-82119047D01*
X178372619Y-82071428D01*
X178467857Y-82023809D01*
X178563095Y-82023809D01*
X178705952Y-82071428D01*
X179277380Y-82642857D01*
X179277380Y-82023809D01*
X179182142Y-81595238D02*
X179229761Y-81547619D01*
X179277380Y-81595238D01*
X179229761Y-81642857D01*
X179182142Y-81595238D01*
X179277380Y-81595238D01*
X178658333Y-81595238D02*
X178705952Y-81547619D01*
X178753571Y-81595238D01*
X178705952Y-81642857D01*
X178658333Y-81595238D01*
X178753571Y-81595238D01*
X178277380Y-80166666D02*
X178277380Y-80071428D01*
X178325000Y-79976190D01*
X178372619Y-79928571D01*
X178467857Y-79880952D01*
X178658333Y-79833333D01*
X178896428Y-79833333D01*
X179086904Y-79880952D01*
X179182142Y-79928571D01*
X179229761Y-79976190D01*
X179277380Y-80071428D01*
X179277380Y-80166666D01*
X179229761Y-80261904D01*
X179182142Y-80309523D01*
X179086904Y-80357142D01*
X178896428Y-80404761D01*
X178658333Y-80404761D01*
X178467857Y-80357142D01*
X178372619Y-80309523D01*
X178325000Y-80261904D01*
X178277380Y-80166666D01*
X179182142Y-79404761D02*
X179229761Y-79357142D01*
X179277380Y-79404761D01*
X179229761Y-79452380D01*
X179182142Y-79404761D01*
X179277380Y-79404761D01*
X178372619Y-78976190D02*
X178325000Y-78928571D01*
X178277380Y-78833333D01*
X178277380Y-78595238D01*
X178325000Y-78500000D01*
X178372619Y-78452380D01*
X178467857Y-78404761D01*
X178563095Y-78404761D01*
X178705952Y-78452380D01*
X179277380Y-79023809D01*
X179277380Y-78404761D01*
X178991666Y-78023809D02*
X178991666Y-77547619D01*
X179277380Y-78119047D02*
X178277380Y-77785714D01*
X179277380Y-77452380D01*
D13*
X166420000Y-120000000D02*
X166420000Y-122750000D01*
X169000000Y-127750000D02*
X169000000Y-122750000D01*
X166000000Y-122750000D02*
X166000000Y-127750000D01*
X166000000Y-126000000D02*
X169000000Y-126000000D01*
X166000000Y-124500000D02*
X169000000Y-124500000D01*
X169000000Y-127750000D02*
X166000000Y-127750000D01*
X166000000Y-122750000D02*
X169000000Y-122750000D01*
D11*
X167214285Y-123957142D02*
X167166666Y-124004761D01*
X167023809Y-124052380D01*
X166928571Y-124052380D01*
X166785714Y-124004761D01*
X166690476Y-123909523D01*
X166642857Y-123814285D01*
X166595238Y-123623809D01*
X166595238Y-123480952D01*
X166642857Y-123290476D01*
X166690476Y-123195238D01*
X166785714Y-123100000D01*
X166928571Y-123052380D01*
X167023809Y-123052380D01*
X167166666Y-123100000D01*
X167214285Y-123147619D01*
X167500000Y-123385714D02*
X167880952Y-123385714D01*
X167642857Y-123052380D02*
X167642857Y-123909523D01*
X167690476Y-124004761D01*
X167785714Y-124052380D01*
X167880952Y-124052380D01*
X168214285Y-124052380D02*
X168214285Y-123385714D01*
X168214285Y-123576190D02*
X168261904Y-123480952D01*
X168309523Y-123433333D01*
X168404761Y-123385714D01*
X168500000Y-123385714D01*
X166690476Y-125607142D02*
X166642857Y-125654761D01*
X166500000Y-125702380D01*
X166404761Y-125702380D01*
X166261904Y-125654761D01*
X166166666Y-125559523D01*
X166119047Y-125464285D01*
X166071428Y-125273809D01*
X166071428Y-125130952D01*
X166119047Y-124940476D01*
X166166666Y-124845238D01*
X166261904Y-124750000D01*
X166404761Y-124702380D01*
X166500000Y-124702380D01*
X166642857Y-124750000D01*
X166690476Y-124797619D01*
X167261904Y-125702380D02*
X167166666Y-125654761D01*
X167119047Y-125607142D01*
X167071428Y-125511904D01*
X167071428Y-125226190D01*
X167119047Y-125130952D01*
X167166666Y-125083333D01*
X167261904Y-125035714D01*
X167404761Y-125035714D01*
X167500000Y-125083333D01*
X167547619Y-125130952D01*
X167595238Y-125226190D01*
X167595238Y-125511904D01*
X167547619Y-125607142D01*
X167500000Y-125654761D01*
X167404761Y-125702380D01*
X167261904Y-125702380D01*
X168023809Y-125702380D02*
X168023809Y-125035714D01*
X168023809Y-125130952D02*
X168071428Y-125083333D01*
X168166666Y-125035714D01*
X168309523Y-125035714D01*
X168404761Y-125083333D01*
X168452380Y-125178571D01*
X168452380Y-125702380D01*
X168452380Y-125178571D02*
X168500000Y-125083333D01*
X168595238Y-125035714D01*
X168738095Y-125035714D01*
X168833333Y-125083333D01*
X168880952Y-125178571D01*
X168880952Y-125702380D01*
X166261904Y-127352380D02*
X166261904Y-126352380D01*
X166642857Y-126352380D01*
X166738095Y-126400000D01*
X166785714Y-126447619D01*
X166833333Y-126542857D01*
X166833333Y-126685714D01*
X166785714Y-126780952D01*
X166738095Y-126828571D01*
X166642857Y-126876190D01*
X166261904Y-126876190D01*
X167404761Y-127352380D02*
X167309523Y-127304761D01*
X167261904Y-127257142D01*
X167214285Y-127161904D01*
X167214285Y-126876190D01*
X167261904Y-126780952D01*
X167309523Y-126733333D01*
X167404761Y-126685714D01*
X167547619Y-126685714D01*
X167642857Y-126733333D01*
X167690476Y-126780952D01*
X167738095Y-126876190D01*
X167738095Y-127161904D01*
X167690476Y-127257142D01*
X167642857Y-127304761D01*
X167547619Y-127352380D01*
X167404761Y-127352380D01*
X168071428Y-126685714D02*
X168261904Y-127352380D01*
X168452380Y-126876190D01*
X168642857Y-127352380D01*
X168833333Y-126685714D01*
D13*
X135120000Y-134620000D02*
X173220000Y-134620000D01*
X135120000Y-134620000D02*
X135120000Y-121920000D01*
X173220000Y-121920000D02*
X173220000Y-134620000D01*
X135120000Y-121920000D02*
X173220000Y-121920000D01*
X166670000Y-112420000D02*
X168000000Y-112420000D01*
X166670000Y-113750000D02*
X166670000Y-112420000D01*
X166670000Y-115020000D02*
X169330000Y-115020000D01*
X169330000Y-115020000D02*
X169330000Y-120160000D01*
X166670000Y-115020000D02*
X166670000Y-120160000D01*
X166670000Y-120160000D02*
X169330000Y-120160000D01*
X116500000Y-104000000D02*
X116500000Y-105500000D01*
X134000000Y-104000000D02*
X116500000Y-104000000D01*
X134000000Y-105500000D02*
X134000000Y-104000000D01*
X116500000Y-135000000D02*
X116500000Y-133500000D01*
X134000000Y-135000000D02*
X116500000Y-135000000D01*
X134000000Y-133500000D02*
X134000000Y-135000000D01*
X116500000Y-105500000D02*
X134000000Y-105500000D01*
X134000000Y-133500000D02*
X116500000Y-133500000D01*
X134000000Y-105500000D02*
X134000000Y-132500000D01*
X116500000Y-132500000D02*
X116500000Y-105500000D01*
X134000000Y-132500000D02*
X134000000Y-133500000D01*
X116500000Y-133500000D02*
X116500000Y-132500000D01*
X116500000Y-73000000D02*
X116500000Y-74500000D01*
X134000000Y-73000000D02*
X116500000Y-73000000D01*
X134000000Y-74500000D02*
X134000000Y-73000000D01*
X116500000Y-104000000D02*
X116500000Y-102500000D01*
X134000000Y-104000000D02*
X116500000Y-104000000D01*
X134000000Y-102500000D02*
X134000000Y-104000000D01*
X116500000Y-74500000D02*
X134000000Y-74500000D01*
X134000000Y-102500000D02*
X116500000Y-102500000D01*
X134000000Y-74500000D02*
X134000000Y-101500000D01*
X116500000Y-101500000D02*
X116500000Y-74500000D01*
X134000000Y-101500000D02*
X134000000Y-102500000D01*
X116500000Y-102500000D02*
X116500000Y-101500000D01*
X178230000Y-113610000D02*
X171770000Y-113610000D01*
X178230000Y-118140000D02*
X178230000Y-115540000D01*
X178230000Y-120070000D02*
X171770000Y-120070000D01*
X171770000Y-118140000D02*
X171770000Y-115540000D01*
X178230000Y-120040000D02*
X178230000Y-120070000D01*
X178230000Y-113610000D02*
X178230000Y-113640000D01*
X171770000Y-113610000D02*
X171770000Y-113640000D01*
X171770000Y-120070000D02*
X171770000Y-120040000D01*
X145210000Y-90750000D02*
X145210000Y-92760000D01*
X179800000Y-84150000D02*
X145600000Y-84150000D01*
X179800000Y-104350000D02*
X179800000Y-84150000D01*
X145600000Y-104350000D02*
X179800000Y-104350000D01*
X145600000Y-84150000D02*
X145600000Y-104350000D01*
X161240199Y-106555000D02*
X161240199Y-106955000D01*
X161040199Y-106755000D02*
X161440199Y-106755000D01*
X165391000Y-107580000D02*
X165391000Y-108320000D01*
X165351000Y-107413000D02*
X165351000Y-108487000D01*
X165311000Y-107286000D02*
X165311000Y-108614000D01*
X165271000Y-107182000D02*
X165271000Y-108718000D01*
X165231000Y-107091000D02*
X165231000Y-108809000D01*
X165191000Y-107010000D02*
X165191000Y-108890000D01*
X165151000Y-106937000D02*
X165151000Y-108963000D01*
X165111000Y-106870000D02*
X165111000Y-109030000D01*
X165071000Y-106808000D02*
X165071000Y-109092000D01*
X165031000Y-106750000D02*
X165031000Y-109150000D01*
X164991000Y-106696000D02*
X164991000Y-109204000D01*
X164951000Y-106646000D02*
X164951000Y-109254000D01*
X164911000Y-106599000D02*
X164911000Y-109301000D01*
X164871000Y-108790000D02*
X164871000Y-109346000D01*
X164871000Y-106554000D02*
X164871000Y-107110000D01*
X164831000Y-108790000D02*
X164831000Y-109388000D01*
X164831000Y-106512000D02*
X164831000Y-107110000D01*
X164791000Y-108790000D02*
X164791000Y-109428000D01*
X164791000Y-106472000D02*
X164791000Y-107110000D01*
X164751000Y-108790000D02*
X164751000Y-109466000D01*
X164751000Y-106434000D02*
X164751000Y-107110000D01*
X164711000Y-108790000D02*
X164711000Y-109502000D01*
X164711000Y-106398000D02*
X164711000Y-107110000D01*
X164671000Y-108790000D02*
X164671000Y-109537000D01*
X164671000Y-106363000D02*
X164671000Y-107110000D01*
X164631000Y-108790000D02*
X164631000Y-109569000D01*
X164631000Y-106331000D02*
X164631000Y-107110000D01*
X164591000Y-108790000D02*
X164591000Y-109600000D01*
X164591000Y-106300000D02*
X164591000Y-107110000D01*
X164551000Y-108790000D02*
X164551000Y-109630000D01*
X164551000Y-106270000D02*
X164551000Y-107110000D01*
X164511000Y-108790000D02*
X164511000Y-109658000D01*
X164511000Y-106242000D02*
X164511000Y-107110000D01*
X164471000Y-108790000D02*
X164471000Y-109685000D01*
X164471000Y-106215000D02*
X164471000Y-107110000D01*
X164431000Y-108790000D02*
X164431000Y-109710000D01*
X164431000Y-106190000D02*
X164431000Y-107110000D01*
X164391000Y-108790000D02*
X164391000Y-109735000D01*
X164391000Y-106165000D02*
X164391000Y-107110000D01*
X164351000Y-108790000D02*
X164351000Y-109758000D01*
X164351000Y-106142000D02*
X164351000Y-107110000D01*
X164311000Y-108790000D02*
X164311000Y-109780000D01*
X164311000Y-106120000D02*
X164311000Y-107110000D01*
X164271000Y-108790000D02*
X164271000Y-109801000D01*
X164271000Y-106099000D02*
X164271000Y-107110000D01*
X164231000Y-108790000D02*
X164231000Y-109820000D01*
X164231000Y-106080000D02*
X164231000Y-107110000D01*
X164191000Y-108790000D02*
X164191000Y-109839000D01*
X164191000Y-106061000D02*
X164191000Y-107110000D01*
X164151000Y-108790000D02*
X164151000Y-109857000D01*
X164151000Y-106043000D02*
X164151000Y-107110000D01*
X164111000Y-108790000D02*
X164111000Y-109874000D01*
X164111000Y-106026000D02*
X164111000Y-107110000D01*
X164071000Y-108790000D02*
X164071000Y-109890000D01*
X164071000Y-106010000D02*
X164071000Y-107110000D01*
X164031000Y-108790000D02*
X164031000Y-109904000D01*
X164031000Y-105996000D02*
X164031000Y-107110000D01*
X163990000Y-108790000D02*
X163990000Y-109918000D01*
X163990000Y-105982000D02*
X163990000Y-107110000D01*
X163950000Y-108790000D02*
X163950000Y-109932000D01*
X163950000Y-105968000D02*
X163950000Y-107110000D01*
X163910000Y-108790000D02*
X163910000Y-109944000D01*
X163910000Y-105956000D02*
X163910000Y-107110000D01*
X163870000Y-108790000D02*
X163870000Y-109955000D01*
X163870000Y-105945000D02*
X163870000Y-107110000D01*
X163830000Y-108790000D02*
X163830000Y-109966000D01*
X163830000Y-105934000D02*
X163830000Y-107110000D01*
X163790000Y-108790000D02*
X163790000Y-109975000D01*
X163790000Y-105925000D02*
X163790000Y-107110000D01*
X163750000Y-108790000D02*
X163750000Y-109984000D01*
X163750000Y-105916000D02*
X163750000Y-107110000D01*
X163710000Y-108790000D02*
X163710000Y-109992000D01*
X163710000Y-105908000D02*
X163710000Y-107110000D01*
X163670000Y-108790000D02*
X163670000Y-110000000D01*
X163670000Y-105900000D02*
X163670000Y-107110000D01*
X163630000Y-108790000D02*
X163630000Y-110006000D01*
X163630000Y-105894000D02*
X163630000Y-107110000D01*
X163590000Y-108790000D02*
X163590000Y-110012000D01*
X163590000Y-105888000D02*
X163590000Y-107110000D01*
X163550000Y-108790000D02*
X163550000Y-110017000D01*
X163550000Y-105883000D02*
X163550000Y-107110000D01*
X163510000Y-108790000D02*
X163510000Y-110021000D01*
X163510000Y-105879000D02*
X163510000Y-107110000D01*
X163470000Y-108790000D02*
X163470000Y-110024000D01*
X163470000Y-105876000D02*
X163470000Y-107110000D01*
X163430000Y-108790000D02*
X163430000Y-110027000D01*
X163430000Y-105873000D02*
X163430000Y-107110000D01*
X163390000Y-105871000D02*
X163390000Y-107110000D01*
X163390000Y-108790000D02*
X163390000Y-110029000D01*
X163350000Y-105870000D02*
X163350000Y-107110000D01*
X163350000Y-108790000D02*
X163350000Y-110030000D01*
X163310000Y-105870000D02*
X163310000Y-107110000D01*
X163310000Y-108790000D02*
X163310000Y-110030000D01*
X165430000Y-107950000D02*
G75*
G03X165430000Y-107950000I-2120000J0D01*
G01*
X144280000Y-130110000D02*
X147220000Y-130110000D01*
X144280000Y-129870000D02*
X147220000Y-129870000D01*
X144280000Y-129990000D02*
X147220000Y-129990000D01*
X145750000Y-124430000D02*
X145750000Y-125450000D01*
X145750000Y-131910000D02*
X145750000Y-130890000D01*
X144280000Y-125450000D02*
X144280000Y-130890000D01*
X147220000Y-125450000D02*
X144280000Y-125450000D01*
X147220000Y-130890000D02*
X147220000Y-125450000D01*
X144280000Y-130890000D02*
X147220000Y-130890000D01*
X178290000Y-122420000D02*
X178290000Y-122264000D01*
X178290000Y-124736000D02*
X178290000Y-124580000D01*
X175688870Y-122420163D02*
G75*
G02X177770961Y-122420000I1041130J-1079837D01*
G01*
X175688870Y-124579837D02*
G75*
G03X177770961Y-124580000I1041130J1079837D01*
G01*
X175057665Y-122421392D02*
G75*
G02X178290000Y-122264484I1672335J-1078608D01*
G01*
X175057665Y-124578608D02*
G75*
G03X178290000Y-124735516I1672335J1078608D01*
G01*
X178290000Y-126920000D02*
X178290000Y-126764000D01*
X178290000Y-129236000D02*
X178290000Y-129080000D01*
X175688870Y-126920163D02*
G75*
G02X177770961Y-126920000I1041130J-1079837D01*
G01*
X175688870Y-129079837D02*
G75*
G03X177770961Y-129080000I1041130J1079837D01*
G01*
X175057665Y-126921392D02*
G75*
G02X178290000Y-126764484I1672335J-1078608D01*
G01*
X175057665Y-129078608D02*
G75*
G03X178290000Y-129235516I1672335J1078608D01*
G01*
X178290000Y-131420000D02*
X178290000Y-131264000D01*
X178290000Y-133736000D02*
X178290000Y-133580000D01*
X175688870Y-131420163D02*
G75*
G02X177770961Y-131420000I1041130J-1079837D01*
G01*
X175688870Y-133579837D02*
G75*
G03X177770961Y-133580000I1041130J1079837D01*
G01*
X175057665Y-131421392D02*
G75*
G02X178290000Y-131264484I1672335J-1078608D01*
G01*
X175057665Y-133578608D02*
G75*
G03X178290000Y-133735516I1672335J1078608D01*
G01*
X144830000Y-73190000D02*
X144830000Y-77000000D01*
X134670000Y-73190000D02*
X144830000Y-73190000D01*
X134670000Y-103670000D02*
X134670000Y-73190000D01*
X144830000Y-103670000D02*
X134670000Y-103670000D01*
X144830000Y-77000000D02*
X144830000Y-103670000D01*
X176060000Y-83330000D02*
X172250000Y-83330000D01*
X176060000Y-73170000D02*
X176060000Y-83330000D01*
X145580000Y-73170000D02*
X176060000Y-73170000D01*
X145580000Y-83330000D02*
X145580000Y-73170000D01*
X172250000Y-83330000D02*
X145580000Y-83330000D01*
X172830000Y-133330000D02*
X171500000Y-133330000D01*
X172830000Y-132000000D02*
X172830000Y-133330000D01*
X172830000Y-130730000D02*
X170170000Y-130730000D01*
X170170000Y-130730000D02*
X170170000Y-123050000D01*
X172830000Y-130730000D02*
X172830000Y-123050000D01*
X172830000Y-123050000D02*
X170170000Y-123050000D01*
X145450000Y-111150000D02*
X149450000Y-111150000D01*
X145450000Y-114750000D02*
X145450000Y-111150000D01*
X149450000Y-114750000D02*
X145450000Y-114750000D01*
X149450000Y-111150000D02*
X149450000Y-114750000D01*
X145450000Y-111150000D02*
X149450000Y-114750000D01*
X147450000Y-111150000D02*
X147450000Y-106950000D01*
X147450000Y-118950000D02*
X147450000Y-114750000D01*
X150850000Y-112950000D02*
X150850000Y-109350000D01*
X144050000Y-112950000D02*
X144050000Y-109350000D01*
X144050000Y-109350000D02*
X150850000Y-109350000D01*
X142550000Y-112950000D02*
X137950000Y-115450000D01*
X144050000Y-112950000D02*
X142550000Y-112950000D01*
X147450000Y-118950000D02*
X149950000Y-118950000D01*
X150850000Y-112950000D02*
X151650000Y-112950000D01*
X149950000Y-106950000D02*
X147450000Y-106950000D01*
X139350000Y-117200000D02*
X139350000Y-114700000D01*
X139350000Y-108800000D02*
X139350000Y-111250000D01*
X135100000Y-105200000D02*
X154900000Y-105200000D01*
X135100000Y-120800000D02*
X135100000Y-105200000D01*
X154900000Y-120800000D02*
X135100000Y-120800000D01*
X154900000Y-120800000D02*
X154900000Y-114200000D01*
X154900000Y-111800000D02*
X154900000Y-105200000D01*
X159953478Y-109788478D02*
G75*
G03X158115000Y-105350000I-1838478J1838478D01*
G01*
X156276522Y-109788478D02*
G75*
G02X158115000Y-105350000I1838478J1838478D01*
G01*
X156315000Y-109800000D02*
X159915000Y-109800000D01*
X179638478Y-107381522D02*
G75*
G03X175200000Y-109220000I-1838478J-1838478D01*
G01*
X179638478Y-111058478D02*
G75*
G02X175200000Y-109220000I-1838478J1838478D01*
G01*
X179650000Y-111020000D02*
X179650000Y-107420000D01*
X163710000Y-111065000D02*
X162060000Y-111065000D01*
X163710000Y-121345000D02*
X163710000Y-111065000D01*
X158410000Y-121345000D02*
X163710000Y-121345000D01*
X158410000Y-111065000D02*
X158410000Y-121345000D01*
X160060000Y-111065000D02*
X158410000Y-111065000D01*
X162060000Y-111065000D02*
G75*
G02X160060000Y-111065000I-1000000J0D01*
G01*
X150620000Y-124670000D02*
X150290000Y-124670000D01*
X150620000Y-131210000D02*
X150620000Y-124670000D01*
X150290000Y-131210000D02*
X150620000Y-131210000D01*
X147880000Y-124670000D02*
X148210000Y-124670000D01*
X147880000Y-131210000D02*
X147880000Y-124670000D01*
X148210000Y-131210000D02*
X147880000Y-131210000D01*
X159880000Y-131210000D02*
X160210000Y-131210000D01*
X159880000Y-124670000D02*
X159880000Y-131210000D01*
X160210000Y-124670000D02*
X159880000Y-124670000D01*
X162620000Y-131210000D02*
X162290000Y-131210000D01*
X162620000Y-124670000D02*
X162620000Y-131210000D01*
X162290000Y-124670000D02*
X162620000Y-124670000D01*
X159620000Y-124670000D02*
X159290000Y-124670000D01*
X159620000Y-131210000D02*
X159620000Y-124670000D01*
X159290000Y-131210000D02*
X159620000Y-131210000D01*
X156880000Y-124670000D02*
X157210000Y-124670000D01*
X156880000Y-131210000D02*
X156880000Y-124670000D01*
X157210000Y-131210000D02*
X156880000Y-131210000D01*
X156620000Y-124670000D02*
X156290000Y-124670000D01*
X156620000Y-131210000D02*
X156620000Y-124670000D01*
X156290000Y-131210000D02*
X156620000Y-131210000D01*
X153880000Y-124670000D02*
X154210000Y-124670000D01*
X153880000Y-131210000D02*
X153880000Y-124670000D01*
X154210000Y-131210000D02*
X153880000Y-131210000D01*
X153620000Y-124670000D02*
X153290000Y-124670000D01*
X153620000Y-131210000D02*
X153620000Y-124670000D01*
X153290000Y-131210000D02*
X153620000Y-131210000D01*
X150880000Y-124670000D02*
X151210000Y-124670000D01*
X150880000Y-131210000D02*
X150880000Y-124670000D01*
X151210000Y-131210000D02*
X150880000Y-131210000D01*
X163210000Y-131210000D02*
X162880000Y-131210000D01*
X162880000Y-131210000D02*
X162880000Y-124670000D01*
X162880000Y-124670000D02*
X163210000Y-124670000D01*
X165290000Y-131210000D02*
X165620000Y-131210000D01*
X165620000Y-131210000D02*
X165620000Y-124670000D01*
X165620000Y-124670000D02*
X165290000Y-124670000D01*
D11*
X137988095Y-123452380D02*
X137988095Y-122452380D01*
X137988095Y-122928571D02*
X138559523Y-122928571D01*
X138559523Y-123452380D02*
X138559523Y-122452380D01*
X139464285Y-122785714D02*
X139464285Y-123452380D01*
X139226190Y-122404761D02*
X138988095Y-123119047D01*
X139607142Y-123119047D01*
X167166666Y-110872380D02*
X167166666Y-111586666D01*
X167119047Y-111729523D01*
X167023809Y-111824761D01*
X166880952Y-111872380D01*
X166785714Y-111872380D01*
X167642857Y-111872380D02*
X167642857Y-110872380D01*
X168023809Y-110872380D01*
X168119047Y-110920000D01*
X168166666Y-110967619D01*
X168214285Y-111062857D01*
X168214285Y-111205714D01*
X168166666Y-111300952D01*
X168119047Y-111348571D01*
X168023809Y-111396190D01*
X167642857Y-111396190D01*
X169166666Y-111872380D02*
X168595238Y-111872380D01*
X168880952Y-111872380D02*
X168880952Y-110872380D01*
X168785714Y-111015238D01*
X168690476Y-111110476D01*
X168595238Y-111158095D01*
X132762380Y-131423333D02*
X133476666Y-131423333D01*
X133619523Y-131470952D01*
X133714761Y-131566190D01*
X133762380Y-131709047D01*
X133762380Y-131804285D01*
X132857619Y-130994761D02*
X132810000Y-130947142D01*
X132762380Y-130851904D01*
X132762380Y-130613809D01*
X132810000Y-130518571D01*
X132857619Y-130470952D01*
X132952857Y-130423333D01*
X133048095Y-130423333D01*
X133190952Y-130470952D01*
X133762380Y-131042380D01*
X133762380Y-130423333D01*
X132762380Y-76293333D02*
X133476666Y-76293333D01*
X133619523Y-76340952D01*
X133714761Y-76436190D01*
X133762380Y-76579047D01*
X133762380Y-76674285D01*
X133762380Y-75293333D02*
X133762380Y-75864761D01*
X133762380Y-75579047D02*
X132762380Y-75579047D01*
X132905238Y-75674285D01*
X133000476Y-75769523D01*
X133048095Y-75864761D01*
X171041666Y-113404761D02*
X171184523Y-113452380D01*
X171422619Y-113452380D01*
X171517857Y-113404761D01*
X171565476Y-113357142D01*
X171613095Y-113261904D01*
X171613095Y-113166666D01*
X171565476Y-113071428D01*
X171517857Y-113023809D01*
X171422619Y-112976190D01*
X171232142Y-112928571D01*
X171136904Y-112880952D01*
X171089285Y-112833333D01*
X171041666Y-112738095D01*
X171041666Y-112642857D01*
X171089285Y-112547619D01*
X171136904Y-112500000D01*
X171232142Y-112452380D01*
X171470238Y-112452380D01*
X171613095Y-112500000D01*
X171946428Y-112452380D02*
X172184523Y-113452380D01*
X172375000Y-112738095D01*
X172565476Y-113452380D01*
X172803571Y-112452380D01*
X173708333Y-113452380D02*
X173136904Y-113452380D01*
X173422619Y-113452380D02*
X173422619Y-112452380D01*
X173327380Y-112595238D01*
X173232142Y-112690476D01*
X173136904Y-112738095D01*
X146150714Y-85852380D02*
X146150714Y-84852380D01*
X146531666Y-84852380D01*
X146626904Y-84900000D01*
X146674523Y-84947619D01*
X146722142Y-85042857D01*
X146722142Y-85185714D01*
X146674523Y-85280952D01*
X146626904Y-85328571D01*
X146531666Y-85376190D01*
X146150714Y-85376190D01*
X147103095Y-85804761D02*
X147245952Y-85852380D01*
X147484047Y-85852380D01*
X147579285Y-85804761D01*
X147626904Y-85757142D01*
X147674523Y-85661904D01*
X147674523Y-85566666D01*
X147626904Y-85471428D01*
X147579285Y-85423809D01*
X147484047Y-85376190D01*
X147293571Y-85328571D01*
X147198333Y-85280952D01*
X147150714Y-85233333D01*
X147103095Y-85138095D01*
X147103095Y-85042857D01*
X147150714Y-84947619D01*
X147198333Y-84900000D01*
X147293571Y-84852380D01*
X147531666Y-84852380D01*
X147674523Y-84900000D01*
X148626904Y-85852380D02*
X148055476Y-85852380D01*
X148341190Y-85852380D02*
X148341190Y-84852380D01*
X148245952Y-84995238D01*
X148150714Y-85090476D01*
X148055476Y-85138095D01*
X117488095Y-131702380D02*
X117488095Y-130702380D01*
X117488095Y-131178571D02*
X118059523Y-131178571D01*
X118059523Y-131702380D02*
X118059523Y-130702380D01*
X118440476Y-130702380D02*
X119059523Y-130702380D01*
X118726190Y-131083333D01*
X118869047Y-131083333D01*
X118964285Y-131130952D01*
X119011904Y-131178571D01*
X119059523Y-131273809D01*
X119059523Y-131511904D01*
X119011904Y-131607142D01*
X118964285Y-131654761D01*
X118869047Y-131702380D01*
X118583333Y-131702380D01*
X118488095Y-131654761D01*
X118440476Y-131607142D01*
X116988095Y-77202380D02*
X116988095Y-76202380D01*
X116988095Y-76678571D02*
X117559523Y-76678571D01*
X117559523Y-77202380D02*
X117559523Y-76202380D01*
X117988095Y-76297619D02*
X118035714Y-76250000D01*
X118130952Y-76202380D01*
X118369047Y-76202380D01*
X118464285Y-76250000D01*
X118511904Y-76297619D01*
X118559523Y-76392857D01*
X118559523Y-76488095D01*
X118511904Y-76630952D01*
X117940476Y-77202380D01*
X118559523Y-77202380D01*
X165333333Y-110607142D02*
X165285714Y-110654761D01*
X165142857Y-110702380D01*
X165047619Y-110702380D01*
X164904761Y-110654761D01*
X164809523Y-110559523D01*
X164761904Y-110464285D01*
X164714285Y-110273809D01*
X164714285Y-110130952D01*
X164761904Y-109940476D01*
X164809523Y-109845238D01*
X164904761Y-109750000D01*
X165047619Y-109702380D01*
X165142857Y-109702380D01*
X165285714Y-109750000D01*
X165333333Y-109797619D01*
X166285714Y-110702380D02*
X165714285Y-110702380D01*
X166000000Y-110702380D02*
X166000000Y-109702380D01*
X165904761Y-109845238D01*
X165809523Y-109940476D01*
X165714285Y-109988095D01*
X161702380Y-105702380D02*
X161130952Y-105702380D01*
X161416666Y-105702380D02*
X161416666Y-104702380D01*
X161321428Y-104845238D01*
X161226190Y-104940476D01*
X161130952Y-104988095D01*
X162321428Y-104702380D02*
X162416666Y-104702380D01*
X162511904Y-104750000D01*
X162559523Y-104797619D01*
X162607142Y-104892857D01*
X162654761Y-105083333D01*
X162654761Y-105321428D01*
X162607142Y-105511904D01*
X162559523Y-105607142D01*
X162511904Y-105654761D01*
X162416666Y-105702380D01*
X162321428Y-105702380D01*
X162226190Y-105654761D01*
X162178571Y-105607142D01*
X162130952Y-105511904D01*
X162083333Y-105321428D01*
X162083333Y-105083333D01*
X162130952Y-104892857D01*
X162178571Y-104797619D01*
X162226190Y-104750000D01*
X162321428Y-104702380D01*
X163273809Y-104702380D02*
X163369047Y-104702380D01*
X163464285Y-104750000D01*
X163511904Y-104797619D01*
X163559523Y-104892857D01*
X163607142Y-105083333D01*
X163607142Y-105321428D01*
X163559523Y-105511904D01*
X163511904Y-105607142D01*
X163464285Y-105654761D01*
X163369047Y-105702380D01*
X163273809Y-105702380D01*
X163178571Y-105654761D01*
X163130952Y-105607142D01*
X163083333Y-105511904D01*
X163035714Y-105321428D01*
X163035714Y-105083333D01*
X163083333Y-104892857D01*
X163130952Y-104797619D01*
X163178571Y-104750000D01*
X163273809Y-104702380D01*
X164035714Y-105035714D02*
X164035714Y-105702380D01*
X164035714Y-105130952D02*
X164083333Y-105083333D01*
X164178571Y-105035714D01*
X164321428Y-105035714D01*
X164416666Y-105083333D01*
X164464285Y-105178571D01*
X164464285Y-105702380D01*
X165273809Y-105178571D02*
X164940476Y-105178571D01*
X164940476Y-105702380D02*
X164940476Y-104702380D01*
X165416666Y-104702380D01*
X143702380Y-130142857D02*
X143702380Y-130714285D01*
X143702380Y-130428571D02*
X142702380Y-130428571D01*
X142845238Y-130523809D01*
X142940476Y-130619047D01*
X142988095Y-130714285D01*
X143702380Y-129714285D02*
X142702380Y-129714285D01*
X143702380Y-129142857D01*
X142702380Y-129142857D01*
X143035714Y-128238095D02*
X143702380Y-128238095D01*
X142654761Y-128476190D02*
X143369047Y-128714285D01*
X143369047Y-128095238D01*
X142702380Y-127523809D02*
X142702380Y-127428571D01*
X142750000Y-127333333D01*
X142797619Y-127285714D01*
X142892857Y-127238095D01*
X143083333Y-127190476D01*
X143321428Y-127190476D01*
X143511904Y-127238095D01*
X143607142Y-127285714D01*
X143654761Y-127333333D01*
X143702380Y-127428571D01*
X143702380Y-127523809D01*
X143654761Y-127619047D01*
X143607142Y-127666666D01*
X143511904Y-127714285D01*
X143321428Y-127761904D01*
X143083333Y-127761904D01*
X142892857Y-127714285D01*
X142797619Y-127666666D01*
X142750000Y-127619047D01*
X142702380Y-127523809D01*
X142702380Y-126571428D02*
X142702380Y-126476190D01*
X142750000Y-126380952D01*
X142797619Y-126333333D01*
X142892857Y-126285714D01*
X143083333Y-126238095D01*
X143321428Y-126238095D01*
X143511904Y-126285714D01*
X143607142Y-126333333D01*
X143654761Y-126380952D01*
X143702380Y-126476190D01*
X143702380Y-126571428D01*
X143654761Y-126666666D01*
X143607142Y-126714285D01*
X143511904Y-126761904D01*
X143321428Y-126809523D01*
X143083333Y-126809523D01*
X142892857Y-126761904D01*
X142797619Y-126714285D01*
X142750000Y-126666666D01*
X142702380Y-126571428D01*
X142702380Y-125904761D02*
X142702380Y-125238095D01*
X143702380Y-125666666D01*
X173511904Y-122202380D02*
X173511904Y-121202380D01*
X173750000Y-121202380D01*
X173892857Y-121250000D01*
X173988095Y-121345238D01*
X174035714Y-121440476D01*
X174083333Y-121630952D01*
X174083333Y-121773809D01*
X174035714Y-121964285D01*
X173988095Y-122059523D01*
X173892857Y-122154761D01*
X173750000Y-122202380D01*
X173511904Y-122202380D01*
X174464285Y-121297619D02*
X174511904Y-121250000D01*
X174607142Y-121202380D01*
X174845238Y-121202380D01*
X174940476Y-121250000D01*
X174988095Y-121297619D01*
X175035714Y-121392857D01*
X175035714Y-121488095D01*
X174988095Y-121630952D01*
X174416666Y-122202380D01*
X175035714Y-122202380D01*
X173511904Y-126702380D02*
X173511904Y-125702380D01*
X173750000Y-125702380D01*
X173892857Y-125750000D01*
X173988095Y-125845238D01*
X174035714Y-125940476D01*
X174083333Y-126130952D01*
X174083333Y-126273809D01*
X174035714Y-126464285D01*
X173988095Y-126559523D01*
X173892857Y-126654761D01*
X173750000Y-126702380D01*
X173511904Y-126702380D01*
X174416666Y-125702380D02*
X175035714Y-125702380D01*
X174702380Y-126083333D01*
X174845238Y-126083333D01*
X174940476Y-126130952D01*
X174988095Y-126178571D01*
X175035714Y-126273809D01*
X175035714Y-126511904D01*
X174988095Y-126607142D01*
X174940476Y-126654761D01*
X174845238Y-126702380D01*
X174559523Y-126702380D01*
X174464285Y-126654761D01*
X174416666Y-126607142D01*
X173511904Y-130952380D02*
X173511904Y-129952380D01*
X173750000Y-129952380D01*
X173892857Y-130000000D01*
X173988095Y-130095238D01*
X174035714Y-130190476D01*
X174083333Y-130380952D01*
X174083333Y-130523809D01*
X174035714Y-130714285D01*
X173988095Y-130809523D01*
X173892857Y-130904761D01*
X173750000Y-130952380D01*
X173511904Y-130952380D01*
X174940476Y-130285714D02*
X174940476Y-130952380D01*
X174702380Y-129904761D02*
X174464285Y-130619047D01*
X175083333Y-130619047D01*
X143666666Y-104178571D02*
X143333333Y-104178571D01*
X143333333Y-104702380D02*
X143333333Y-103702380D01*
X143809523Y-103702380D01*
X144714285Y-104702380D02*
X144142857Y-104702380D01*
X144428571Y-104702380D02*
X144428571Y-103702380D01*
X144333333Y-103845238D01*
X144238095Y-103940476D01*
X144142857Y-103988095D01*
X176928571Y-74583333D02*
X176928571Y-74916666D01*
X177452380Y-74916666D02*
X176452380Y-74916666D01*
X176452380Y-74440476D01*
X176547619Y-74107142D02*
X176500000Y-74059523D01*
X176452380Y-73964285D01*
X176452380Y-73726190D01*
X176500000Y-73630952D01*
X176547619Y-73583333D01*
X176642857Y-73535714D01*
X176738095Y-73535714D01*
X176880952Y-73583333D01*
X177452380Y-74154761D01*
X177452380Y-73535714D01*
X173132380Y-124043333D02*
X173846666Y-124043333D01*
X173989523Y-124090952D01*
X174084761Y-124186190D01*
X174132380Y-124329047D01*
X174132380Y-124424285D01*
X173465714Y-123138571D02*
X174132380Y-123138571D01*
X173084761Y-123376666D02*
X173799047Y-123614761D01*
X173799047Y-122995714D01*
X135591904Y-106612380D02*
X135591904Y-105612380D01*
X136163333Y-106612380D02*
X135734761Y-106040952D01*
X136163333Y-105612380D02*
X135591904Y-106183809D01*
X137115714Y-106612380D02*
X136544285Y-106612380D01*
X136830000Y-106612380D02*
X136830000Y-105612380D01*
X136734761Y-105755238D01*
X136639523Y-105850476D01*
X136544285Y-105898095D01*
X156154761Y-105797619D02*
X156059523Y-105750000D01*
X155964285Y-105654761D01*
X155821428Y-105511904D01*
X155726190Y-105464285D01*
X155630952Y-105464285D01*
X155678571Y-105702380D02*
X155583333Y-105654761D01*
X155488095Y-105559523D01*
X155440476Y-105369047D01*
X155440476Y-105035714D01*
X155488095Y-104845238D01*
X155583333Y-104750000D01*
X155678571Y-104702380D01*
X155869047Y-104702380D01*
X155964285Y-104750000D01*
X156059523Y-104845238D01*
X156107142Y-105035714D01*
X156107142Y-105369047D01*
X156059523Y-105559523D01*
X155964285Y-105654761D01*
X155869047Y-105702380D01*
X155678571Y-105702380D01*
X157059523Y-105702380D02*
X156488095Y-105702380D01*
X156773809Y-105702380D02*
X156773809Y-104702380D01*
X156678571Y-104845238D01*
X156583333Y-104940476D01*
X156488095Y-104988095D01*
X178702380Y-113261904D02*
X179511904Y-113261904D01*
X179607142Y-113214285D01*
X179654761Y-113166666D01*
X179702380Y-113071428D01*
X179702380Y-112880952D01*
X179654761Y-112785714D01*
X179607142Y-112738095D01*
X179511904Y-112690476D01*
X178702380Y-112690476D01*
X179702380Y-111690476D02*
X179702380Y-112261904D01*
X179702380Y-111976190D02*
X178702380Y-111976190D01*
X178845238Y-112071428D01*
X178940476Y-112166666D01*
X178988095Y-112261904D01*
X160393095Y-110202380D02*
X160393095Y-111011904D01*
X160440714Y-111107142D01*
X160488333Y-111154761D01*
X160583571Y-111202380D01*
X160774047Y-111202380D01*
X160869285Y-111154761D01*
X160916904Y-111107142D01*
X160964523Y-111011904D01*
X160964523Y-110202380D01*
X161393095Y-110297619D02*
X161440714Y-110250000D01*
X161535952Y-110202380D01*
X161774047Y-110202380D01*
X161869285Y-110250000D01*
X161916904Y-110297619D01*
X161964523Y-110392857D01*
X161964523Y-110488095D01*
X161916904Y-110630952D01*
X161345476Y-111202380D01*
X161964523Y-111202380D01*
X149083333Y-133952380D02*
X148750000Y-133476190D01*
X148511904Y-133952380D02*
X148511904Y-132952380D01*
X148892857Y-132952380D01*
X148988095Y-133000000D01*
X149035714Y-133047619D01*
X149083333Y-133142857D01*
X149083333Y-133285714D01*
X149035714Y-133380952D01*
X148988095Y-133428571D01*
X148892857Y-133476190D01*
X148511904Y-133476190D01*
X150035714Y-133952380D02*
X149464285Y-133952380D01*
X149750000Y-133952380D02*
X149750000Y-132952380D01*
X149654761Y-133095238D01*
X149559523Y-133190476D01*
X149464285Y-133238095D01*
X149035714Y-128725714D02*
X149702380Y-128725714D01*
X148654761Y-128963809D02*
X149369047Y-129201904D01*
X149369047Y-128582857D01*
X149702380Y-128201904D02*
X148702380Y-128201904D01*
X149702380Y-127630476D02*
X149130952Y-128059047D01*
X148702380Y-127630476D02*
X149273809Y-128201904D01*
X148702380Y-127297142D02*
X148702380Y-126630476D01*
X149702380Y-127059047D01*
X161083333Y-133952380D02*
X160750000Y-133476190D01*
X160511904Y-133952380D02*
X160511904Y-132952380D01*
X160892857Y-132952380D01*
X160988095Y-133000000D01*
X161035714Y-133047619D01*
X161083333Y-133142857D01*
X161083333Y-133285714D01*
X161035714Y-133380952D01*
X160988095Y-133428571D01*
X160892857Y-133476190D01*
X160511904Y-133476190D01*
X161464285Y-133047619D02*
X161511904Y-133000000D01*
X161607142Y-132952380D01*
X161845238Y-132952380D01*
X161940476Y-133000000D01*
X161988095Y-133047619D01*
X162035714Y-133142857D01*
X162035714Y-133238095D01*
X161988095Y-133380952D01*
X161416666Y-133952380D01*
X162035714Y-133952380D01*
X161702380Y-128606666D02*
X161702380Y-129178095D01*
X161702380Y-128892380D02*
X160702380Y-128892380D01*
X160845238Y-128987619D01*
X160940476Y-129082857D01*
X160988095Y-129178095D01*
X160702380Y-127701904D02*
X160702380Y-128178095D01*
X161178571Y-128225714D01*
X161130952Y-128178095D01*
X161083333Y-128082857D01*
X161083333Y-127844761D01*
X161130952Y-127749523D01*
X161178571Y-127701904D01*
X161273809Y-127654285D01*
X161511904Y-127654285D01*
X161607142Y-127701904D01*
X161654761Y-127749523D01*
X161702380Y-127844761D01*
X161702380Y-128082857D01*
X161654761Y-128178095D01*
X161607142Y-128225714D01*
X160702380Y-127035238D02*
X160702380Y-126940000D01*
X160750000Y-126844761D01*
X160797619Y-126797142D01*
X160892857Y-126749523D01*
X161083333Y-126701904D01*
X161321428Y-126701904D01*
X161511904Y-126749523D01*
X161607142Y-126797142D01*
X161654761Y-126844761D01*
X161702380Y-126940000D01*
X161702380Y-127035238D01*
X161654761Y-127130476D01*
X161607142Y-127178095D01*
X161511904Y-127225714D01*
X161321428Y-127273333D01*
X161083333Y-127273333D01*
X160892857Y-127225714D01*
X160797619Y-127178095D01*
X160750000Y-127130476D01*
X160702380Y-127035238D01*
X158083333Y-133952380D02*
X157750000Y-133476190D01*
X157511904Y-133952380D02*
X157511904Y-132952380D01*
X157892857Y-132952380D01*
X157988095Y-133000000D01*
X158035714Y-133047619D01*
X158083333Y-133142857D01*
X158083333Y-133285714D01*
X158035714Y-133380952D01*
X157988095Y-133428571D01*
X157892857Y-133476190D01*
X157511904Y-133476190D01*
X158416666Y-132952380D02*
X159035714Y-132952380D01*
X158702380Y-133333333D01*
X158845238Y-133333333D01*
X158940476Y-133380952D01*
X158988095Y-133428571D01*
X159035714Y-133523809D01*
X159035714Y-133761904D01*
X158988095Y-133857142D01*
X158940476Y-133904761D01*
X158845238Y-133952380D01*
X158559523Y-133952380D01*
X158464285Y-133904761D01*
X158416666Y-133857142D01*
X157702380Y-129285714D02*
X157702380Y-128666666D01*
X158083333Y-129000000D01*
X158083333Y-128857142D01*
X158130952Y-128761904D01*
X158178571Y-128714285D01*
X158273809Y-128666666D01*
X158511904Y-128666666D01*
X158607142Y-128714285D01*
X158654761Y-128761904D01*
X158702380Y-128857142D01*
X158702380Y-129142857D01*
X158654761Y-129238095D01*
X158607142Y-129285714D01*
X157702380Y-127809523D02*
X157702380Y-128000000D01*
X157750000Y-128095238D01*
X157797619Y-128142857D01*
X157940476Y-128238095D01*
X158130952Y-128285714D01*
X158511904Y-128285714D01*
X158607142Y-128238095D01*
X158654761Y-128190476D01*
X158702380Y-128095238D01*
X158702380Y-127904761D01*
X158654761Y-127809523D01*
X158607142Y-127761904D01*
X158511904Y-127714285D01*
X158273809Y-127714285D01*
X158178571Y-127761904D01*
X158130952Y-127809523D01*
X158083333Y-127904761D01*
X158083333Y-128095238D01*
X158130952Y-128190476D01*
X158178571Y-128238095D01*
X158273809Y-128285714D01*
X157702380Y-127095238D02*
X157702380Y-127000000D01*
X157750000Y-126904761D01*
X157797619Y-126857142D01*
X157892857Y-126809523D01*
X158083333Y-126761904D01*
X158321428Y-126761904D01*
X158511904Y-126809523D01*
X158607142Y-126857142D01*
X158654761Y-126904761D01*
X158702380Y-127000000D01*
X158702380Y-127095238D01*
X158654761Y-127190476D01*
X158607142Y-127238095D01*
X158511904Y-127285714D01*
X158321428Y-127333333D01*
X158083333Y-127333333D01*
X157892857Y-127285714D01*
X157797619Y-127238095D01*
X157750000Y-127190476D01*
X157702380Y-127095238D01*
X155083333Y-133952380D02*
X154750000Y-133476190D01*
X154511904Y-133952380D02*
X154511904Y-132952380D01*
X154892857Y-132952380D01*
X154988095Y-133000000D01*
X155035714Y-133047619D01*
X155083333Y-133142857D01*
X155083333Y-133285714D01*
X155035714Y-133380952D01*
X154988095Y-133428571D01*
X154892857Y-133476190D01*
X154511904Y-133476190D01*
X155940476Y-133285714D02*
X155940476Y-133952380D01*
X155702380Y-132904761D02*
X155464285Y-133619047D01*
X156083333Y-133619047D01*
X154702380Y-129225714D02*
X154702380Y-128606666D01*
X155083333Y-128940000D01*
X155083333Y-128797142D01*
X155130952Y-128701904D01*
X155178571Y-128654285D01*
X155273809Y-128606666D01*
X155511904Y-128606666D01*
X155607142Y-128654285D01*
X155654761Y-128701904D01*
X155702380Y-128797142D01*
X155702380Y-129082857D01*
X155654761Y-129178095D01*
X155607142Y-129225714D01*
X154702380Y-127749523D02*
X154702380Y-127940000D01*
X154750000Y-128035238D01*
X154797619Y-128082857D01*
X154940476Y-128178095D01*
X155130952Y-128225714D01*
X155511904Y-128225714D01*
X155607142Y-128178095D01*
X155654761Y-128130476D01*
X155702380Y-128035238D01*
X155702380Y-127844761D01*
X155654761Y-127749523D01*
X155607142Y-127701904D01*
X155511904Y-127654285D01*
X155273809Y-127654285D01*
X155178571Y-127701904D01*
X155130952Y-127749523D01*
X155083333Y-127844761D01*
X155083333Y-128035238D01*
X155130952Y-128130476D01*
X155178571Y-128178095D01*
X155273809Y-128225714D01*
X154702380Y-127035238D02*
X154702380Y-126940000D01*
X154750000Y-126844761D01*
X154797619Y-126797142D01*
X154892857Y-126749523D01*
X155083333Y-126701904D01*
X155321428Y-126701904D01*
X155511904Y-126749523D01*
X155607142Y-126797142D01*
X155654761Y-126844761D01*
X155702380Y-126940000D01*
X155702380Y-127035238D01*
X155654761Y-127130476D01*
X155607142Y-127178095D01*
X155511904Y-127225714D01*
X155321428Y-127273333D01*
X155083333Y-127273333D01*
X154892857Y-127225714D01*
X154797619Y-127178095D01*
X154750000Y-127130476D01*
X154702380Y-127035238D01*
X152083333Y-133952380D02*
X151750000Y-133476190D01*
X151511904Y-133952380D02*
X151511904Y-132952380D01*
X151892857Y-132952380D01*
X151988095Y-133000000D01*
X152035714Y-133047619D01*
X152083333Y-133142857D01*
X152083333Y-133285714D01*
X152035714Y-133380952D01*
X151988095Y-133428571D01*
X151892857Y-133476190D01*
X151511904Y-133476190D01*
X152988095Y-132952380D02*
X152511904Y-132952380D01*
X152464285Y-133428571D01*
X152511904Y-133380952D01*
X152607142Y-133333333D01*
X152845238Y-133333333D01*
X152940476Y-133380952D01*
X152988095Y-133428571D01*
X153035714Y-133523809D01*
X153035714Y-133761904D01*
X152988095Y-133857142D01*
X152940476Y-133904761D01*
X152845238Y-133952380D01*
X152607142Y-133952380D01*
X152511904Y-133904761D01*
X152464285Y-133857142D01*
X151702380Y-129225714D02*
X151702380Y-128606666D01*
X152083333Y-128940000D01*
X152083333Y-128797142D01*
X152130952Y-128701904D01*
X152178571Y-128654285D01*
X152273809Y-128606666D01*
X152511904Y-128606666D01*
X152607142Y-128654285D01*
X152654761Y-128701904D01*
X152702380Y-128797142D01*
X152702380Y-129082857D01*
X152654761Y-129178095D01*
X152607142Y-129225714D01*
X151702380Y-127749523D02*
X151702380Y-127940000D01*
X151750000Y-128035238D01*
X151797619Y-128082857D01*
X151940476Y-128178095D01*
X152130952Y-128225714D01*
X152511904Y-128225714D01*
X152607142Y-128178095D01*
X152654761Y-128130476D01*
X152702380Y-128035238D01*
X152702380Y-127844761D01*
X152654761Y-127749523D01*
X152607142Y-127701904D01*
X152511904Y-127654285D01*
X152273809Y-127654285D01*
X152178571Y-127701904D01*
X152130952Y-127749523D01*
X152083333Y-127844761D01*
X152083333Y-128035238D01*
X152130952Y-128130476D01*
X152178571Y-128178095D01*
X152273809Y-128225714D01*
X151702380Y-127035238D02*
X151702380Y-126940000D01*
X151750000Y-126844761D01*
X151797619Y-126797142D01*
X151892857Y-126749523D01*
X152083333Y-126701904D01*
X152321428Y-126701904D01*
X152511904Y-126749523D01*
X152607142Y-126797142D01*
X152654761Y-126844761D01*
X152702380Y-126940000D01*
X152702380Y-127035238D01*
X152654761Y-127130476D01*
X152607142Y-127178095D01*
X152511904Y-127225714D01*
X152321428Y-127273333D01*
X152083333Y-127273333D01*
X151892857Y-127225714D01*
X151797619Y-127178095D01*
X151750000Y-127130476D01*
X151702380Y-127035238D01*
X164083333Y-133952380D02*
X163750000Y-133476190D01*
X163511904Y-133952380D02*
X163511904Y-132952380D01*
X163892857Y-132952380D01*
X163988095Y-133000000D01*
X164035714Y-133047619D01*
X164083333Y-133142857D01*
X164083333Y-133285714D01*
X164035714Y-133380952D01*
X163988095Y-133428571D01*
X163892857Y-133476190D01*
X163511904Y-133476190D01*
X164940476Y-132952380D02*
X164750000Y-132952380D01*
X164654761Y-133000000D01*
X164607142Y-133047619D01*
X164511904Y-133190476D01*
X164464285Y-133380952D01*
X164464285Y-133761904D01*
X164511904Y-133857142D01*
X164559523Y-133904761D01*
X164654761Y-133952380D01*
X164845238Y-133952380D01*
X164940476Y-133904761D01*
X164988095Y-133857142D01*
X165035714Y-133761904D01*
X165035714Y-133523809D01*
X164988095Y-133428571D01*
X164940476Y-133380952D01*
X164845238Y-133333333D01*
X164654761Y-133333333D01*
X164559523Y-133380952D01*
X164511904Y-133428571D01*
X164464285Y-133523809D01*
M02*
