G04 #@! TF.GenerationSoftware,KiCad,Pcbnew,(5.1.5)-3*
G04 #@! TF.CreationDate,2020-11-02T17:07:13+01:00*
G04 #@! TF.ProjectId,Heat Controller,48656174-2043-46f6-9e74-726f6c6c6572,rev?*
G04 #@! TF.SameCoordinates,Original*
G04 #@! TF.FileFunction,Soldermask,Bot*
G04 #@! TF.FilePolarity,Negative*
%FSLAX46Y46*%
G04 Gerber Fmt 4.6, Leading zero omitted, Abs format (unit mm)*
G04 Created by KiCad (PCBNEW (5.1.5)-3) date 2020-11-02 17:07:13*
%MOMM*%
%LPD*%
G04 APERTURE LIST*
%ADD10C,0.100000*%
G04 APERTURE END LIST*
D10*
G36*
X146901000Y-134401000D02*
G01*
X144599000Y-134401000D01*
X144599000Y-132099000D01*
X146901000Y-132099000D01*
X146901000Y-134401000D01*
G37*
G36*
X113346189Y-128460483D02*
G01*
X113874137Y-128679166D01*
X113874139Y-128679167D01*
X114349280Y-128996646D01*
X114753354Y-129400720D01*
X114921762Y-129652761D01*
X115070834Y-129875863D01*
X115289517Y-130403811D01*
X115401000Y-130964275D01*
X115401000Y-131535725D01*
X115289517Y-132096189D01*
X115070834Y-132624137D01*
X115070833Y-132624139D01*
X114753354Y-133099280D01*
X114349280Y-133503354D01*
X113874139Y-133820833D01*
X113874138Y-133820834D01*
X113874137Y-133820834D01*
X113346189Y-134039517D01*
X112785725Y-134151000D01*
X112214275Y-134151000D01*
X111653811Y-134039517D01*
X111125863Y-133820834D01*
X111125862Y-133820834D01*
X111125861Y-133820833D01*
X110650720Y-133503354D01*
X110246646Y-133099280D01*
X109929167Y-132624139D01*
X109929166Y-132624137D01*
X109710483Y-132096189D01*
X109599000Y-131535725D01*
X109599000Y-130964275D01*
X109710483Y-130403811D01*
X109929166Y-129875863D01*
X110078238Y-129652761D01*
X110246646Y-129400720D01*
X110650720Y-128996646D01*
X111125861Y-128679167D01*
X111125863Y-128679166D01*
X111653811Y-128460483D01*
X112214275Y-128349000D01*
X112785725Y-128349000D01*
X113346189Y-128460483D01*
G37*
G36*
X175737395Y-131585546D02*
G01*
X175910466Y-131657234D01*
X175923862Y-131666185D01*
X176066227Y-131761310D01*
X176198690Y-131893773D01*
X176198691Y-131893775D01*
X176302766Y-132049534D01*
X176374454Y-132222605D01*
X176411000Y-132406333D01*
X176411000Y-132593667D01*
X176374454Y-132777395D01*
X176302766Y-132950466D01*
X176302765Y-132950467D01*
X176198690Y-133106227D01*
X176066227Y-133238690D01*
X175987818Y-133291081D01*
X175910466Y-133342766D01*
X175737395Y-133414454D01*
X175553667Y-133451000D01*
X175366333Y-133451000D01*
X175182605Y-133414454D01*
X175009534Y-133342766D01*
X174932182Y-133291081D01*
X174853773Y-133238690D01*
X174721310Y-133106227D01*
X174617235Y-132950467D01*
X174617234Y-132950466D01*
X174545546Y-132777395D01*
X174509000Y-132593667D01*
X174509000Y-132406333D01*
X174545546Y-132222605D01*
X174617234Y-132049534D01*
X174721309Y-131893775D01*
X174721310Y-131893773D01*
X174853773Y-131761310D01*
X174996138Y-131666185D01*
X175009534Y-131657234D01*
X175182605Y-131585546D01*
X175366333Y-131549000D01*
X175553667Y-131549000D01*
X175737395Y-131585546D01*
G37*
G36*
X178951000Y-133451000D02*
G01*
X177049000Y-133451000D01*
X177049000Y-131549000D01*
X178951000Y-131549000D01*
X178951000Y-133451000D01*
G37*
G36*
X172401000Y-132901000D02*
G01*
X170599000Y-132901000D01*
X170599000Y-131099000D01*
X172401000Y-131099000D01*
X172401000Y-132901000D01*
G37*
G36*
X158498228Y-130931703D02*
G01*
X158653100Y-130995853D01*
X158792481Y-131088985D01*
X158911015Y-131207519D01*
X159004147Y-131346900D01*
X159068297Y-131501772D01*
X159101000Y-131666184D01*
X159101000Y-131833816D01*
X159068297Y-131998228D01*
X159004147Y-132153100D01*
X158911015Y-132292481D01*
X158792481Y-132411015D01*
X158653100Y-132504147D01*
X158498228Y-132568297D01*
X158333816Y-132601000D01*
X158166184Y-132601000D01*
X158001772Y-132568297D01*
X157846900Y-132504147D01*
X157707519Y-132411015D01*
X157588985Y-132292481D01*
X157495853Y-132153100D01*
X157431703Y-131998228D01*
X157399000Y-131833816D01*
X157399000Y-131666184D01*
X157431703Y-131501772D01*
X157495853Y-131346900D01*
X157588985Y-131207519D01*
X157707519Y-131088985D01*
X157846900Y-130995853D01*
X158001772Y-130931703D01*
X158166184Y-130899000D01*
X158333816Y-130899000D01*
X158498228Y-130931703D01*
G37*
G36*
X161498228Y-130931703D02*
G01*
X161653100Y-130995853D01*
X161792481Y-131088985D01*
X161911015Y-131207519D01*
X162004147Y-131346900D01*
X162068297Y-131501772D01*
X162101000Y-131666184D01*
X162101000Y-131833816D01*
X162068297Y-131998228D01*
X162004147Y-132153100D01*
X161911015Y-132292481D01*
X161792481Y-132411015D01*
X161653100Y-132504147D01*
X161498228Y-132568297D01*
X161333816Y-132601000D01*
X161166184Y-132601000D01*
X161001772Y-132568297D01*
X160846900Y-132504147D01*
X160707519Y-132411015D01*
X160588985Y-132292481D01*
X160495853Y-132153100D01*
X160431703Y-131998228D01*
X160399000Y-131833816D01*
X160399000Y-131666184D01*
X160431703Y-131501772D01*
X160495853Y-131346900D01*
X160588985Y-131207519D01*
X160707519Y-131088985D01*
X160846900Y-130995853D01*
X161001772Y-130931703D01*
X161166184Y-130899000D01*
X161333816Y-130899000D01*
X161498228Y-130931703D01*
G37*
G36*
X155498228Y-130931703D02*
G01*
X155653100Y-130995853D01*
X155792481Y-131088985D01*
X155911015Y-131207519D01*
X156004147Y-131346900D01*
X156068297Y-131501772D01*
X156101000Y-131666184D01*
X156101000Y-131833816D01*
X156068297Y-131998228D01*
X156004147Y-132153100D01*
X155911015Y-132292481D01*
X155792481Y-132411015D01*
X155653100Y-132504147D01*
X155498228Y-132568297D01*
X155333816Y-132601000D01*
X155166184Y-132601000D01*
X155001772Y-132568297D01*
X154846900Y-132504147D01*
X154707519Y-132411015D01*
X154588985Y-132292481D01*
X154495853Y-132153100D01*
X154431703Y-131998228D01*
X154399000Y-131833816D01*
X154399000Y-131666184D01*
X154431703Y-131501772D01*
X154495853Y-131346900D01*
X154588985Y-131207519D01*
X154707519Y-131088985D01*
X154846900Y-130995853D01*
X155001772Y-130931703D01*
X155166184Y-130899000D01*
X155333816Y-130899000D01*
X155498228Y-130931703D01*
G37*
G36*
X149498228Y-130931703D02*
G01*
X149653100Y-130995853D01*
X149792481Y-131088985D01*
X149911015Y-131207519D01*
X150004147Y-131346900D01*
X150068297Y-131501772D01*
X150101000Y-131666184D01*
X150101000Y-131833816D01*
X150068297Y-131998228D01*
X150004147Y-132153100D01*
X149911015Y-132292481D01*
X149792481Y-132411015D01*
X149653100Y-132504147D01*
X149498228Y-132568297D01*
X149333816Y-132601000D01*
X149166184Y-132601000D01*
X149001772Y-132568297D01*
X148846900Y-132504147D01*
X148707519Y-132411015D01*
X148588985Y-132292481D01*
X148495853Y-132153100D01*
X148431703Y-131998228D01*
X148399000Y-131833816D01*
X148399000Y-131666184D01*
X148431703Y-131501772D01*
X148495853Y-131346900D01*
X148588985Y-131207519D01*
X148707519Y-131088985D01*
X148846900Y-130995853D01*
X149001772Y-130931703D01*
X149166184Y-130899000D01*
X149333816Y-130899000D01*
X149498228Y-130931703D01*
G37*
G36*
X152498228Y-130931703D02*
G01*
X152653100Y-130995853D01*
X152792481Y-131088985D01*
X152911015Y-131207519D01*
X153004147Y-131346900D01*
X153068297Y-131501772D01*
X153101000Y-131666184D01*
X153101000Y-131833816D01*
X153068297Y-131998228D01*
X153004147Y-132153100D01*
X152911015Y-132292481D01*
X152792481Y-132411015D01*
X152653100Y-132504147D01*
X152498228Y-132568297D01*
X152333816Y-132601000D01*
X152166184Y-132601000D01*
X152001772Y-132568297D01*
X151846900Y-132504147D01*
X151707519Y-132411015D01*
X151588985Y-132292481D01*
X151495853Y-132153100D01*
X151431703Y-131998228D01*
X151399000Y-131833816D01*
X151399000Y-131666184D01*
X151431703Y-131501772D01*
X151495853Y-131346900D01*
X151588985Y-131207519D01*
X151707519Y-131088985D01*
X151846900Y-130995853D01*
X152001772Y-130931703D01*
X152166184Y-130899000D01*
X152333816Y-130899000D01*
X152498228Y-130931703D01*
G37*
G36*
X164498228Y-130931703D02*
G01*
X164653100Y-130995853D01*
X164792481Y-131088985D01*
X164911015Y-131207519D01*
X165004147Y-131346900D01*
X165068297Y-131501772D01*
X165101000Y-131666184D01*
X165101000Y-131833816D01*
X165068297Y-131998228D01*
X165004147Y-132153100D01*
X164911015Y-132292481D01*
X164792481Y-132411015D01*
X164653100Y-132504147D01*
X164498228Y-132568297D01*
X164333816Y-132601000D01*
X164166184Y-132601000D01*
X164001772Y-132568297D01*
X163846900Y-132504147D01*
X163707519Y-132411015D01*
X163588985Y-132292481D01*
X163495853Y-132153100D01*
X163431703Y-131998228D01*
X163399000Y-131833816D01*
X163399000Y-131666184D01*
X163431703Y-131501772D01*
X163495853Y-131346900D01*
X163588985Y-131207519D01*
X163707519Y-131088985D01*
X163846900Y-130995853D01*
X164001772Y-130931703D01*
X164166184Y-130899000D01*
X164333816Y-130899000D01*
X164498228Y-130931703D01*
G37*
G36*
X129802585Y-127978802D02*
G01*
X129952410Y-128008604D01*
X130234674Y-128125521D01*
X130488705Y-128295259D01*
X130704741Y-128511295D01*
X130874479Y-128765326D01*
X130991396Y-129047590D01*
X131051000Y-129347240D01*
X131051000Y-129652760D01*
X130991396Y-129952410D01*
X130874479Y-130234674D01*
X130704741Y-130488705D01*
X130488705Y-130704741D01*
X130234674Y-130874479D01*
X129952410Y-130991396D01*
X129802585Y-131021198D01*
X129652761Y-131051000D01*
X129347239Y-131051000D01*
X129197415Y-131021198D01*
X129047590Y-130991396D01*
X128765326Y-130874479D01*
X128511295Y-130704741D01*
X128295259Y-130488705D01*
X128125521Y-130234674D01*
X128008604Y-129952410D01*
X127949000Y-129652760D01*
X127949000Y-129347240D01*
X128008604Y-129047590D01*
X128125521Y-128765326D01*
X128295259Y-128511295D01*
X128511295Y-128295259D01*
X128765326Y-128125521D01*
X129047590Y-128008604D01*
X129197415Y-127978802D01*
X129347239Y-127949000D01*
X129652761Y-127949000D01*
X129802585Y-127978802D01*
G37*
G36*
X139198903Y-126243213D02*
G01*
X139421177Y-126287426D01*
X139839932Y-126460880D01*
X140216802Y-126712696D01*
X140537304Y-127033198D01*
X140789120Y-127410068D01*
X140962574Y-127828823D01*
X141051000Y-128273371D01*
X141051000Y-128726629D01*
X140962574Y-129171177D01*
X140789120Y-129589932D01*
X140537304Y-129966802D01*
X140216802Y-130287304D01*
X139839932Y-130539120D01*
X139421177Y-130712574D01*
X139198903Y-130756787D01*
X138976630Y-130801000D01*
X138523370Y-130801000D01*
X138301097Y-130756787D01*
X138078823Y-130712574D01*
X137660068Y-130539120D01*
X137283198Y-130287304D01*
X136962696Y-129966802D01*
X136710880Y-129589932D01*
X136537426Y-129171177D01*
X136449000Y-128726629D01*
X136449000Y-128273371D01*
X136537426Y-127828823D01*
X136710880Y-127410068D01*
X136962696Y-127033198D01*
X137283198Y-126712696D01*
X137660068Y-126460880D01*
X138078823Y-126287426D01*
X138301097Y-126243213D01*
X138523370Y-126199000D01*
X138976630Y-126199000D01*
X139198903Y-126243213D01*
G37*
G36*
X171613512Y-128563927D02*
G01*
X171762812Y-128593624D01*
X171926784Y-128661544D01*
X172074354Y-128760147D01*
X172199853Y-128885646D01*
X172298456Y-129033216D01*
X172366376Y-129197188D01*
X172401000Y-129371259D01*
X172401000Y-129548741D01*
X172366376Y-129722812D01*
X172298456Y-129886784D01*
X172199853Y-130034354D01*
X172074354Y-130159853D01*
X171926784Y-130258456D01*
X171762812Y-130326376D01*
X171613512Y-130356073D01*
X171588742Y-130361000D01*
X171411258Y-130361000D01*
X171386488Y-130356073D01*
X171237188Y-130326376D01*
X171073216Y-130258456D01*
X170925646Y-130159853D01*
X170800147Y-130034354D01*
X170701544Y-129886784D01*
X170633624Y-129722812D01*
X170599000Y-129548741D01*
X170599000Y-129371259D01*
X170633624Y-129197188D01*
X170701544Y-129033216D01*
X170800147Y-128885646D01*
X170925646Y-128760147D01*
X171073216Y-128661544D01*
X171237188Y-128593624D01*
X171386488Y-128563927D01*
X171411258Y-128559000D01*
X171588742Y-128559000D01*
X171613512Y-128563927D01*
G37*
G36*
X178951000Y-128951000D02*
G01*
X177049000Y-128951000D01*
X177049000Y-127049000D01*
X178951000Y-127049000D01*
X178951000Y-128951000D01*
G37*
G36*
X175737395Y-127085546D02*
G01*
X175910466Y-127157234D01*
X175948746Y-127182812D01*
X176066227Y-127261310D01*
X176198690Y-127393773D01*
X176198691Y-127393775D01*
X176302766Y-127549534D01*
X176374454Y-127722605D01*
X176411000Y-127906333D01*
X176411000Y-128093667D01*
X176374454Y-128277395D01*
X176302766Y-128450466D01*
X176302765Y-128450467D01*
X176198690Y-128606227D01*
X176066227Y-128738690D01*
X176026363Y-128765326D01*
X175910466Y-128842766D01*
X175737395Y-128914454D01*
X175553667Y-128951000D01*
X175366333Y-128951000D01*
X175182605Y-128914454D01*
X175009534Y-128842766D01*
X174893637Y-128765326D01*
X174853773Y-128738690D01*
X174721310Y-128606227D01*
X174617235Y-128450467D01*
X174617234Y-128450466D01*
X174545546Y-128277395D01*
X174509000Y-128093667D01*
X174509000Y-127906333D01*
X174545546Y-127722605D01*
X174617234Y-127549534D01*
X174721309Y-127393775D01*
X174721310Y-127393773D01*
X174853773Y-127261310D01*
X174971254Y-127182812D01*
X175009534Y-127157234D01*
X175182605Y-127085546D01*
X175366333Y-127049000D01*
X175553667Y-127049000D01*
X175737395Y-127085546D01*
G37*
G36*
X171613512Y-126023927D02*
G01*
X171762812Y-126053624D01*
X171926784Y-126121544D01*
X172074354Y-126220147D01*
X172199853Y-126345646D01*
X172298456Y-126493216D01*
X172366376Y-126657188D01*
X172401000Y-126831259D01*
X172401000Y-127008741D01*
X172366376Y-127182812D01*
X172298456Y-127346784D01*
X172199853Y-127494354D01*
X172074354Y-127619853D01*
X171926784Y-127718456D01*
X171762812Y-127786376D01*
X171613512Y-127816073D01*
X171588742Y-127821000D01*
X171411258Y-127821000D01*
X171386488Y-127816073D01*
X171237188Y-127786376D01*
X171073216Y-127718456D01*
X170925646Y-127619853D01*
X170800147Y-127494354D01*
X170701544Y-127346784D01*
X170633624Y-127182812D01*
X170599000Y-127008741D01*
X170599000Y-126831259D01*
X170633624Y-126657188D01*
X170701544Y-126493216D01*
X170800147Y-126345646D01*
X170925646Y-126220147D01*
X171073216Y-126121544D01*
X171237188Y-126053624D01*
X171386488Y-126023927D01*
X171411258Y-126019000D01*
X171588742Y-126019000D01*
X171613512Y-126023927D01*
G37*
G36*
X171613512Y-123483927D02*
G01*
X171762812Y-123513624D01*
X171926784Y-123581544D01*
X172074354Y-123680147D01*
X172199853Y-123805646D01*
X172298456Y-123953216D01*
X172366376Y-124117188D01*
X172401000Y-124291259D01*
X172401000Y-124468741D01*
X172366376Y-124642812D01*
X172298456Y-124806784D01*
X172199853Y-124954354D01*
X172074354Y-125079853D01*
X171926784Y-125178456D01*
X171762812Y-125246376D01*
X171613512Y-125276073D01*
X171588742Y-125281000D01*
X171411258Y-125281000D01*
X171386488Y-125276073D01*
X171237188Y-125246376D01*
X171073216Y-125178456D01*
X170925646Y-125079853D01*
X170800147Y-124954354D01*
X170701544Y-124806784D01*
X170633624Y-124642812D01*
X170599000Y-124468741D01*
X170599000Y-124291259D01*
X170633624Y-124117188D01*
X170701544Y-123953216D01*
X170800147Y-123805646D01*
X170925646Y-123680147D01*
X171073216Y-123581544D01*
X171237188Y-123513624D01*
X171386488Y-123483927D01*
X171411258Y-123479000D01*
X171588742Y-123479000D01*
X171613512Y-123483927D01*
G37*
G36*
X164498228Y-123311703D02*
G01*
X164653100Y-123375853D01*
X164792481Y-123468985D01*
X164911015Y-123587519D01*
X165004147Y-123726900D01*
X165068297Y-123881772D01*
X165101000Y-124046184D01*
X165101000Y-124213816D01*
X165068297Y-124378228D01*
X165004147Y-124533100D01*
X164911015Y-124672481D01*
X164792481Y-124791015D01*
X164653100Y-124884147D01*
X164498228Y-124948297D01*
X164333816Y-124981000D01*
X164166184Y-124981000D01*
X164001772Y-124948297D01*
X163846900Y-124884147D01*
X163707519Y-124791015D01*
X163588985Y-124672481D01*
X163495853Y-124533100D01*
X163431703Y-124378228D01*
X163399000Y-124213816D01*
X163399000Y-124046184D01*
X163431703Y-123881772D01*
X163495853Y-123726900D01*
X163588985Y-123587519D01*
X163707519Y-123468985D01*
X163846900Y-123375853D01*
X164001772Y-123311703D01*
X164166184Y-123279000D01*
X164333816Y-123279000D01*
X164498228Y-123311703D01*
G37*
G36*
X161498228Y-123311703D02*
G01*
X161653100Y-123375853D01*
X161792481Y-123468985D01*
X161911015Y-123587519D01*
X162004147Y-123726900D01*
X162068297Y-123881772D01*
X162101000Y-124046184D01*
X162101000Y-124213816D01*
X162068297Y-124378228D01*
X162004147Y-124533100D01*
X161911015Y-124672481D01*
X161792481Y-124791015D01*
X161653100Y-124884147D01*
X161498228Y-124948297D01*
X161333816Y-124981000D01*
X161166184Y-124981000D01*
X161001772Y-124948297D01*
X160846900Y-124884147D01*
X160707519Y-124791015D01*
X160588985Y-124672481D01*
X160495853Y-124533100D01*
X160431703Y-124378228D01*
X160399000Y-124213816D01*
X160399000Y-124046184D01*
X160431703Y-123881772D01*
X160495853Y-123726900D01*
X160588985Y-123587519D01*
X160707519Y-123468985D01*
X160846900Y-123375853D01*
X161001772Y-123311703D01*
X161166184Y-123279000D01*
X161333816Y-123279000D01*
X161498228Y-123311703D01*
G37*
G36*
X155498228Y-123311703D02*
G01*
X155653100Y-123375853D01*
X155792481Y-123468985D01*
X155911015Y-123587519D01*
X156004147Y-123726900D01*
X156068297Y-123881772D01*
X156101000Y-124046184D01*
X156101000Y-124213816D01*
X156068297Y-124378228D01*
X156004147Y-124533100D01*
X155911015Y-124672481D01*
X155792481Y-124791015D01*
X155653100Y-124884147D01*
X155498228Y-124948297D01*
X155333816Y-124981000D01*
X155166184Y-124981000D01*
X155001772Y-124948297D01*
X154846900Y-124884147D01*
X154707519Y-124791015D01*
X154588985Y-124672481D01*
X154495853Y-124533100D01*
X154431703Y-124378228D01*
X154399000Y-124213816D01*
X154399000Y-124046184D01*
X154431703Y-123881772D01*
X154495853Y-123726900D01*
X154588985Y-123587519D01*
X154707519Y-123468985D01*
X154846900Y-123375853D01*
X155001772Y-123311703D01*
X155166184Y-123279000D01*
X155333816Y-123279000D01*
X155498228Y-123311703D01*
G37*
G36*
X152498228Y-123311703D02*
G01*
X152653100Y-123375853D01*
X152792481Y-123468985D01*
X152911015Y-123587519D01*
X153004147Y-123726900D01*
X153068297Y-123881772D01*
X153101000Y-124046184D01*
X153101000Y-124213816D01*
X153068297Y-124378228D01*
X153004147Y-124533100D01*
X152911015Y-124672481D01*
X152792481Y-124791015D01*
X152653100Y-124884147D01*
X152498228Y-124948297D01*
X152333816Y-124981000D01*
X152166184Y-124981000D01*
X152001772Y-124948297D01*
X151846900Y-124884147D01*
X151707519Y-124791015D01*
X151588985Y-124672481D01*
X151495853Y-124533100D01*
X151431703Y-124378228D01*
X151399000Y-124213816D01*
X151399000Y-124046184D01*
X151431703Y-123881772D01*
X151495853Y-123726900D01*
X151588985Y-123587519D01*
X151707519Y-123468985D01*
X151846900Y-123375853D01*
X152001772Y-123311703D01*
X152166184Y-123279000D01*
X152333816Y-123279000D01*
X152498228Y-123311703D01*
G37*
G36*
X149498228Y-123311703D02*
G01*
X149653100Y-123375853D01*
X149792481Y-123468985D01*
X149911015Y-123587519D01*
X150004147Y-123726900D01*
X150068297Y-123881772D01*
X150101000Y-124046184D01*
X150101000Y-124213816D01*
X150068297Y-124378228D01*
X150004147Y-124533100D01*
X149911015Y-124672481D01*
X149792481Y-124791015D01*
X149653100Y-124884147D01*
X149498228Y-124948297D01*
X149333816Y-124981000D01*
X149166184Y-124981000D01*
X149001772Y-124948297D01*
X148846900Y-124884147D01*
X148707519Y-124791015D01*
X148588985Y-124672481D01*
X148495853Y-124533100D01*
X148431703Y-124378228D01*
X148399000Y-124213816D01*
X148399000Y-124046184D01*
X148431703Y-123881772D01*
X148495853Y-123726900D01*
X148588985Y-123587519D01*
X148707519Y-123468985D01*
X148846900Y-123375853D01*
X149001772Y-123311703D01*
X149166184Y-123279000D01*
X149333816Y-123279000D01*
X149498228Y-123311703D01*
G37*
G36*
X158498228Y-123311703D02*
G01*
X158653100Y-123375853D01*
X158792481Y-123468985D01*
X158911015Y-123587519D01*
X159004147Y-123726900D01*
X159068297Y-123881772D01*
X159101000Y-124046184D01*
X159101000Y-124213816D01*
X159068297Y-124378228D01*
X159004147Y-124533100D01*
X158911015Y-124672481D01*
X158792481Y-124791015D01*
X158653100Y-124884147D01*
X158498228Y-124948297D01*
X158333816Y-124981000D01*
X158166184Y-124981000D01*
X158001772Y-124948297D01*
X157846900Y-124884147D01*
X157707519Y-124791015D01*
X157588985Y-124672481D01*
X157495853Y-124533100D01*
X157431703Y-124378228D01*
X157399000Y-124213816D01*
X157399000Y-124046184D01*
X157431703Y-123881772D01*
X157495853Y-123726900D01*
X157588985Y-123587519D01*
X157707519Y-123468985D01*
X157846900Y-123375853D01*
X158001772Y-123311703D01*
X158166184Y-123279000D01*
X158333816Y-123279000D01*
X158498228Y-123311703D01*
G37*
G36*
X178951000Y-124451000D02*
G01*
X177049000Y-124451000D01*
X177049000Y-122549000D01*
X178951000Y-122549000D01*
X178951000Y-124451000D01*
G37*
G36*
X175737395Y-122585546D02*
G01*
X175910466Y-122657234D01*
X175910467Y-122657235D01*
X176066227Y-122761310D01*
X176198690Y-122893773D01*
X176198691Y-122893775D01*
X176302766Y-123049534D01*
X176374454Y-123222605D01*
X176411000Y-123406333D01*
X176411000Y-123593667D01*
X176374454Y-123777395D01*
X176302766Y-123950466D01*
X176251081Y-124027818D01*
X176198690Y-124106227D01*
X176066227Y-124238690D01*
X175987818Y-124291081D01*
X175910466Y-124342766D01*
X175737395Y-124414454D01*
X175553667Y-124451000D01*
X175366333Y-124451000D01*
X175182605Y-124414454D01*
X175009534Y-124342766D01*
X174932182Y-124291081D01*
X174853773Y-124238690D01*
X174721310Y-124106227D01*
X174668919Y-124027818D01*
X174617234Y-123950466D01*
X174545546Y-123777395D01*
X174509000Y-123593667D01*
X174509000Y-123406333D01*
X174545546Y-123222605D01*
X174617234Y-123049534D01*
X174721309Y-122893775D01*
X174721310Y-122893773D01*
X174853773Y-122761310D01*
X175009533Y-122657235D01*
X175009534Y-122657234D01*
X175182605Y-122585546D01*
X175366333Y-122549000D01*
X175553667Y-122549000D01*
X175737395Y-122585546D01*
G37*
G36*
X145974549Y-121961116D02*
G01*
X146085734Y-121983232D01*
X146295203Y-122069997D01*
X146483720Y-122195960D01*
X146644040Y-122356280D01*
X146770003Y-122544797D01*
X146856768Y-122754266D01*
X146901000Y-122976636D01*
X146901000Y-123203364D01*
X146856768Y-123425734D01*
X146770003Y-123635203D01*
X146644040Y-123823720D01*
X146483720Y-123984040D01*
X146295203Y-124110003D01*
X146295202Y-124110004D01*
X146295201Y-124110004D01*
X146233850Y-124135416D01*
X146085734Y-124196768D01*
X145974549Y-124218884D01*
X145863365Y-124241000D01*
X145636635Y-124241000D01*
X145525451Y-124218884D01*
X145414266Y-124196768D01*
X145266150Y-124135416D01*
X145204799Y-124110004D01*
X145204798Y-124110004D01*
X145204797Y-124110003D01*
X145016280Y-123984040D01*
X144855960Y-123823720D01*
X144729997Y-123635203D01*
X144643232Y-123425734D01*
X144599000Y-123203364D01*
X144599000Y-122976636D01*
X144643232Y-122754266D01*
X144729997Y-122544797D01*
X144855960Y-122356280D01*
X145016280Y-122195960D01*
X145204797Y-122069997D01*
X145414266Y-121983232D01*
X145525451Y-121961116D01*
X145636635Y-121939000D01*
X145863365Y-121939000D01*
X145974549Y-121961116D01*
G37*
G36*
X129726280Y-117963624D02*
G01*
X129952410Y-118008604D01*
X130234674Y-118125521D01*
X130488705Y-118295259D01*
X130704741Y-118511295D01*
X130874479Y-118765326D01*
X130991396Y-119047590D01*
X131000391Y-119092811D01*
X131051000Y-119347239D01*
X131051000Y-119652761D01*
X131042324Y-119696376D01*
X130991396Y-119952410D01*
X130874479Y-120234674D01*
X130704741Y-120488705D01*
X130488705Y-120704741D01*
X130234674Y-120874479D01*
X129952410Y-120991396D01*
X129802585Y-121021198D01*
X129652761Y-121051000D01*
X129347239Y-121051000D01*
X129197415Y-121021198D01*
X129047590Y-120991396D01*
X128765326Y-120874479D01*
X128511295Y-120704741D01*
X128295259Y-120488705D01*
X128125521Y-120234674D01*
X128008604Y-119952410D01*
X127957676Y-119696376D01*
X127949000Y-119652761D01*
X127949000Y-119347239D01*
X127999609Y-119092811D01*
X128008604Y-119047590D01*
X128125521Y-118765326D01*
X128295259Y-118511295D01*
X128511295Y-118295259D01*
X128765326Y-118125521D01*
X129047590Y-118008604D01*
X129273720Y-117963624D01*
X129347239Y-117949000D01*
X129652761Y-117949000D01*
X129726280Y-117963624D01*
G37*
G36*
X157498228Y-119196703D02*
G01*
X157653100Y-119260853D01*
X157792481Y-119353985D01*
X157911015Y-119472519D01*
X158004147Y-119611900D01*
X158068297Y-119766772D01*
X158101000Y-119931184D01*
X158101000Y-120098816D01*
X158068297Y-120263228D01*
X158004147Y-120418100D01*
X157911015Y-120557481D01*
X157792481Y-120676015D01*
X157653100Y-120769147D01*
X157498228Y-120833297D01*
X157333816Y-120866000D01*
X157166184Y-120866000D01*
X157001772Y-120833297D01*
X156846900Y-120769147D01*
X156707519Y-120676015D01*
X156588985Y-120557481D01*
X156495853Y-120418100D01*
X156431703Y-120263228D01*
X156399000Y-120098816D01*
X156399000Y-119931184D01*
X156431703Y-119766772D01*
X156495853Y-119611900D01*
X156588985Y-119472519D01*
X156707519Y-119353985D01*
X156846900Y-119260853D01*
X157001772Y-119196703D01*
X157166184Y-119164000D01*
X157333816Y-119164000D01*
X157498228Y-119196703D01*
G37*
G36*
X165118228Y-119196703D02*
G01*
X165273100Y-119260853D01*
X165412481Y-119353985D01*
X165531015Y-119472519D01*
X165624147Y-119611900D01*
X165688297Y-119766772D01*
X165721000Y-119931184D01*
X165721000Y-120098816D01*
X165688297Y-120263228D01*
X165624147Y-120418100D01*
X165531015Y-120557481D01*
X165412481Y-120676015D01*
X165273100Y-120769147D01*
X165118228Y-120833297D01*
X164953816Y-120866000D01*
X164786184Y-120866000D01*
X164621772Y-120833297D01*
X164466900Y-120769147D01*
X164327519Y-120676015D01*
X164208985Y-120557481D01*
X164115853Y-120418100D01*
X164051703Y-120263228D01*
X164019000Y-120098816D01*
X164019000Y-119931184D01*
X164051703Y-119766772D01*
X164115853Y-119611900D01*
X164208985Y-119472519D01*
X164327519Y-119353985D01*
X164466900Y-119260853D01*
X164621772Y-119196703D01*
X164786184Y-119164000D01*
X164953816Y-119164000D01*
X165118228Y-119196703D01*
G37*
G36*
X139602585Y-117478802D02*
G01*
X139752410Y-117508604D01*
X140034674Y-117625521D01*
X140288705Y-117795259D01*
X140504741Y-118011295D01*
X140674479Y-118265326D01*
X140791396Y-118547590D01*
X140851000Y-118847240D01*
X140851000Y-119152760D01*
X140791396Y-119452410D01*
X140674479Y-119734674D01*
X140504741Y-119988705D01*
X140288705Y-120204741D01*
X140034674Y-120374479D01*
X139752410Y-120491396D01*
X139602585Y-120521198D01*
X139452761Y-120551000D01*
X139147239Y-120551000D01*
X138997415Y-120521198D01*
X138847590Y-120491396D01*
X138565326Y-120374479D01*
X138311295Y-120204741D01*
X138095259Y-119988705D01*
X137925521Y-119734674D01*
X137808604Y-119452410D01*
X137749000Y-119152760D01*
X137749000Y-118847240D01*
X137808604Y-118547590D01*
X137925521Y-118265326D01*
X138095259Y-118011295D01*
X138311295Y-117795259D01*
X138565326Y-117625521D01*
X138847590Y-117508604D01*
X138997415Y-117478802D01*
X139147239Y-117449000D01*
X139452761Y-117449000D01*
X139602585Y-117478802D01*
G37*
G36*
X151929487Y-117698996D02*
G01*
X152161888Y-117795260D01*
X152166255Y-117797069D01*
X152379339Y-117939447D01*
X152560553Y-118120661D01*
X152677216Y-118295259D01*
X152702932Y-118333747D01*
X152801004Y-118570513D01*
X152851000Y-118821861D01*
X152851000Y-119078139D01*
X152801004Y-119329487D01*
X152718010Y-119529852D01*
X152702931Y-119566255D01*
X152560553Y-119779339D01*
X152379339Y-119960553D01*
X152166255Y-120102931D01*
X152166254Y-120102932D01*
X152166253Y-120102932D01*
X151929487Y-120201004D01*
X151678139Y-120251000D01*
X151421861Y-120251000D01*
X151170513Y-120201004D01*
X150933747Y-120102932D01*
X150933746Y-120102932D01*
X150933745Y-120102931D01*
X150720661Y-119960553D01*
X150539447Y-119779339D01*
X150397069Y-119566255D01*
X150381990Y-119529852D01*
X150298996Y-119329487D01*
X150249000Y-119078139D01*
X150249000Y-118821861D01*
X150298996Y-118570513D01*
X150397068Y-118333747D01*
X150422785Y-118295259D01*
X150539447Y-118120661D01*
X150720661Y-117939447D01*
X150933745Y-117797069D01*
X150938112Y-117795260D01*
X151170513Y-117698996D01*
X151421861Y-117649000D01*
X151678139Y-117649000D01*
X151929487Y-117698996D01*
G37*
G36*
X168113512Y-117933927D02*
G01*
X168262812Y-117963624D01*
X168426784Y-118031544D01*
X168574354Y-118130147D01*
X168699853Y-118255646D01*
X168798456Y-118403216D01*
X168866376Y-118567188D01*
X168901000Y-118741259D01*
X168901000Y-118918741D01*
X168866376Y-119092812D01*
X168798456Y-119256784D01*
X168699853Y-119404354D01*
X168574354Y-119529853D01*
X168426784Y-119628456D01*
X168262812Y-119696376D01*
X168113512Y-119726073D01*
X168088742Y-119731000D01*
X167911258Y-119731000D01*
X167886488Y-119726073D01*
X167737188Y-119696376D01*
X167573216Y-119628456D01*
X167425646Y-119529853D01*
X167300147Y-119404354D01*
X167201544Y-119256784D01*
X167133624Y-119092812D01*
X167099000Y-118918741D01*
X167099000Y-118741259D01*
X167133624Y-118567188D01*
X167201544Y-118403216D01*
X167300147Y-118255646D01*
X167425646Y-118130147D01*
X167573216Y-118031544D01*
X167737188Y-117963624D01*
X167886488Y-117933927D01*
X167911258Y-117929000D01*
X168088742Y-117929000D01*
X168113512Y-117933927D01*
G37*
G36*
X165118228Y-116656703D02*
G01*
X165273100Y-116720853D01*
X165412481Y-116813985D01*
X165531015Y-116932519D01*
X165624147Y-117071900D01*
X165688297Y-117226772D01*
X165721000Y-117391184D01*
X165721000Y-117558816D01*
X165688297Y-117723228D01*
X165624147Y-117878100D01*
X165531015Y-118017481D01*
X165412481Y-118136015D01*
X165273100Y-118229147D01*
X165118228Y-118293297D01*
X164953816Y-118326000D01*
X164786184Y-118326000D01*
X164621772Y-118293297D01*
X164466900Y-118229147D01*
X164327519Y-118136015D01*
X164208985Y-118017481D01*
X164115853Y-117878100D01*
X164051703Y-117723228D01*
X164019000Y-117558816D01*
X164019000Y-117391184D01*
X164051703Y-117226772D01*
X164115853Y-117071900D01*
X164208985Y-116932519D01*
X164327519Y-116813985D01*
X164466900Y-116720853D01*
X164621772Y-116656703D01*
X164786184Y-116624000D01*
X164953816Y-116624000D01*
X165118228Y-116656703D01*
G37*
G36*
X157498228Y-116656703D02*
G01*
X157653100Y-116720853D01*
X157792481Y-116813985D01*
X157911015Y-116932519D01*
X158004147Y-117071900D01*
X158068297Y-117226772D01*
X158101000Y-117391184D01*
X158101000Y-117558816D01*
X158068297Y-117723228D01*
X158004147Y-117878100D01*
X157911015Y-118017481D01*
X157792481Y-118136015D01*
X157653100Y-118229147D01*
X157498228Y-118293297D01*
X157333816Y-118326000D01*
X157166184Y-118326000D01*
X157001772Y-118293297D01*
X156846900Y-118229147D01*
X156707519Y-118136015D01*
X156588985Y-118017481D01*
X156495853Y-117878100D01*
X156431703Y-117723228D01*
X156399000Y-117558816D01*
X156399000Y-117391184D01*
X156431703Y-117226772D01*
X156495853Y-117071900D01*
X156588985Y-116932519D01*
X156707519Y-116813985D01*
X156846900Y-116720853D01*
X157001772Y-116656703D01*
X157166184Y-116624000D01*
X157333816Y-116624000D01*
X157498228Y-116656703D01*
G37*
G36*
X168113512Y-115393927D02*
G01*
X168262812Y-115423624D01*
X168426784Y-115491544D01*
X168574354Y-115590147D01*
X168699853Y-115715646D01*
X168798456Y-115863216D01*
X168866376Y-116027188D01*
X168901000Y-116201259D01*
X168901000Y-116378741D01*
X168866376Y-116552812D01*
X168798456Y-116716784D01*
X168699853Y-116864354D01*
X168574354Y-116989853D01*
X168426784Y-117088456D01*
X168262812Y-117156376D01*
X168113512Y-117186073D01*
X168088742Y-117191000D01*
X167911258Y-117191000D01*
X167886488Y-117186073D01*
X167737188Y-117156376D01*
X167573216Y-117088456D01*
X167425646Y-116989853D01*
X167300147Y-116864354D01*
X167201544Y-116716784D01*
X167133624Y-116552812D01*
X167099000Y-116378741D01*
X167099000Y-116201259D01*
X167133624Y-116027188D01*
X167201544Y-115863216D01*
X167300147Y-115715646D01*
X167425646Y-115590147D01*
X167573216Y-115491544D01*
X167737188Y-115423624D01*
X167886488Y-115393927D01*
X167911258Y-115389000D01*
X168088742Y-115389000D01*
X168113512Y-115393927D01*
G37*
G36*
X165118228Y-114116703D02*
G01*
X165273100Y-114180853D01*
X165412481Y-114273985D01*
X165531015Y-114392519D01*
X165624147Y-114531900D01*
X165688297Y-114686772D01*
X165721000Y-114851184D01*
X165721000Y-115018816D01*
X165688297Y-115183228D01*
X165624147Y-115338100D01*
X165531015Y-115477481D01*
X165412481Y-115596015D01*
X165273100Y-115689147D01*
X165118228Y-115753297D01*
X164953816Y-115786000D01*
X164786184Y-115786000D01*
X164621772Y-115753297D01*
X164466900Y-115689147D01*
X164327519Y-115596015D01*
X164208985Y-115477481D01*
X164115853Y-115338100D01*
X164051703Y-115183228D01*
X164019000Y-115018816D01*
X164019000Y-114851184D01*
X164051703Y-114686772D01*
X164115853Y-114531900D01*
X164208985Y-114392519D01*
X164327519Y-114273985D01*
X164466900Y-114180853D01*
X164621772Y-114116703D01*
X164786184Y-114084000D01*
X164953816Y-114084000D01*
X165118228Y-114116703D01*
G37*
G36*
X157498228Y-114116703D02*
G01*
X157653100Y-114180853D01*
X157792481Y-114273985D01*
X157911015Y-114392519D01*
X158004147Y-114531900D01*
X158068297Y-114686772D01*
X158101000Y-114851184D01*
X158101000Y-115018816D01*
X158068297Y-115183228D01*
X158004147Y-115338100D01*
X157911015Y-115477481D01*
X157792481Y-115596015D01*
X157653100Y-115689147D01*
X157498228Y-115753297D01*
X157333816Y-115786000D01*
X157166184Y-115786000D01*
X157001772Y-115753297D01*
X156846900Y-115689147D01*
X156707519Y-115596015D01*
X156588985Y-115477481D01*
X156495853Y-115338100D01*
X156431703Y-115183228D01*
X156399000Y-115018816D01*
X156399000Y-114851184D01*
X156431703Y-114686772D01*
X156495853Y-114531900D01*
X156588985Y-114392519D01*
X156707519Y-114273985D01*
X156846900Y-114180853D01*
X157001772Y-114116703D01*
X157166184Y-114084000D01*
X157333816Y-114084000D01*
X157498228Y-114116703D01*
G37*
G36*
X168901000Y-114651000D02*
G01*
X167099000Y-114651000D01*
X167099000Y-112849000D01*
X168901000Y-112849000D01*
X168901000Y-114651000D01*
G37*
G36*
X153802585Y-111478802D02*
G01*
X153952410Y-111508604D01*
X154234674Y-111625521D01*
X154488705Y-111795259D01*
X154704741Y-112011295D01*
X154874479Y-112265326D01*
X154991396Y-112547590D01*
X155010420Y-112643229D01*
X155051000Y-112847239D01*
X155051000Y-113152761D01*
X155021198Y-113302585D01*
X154991396Y-113452410D01*
X154874479Y-113734674D01*
X154704741Y-113988705D01*
X154488705Y-114204741D01*
X154234674Y-114374479D01*
X153952410Y-114491396D01*
X153802585Y-114521198D01*
X153652761Y-114551000D01*
X153347239Y-114551000D01*
X153197415Y-114521198D01*
X153047590Y-114491396D01*
X152765326Y-114374479D01*
X152511295Y-114204741D01*
X152295259Y-113988705D01*
X152125521Y-113734674D01*
X152008604Y-113452410D01*
X151978802Y-113302585D01*
X151949000Y-113152761D01*
X151949000Y-112847239D01*
X151989580Y-112643229D01*
X152008604Y-112547590D01*
X152125521Y-112265326D01*
X152295259Y-112011295D01*
X152511295Y-111795259D01*
X152765326Y-111625521D01*
X153047590Y-111508604D01*
X153197415Y-111478802D01*
X153347239Y-111449000D01*
X153652761Y-111449000D01*
X153802585Y-111478802D01*
G37*
G36*
X165118228Y-111576703D02*
G01*
X165273100Y-111640853D01*
X165412481Y-111733985D01*
X165531015Y-111852519D01*
X165624147Y-111991900D01*
X165688297Y-112146772D01*
X165721000Y-112311184D01*
X165721000Y-112478816D01*
X165688297Y-112643228D01*
X165624147Y-112798100D01*
X165531015Y-112937481D01*
X165412481Y-113056015D01*
X165273100Y-113149147D01*
X165118228Y-113213297D01*
X164953816Y-113246000D01*
X164786184Y-113246000D01*
X164621772Y-113213297D01*
X164466900Y-113149147D01*
X164327519Y-113056015D01*
X164208985Y-112937481D01*
X164115853Y-112798100D01*
X164051703Y-112643228D01*
X164019000Y-112478816D01*
X164019000Y-112311184D01*
X164051703Y-112146772D01*
X164115853Y-111991900D01*
X164208985Y-111852519D01*
X164327519Y-111733985D01*
X164466900Y-111640853D01*
X164621772Y-111576703D01*
X164786184Y-111544000D01*
X164953816Y-111544000D01*
X165118228Y-111576703D01*
G37*
G36*
X158101000Y-113246000D02*
G01*
X156399000Y-113246000D01*
X156399000Y-111544000D01*
X158101000Y-111544000D01*
X158101000Y-113246000D01*
G37*
G36*
X178137916Y-107382334D02*
G01*
X178246492Y-107415271D01*
X178246495Y-107415272D01*
X178271850Y-107428825D01*
X178346557Y-107468756D01*
X178434264Y-107540736D01*
X178506244Y-107628443D01*
X178540429Y-107692399D01*
X178559728Y-107728505D01*
X178559729Y-107728508D01*
X178592666Y-107837084D01*
X178603787Y-107950000D01*
X178592666Y-108062916D01*
X178564810Y-108154741D01*
X178559728Y-108171495D01*
X178554083Y-108182056D01*
X178506244Y-108271557D01*
X178434264Y-108359264D01*
X178346557Y-108431244D01*
X178265141Y-108474761D01*
X178244766Y-108488375D01*
X178227439Y-108505702D01*
X178213826Y-108526076D01*
X178204448Y-108548715D01*
X178199668Y-108572748D01*
X178199668Y-108597252D01*
X178204448Y-108621285D01*
X178213826Y-108643924D01*
X178227440Y-108664299D01*
X178244767Y-108681626D01*
X178265141Y-108695239D01*
X178346557Y-108738756D01*
X178434264Y-108810736D01*
X178506244Y-108898443D01*
X178540429Y-108962399D01*
X178559728Y-108998505D01*
X178559729Y-108998508D01*
X178592666Y-109107084D01*
X178603787Y-109220000D01*
X178592666Y-109332916D01*
X178568342Y-109413098D01*
X178559728Y-109441495D01*
X178540429Y-109477601D01*
X178506244Y-109541557D01*
X178434264Y-109629264D01*
X178357354Y-109692383D01*
X178340035Y-109709702D01*
X178326421Y-109730077D01*
X178317043Y-109752716D01*
X178312263Y-109776749D01*
X178312263Y-109801253D01*
X178317043Y-109825286D01*
X178326421Y-109847925D01*
X178340034Y-109868299D01*
X178357361Y-109885626D01*
X178377736Y-109899240D01*
X178400375Y-109908618D01*
X178424408Y-109913398D01*
X178436660Y-109914000D01*
X178601000Y-109914000D01*
X178601000Y-111066000D01*
X176999000Y-111066000D01*
X176999000Y-109914000D01*
X177163340Y-109914000D01*
X177187726Y-109911598D01*
X177211175Y-109904485D01*
X177232786Y-109892934D01*
X177251728Y-109877389D01*
X177267273Y-109858447D01*
X177278824Y-109836836D01*
X177285937Y-109813387D01*
X177288339Y-109789001D01*
X177285937Y-109764615D01*
X177278824Y-109741166D01*
X177267273Y-109719555D01*
X177251728Y-109700613D01*
X177242655Y-109692391D01*
X177165736Y-109629264D01*
X177093756Y-109541557D01*
X177059571Y-109477601D01*
X177040272Y-109441495D01*
X177031658Y-109413098D01*
X177007334Y-109332916D01*
X176996213Y-109220000D01*
X177007334Y-109107084D01*
X177040271Y-108998508D01*
X177040272Y-108998505D01*
X177059571Y-108962399D01*
X177093756Y-108898443D01*
X177165736Y-108810736D01*
X177253443Y-108738756D01*
X177334859Y-108695239D01*
X177355234Y-108681625D01*
X177372561Y-108664298D01*
X177386174Y-108643924D01*
X177395552Y-108621285D01*
X177400332Y-108597252D01*
X177400332Y-108572748D01*
X177395552Y-108548715D01*
X177386174Y-108526076D01*
X177372560Y-108505701D01*
X177355233Y-108488374D01*
X177334859Y-108474761D01*
X177253443Y-108431244D01*
X177165736Y-108359264D01*
X177093756Y-108271557D01*
X177045917Y-108182056D01*
X177040272Y-108171495D01*
X177035190Y-108154741D01*
X177007334Y-108062916D01*
X176996213Y-107950000D01*
X177007334Y-107837084D01*
X177040271Y-107728508D01*
X177040272Y-107728505D01*
X177059571Y-107692399D01*
X177093756Y-107628443D01*
X177165736Y-107540736D01*
X177253443Y-107468756D01*
X177328150Y-107428825D01*
X177353505Y-107415272D01*
X177353508Y-107415271D01*
X177462084Y-107382334D01*
X177546702Y-107374000D01*
X178053298Y-107374000D01*
X178137916Y-107382334D01*
G37*
G36*
X129802585Y-107978802D02*
G01*
X129952410Y-108008604D01*
X130234674Y-108125521D01*
X130488705Y-108295259D01*
X130704741Y-108511295D01*
X130874479Y-108765326D01*
X130991396Y-109047590D01*
X130991396Y-109047591D01*
X131051000Y-109347239D01*
X131051000Y-109652761D01*
X131041356Y-109701244D01*
X130991396Y-109952410D01*
X130874479Y-110234674D01*
X130704741Y-110488705D01*
X130488705Y-110704741D01*
X130234674Y-110874479D01*
X129952410Y-110991396D01*
X129802585Y-111021198D01*
X129652761Y-111051000D01*
X129347239Y-111051000D01*
X129197415Y-111021198D01*
X129047590Y-110991396D01*
X128765326Y-110874479D01*
X128511295Y-110704741D01*
X128295259Y-110488705D01*
X128125521Y-110234674D01*
X128008604Y-109952410D01*
X127958644Y-109701244D01*
X127949000Y-109652761D01*
X127949000Y-109347239D01*
X128008604Y-109047591D01*
X128008604Y-109047590D01*
X128125521Y-108765326D01*
X128295259Y-108511295D01*
X128511295Y-108295259D01*
X128765326Y-108125521D01*
X129047590Y-108008604D01*
X129197415Y-107978802D01*
X129347239Y-107949000D01*
X129652761Y-107949000D01*
X129802585Y-107978802D01*
G37*
G36*
X169920256Y-106341298D02*
G01*
X170026579Y-106362447D01*
X170327042Y-106486903D01*
X170597451Y-106667585D01*
X170827415Y-106897549D01*
X171008097Y-107167958D01*
X171132553Y-107468421D01*
X171143322Y-107522560D01*
X171196000Y-107787389D01*
X171196000Y-108112611D01*
X171178417Y-108201004D01*
X171132553Y-108431579D01*
X171083346Y-108550375D01*
X171028981Y-108681625D01*
X171008097Y-108732042D01*
X170827415Y-109002451D01*
X170597451Y-109232415D01*
X170327042Y-109413097D01*
X170327041Y-109413098D01*
X170327040Y-109413098D01*
X170258483Y-109441495D01*
X170026579Y-109537553D01*
X169920256Y-109558702D01*
X169707611Y-109601000D01*
X169382389Y-109601000D01*
X169169744Y-109558702D01*
X169063421Y-109537553D01*
X168831517Y-109441495D01*
X168762960Y-109413098D01*
X168762959Y-109413098D01*
X168762958Y-109413097D01*
X168492549Y-109232415D01*
X168262585Y-109002451D01*
X168081903Y-108732042D01*
X168061020Y-108681625D01*
X168006654Y-108550375D01*
X167957447Y-108431579D01*
X167911583Y-108201004D01*
X167894000Y-108112611D01*
X167894000Y-107787389D01*
X167946678Y-107522560D01*
X167957447Y-107468421D01*
X168081903Y-107167958D01*
X168262585Y-106897549D01*
X168492549Y-106667585D01*
X168762958Y-106486903D01*
X169063421Y-106362447D01*
X169169744Y-106341298D01*
X169382389Y-106299000D01*
X169707611Y-106299000D01*
X169920256Y-106341298D01*
G37*
G36*
X159497915Y-107157334D02*
G01*
X159606491Y-107190271D01*
X159606494Y-107190272D01*
X159642600Y-107209571D01*
X159706556Y-107243756D01*
X159794264Y-107315736D01*
X159866244Y-107403443D01*
X159900429Y-107467399D01*
X159919728Y-107503505D01*
X159919729Y-107503508D01*
X159952666Y-107612084D01*
X159961000Y-107696702D01*
X159961000Y-108203297D01*
X159952666Y-108287916D01*
X159920252Y-108394767D01*
X159919728Y-108396495D01*
X159909761Y-108415141D01*
X159866244Y-108496557D01*
X159794264Y-108584264D01*
X159706557Y-108656244D01*
X159652250Y-108685271D01*
X159606495Y-108709728D01*
X159606492Y-108709729D01*
X159497916Y-108742666D01*
X159385000Y-108753787D01*
X159272085Y-108742666D01*
X159163509Y-108709729D01*
X159163506Y-108709728D01*
X159117751Y-108685271D01*
X159063444Y-108656244D01*
X158975737Y-108584264D01*
X158903757Y-108496557D01*
X158860239Y-108415141D01*
X158846625Y-108394766D01*
X158829298Y-108377439D01*
X158808924Y-108363826D01*
X158786285Y-108354448D01*
X158762252Y-108349668D01*
X158737748Y-108349668D01*
X158713715Y-108354448D01*
X158691076Y-108363826D01*
X158670701Y-108377440D01*
X158653374Y-108394767D01*
X158639761Y-108415141D01*
X158596244Y-108496557D01*
X158524264Y-108584264D01*
X158436557Y-108656244D01*
X158382250Y-108685271D01*
X158336495Y-108709728D01*
X158336492Y-108709729D01*
X158227916Y-108742666D01*
X158115000Y-108753787D01*
X158002085Y-108742666D01*
X157893509Y-108709729D01*
X157893506Y-108709728D01*
X157847751Y-108685271D01*
X157793444Y-108656244D01*
X157705737Y-108584264D01*
X157642622Y-108507359D01*
X157625297Y-108490034D01*
X157604923Y-108476420D01*
X157582284Y-108467043D01*
X157558250Y-108462263D01*
X157533746Y-108462263D01*
X157509713Y-108467044D01*
X157487074Y-108476421D01*
X157466700Y-108490035D01*
X157449373Y-108507362D01*
X157435759Y-108527736D01*
X157426382Y-108550375D01*
X157421000Y-108586660D01*
X157421000Y-108751000D01*
X156269000Y-108751000D01*
X156269000Y-107149000D01*
X157421000Y-107149000D01*
X157421000Y-107313341D01*
X157423402Y-107337727D01*
X157430515Y-107361176D01*
X157442066Y-107382787D01*
X157457611Y-107401729D01*
X157476553Y-107417274D01*
X157498164Y-107428825D01*
X157521613Y-107435938D01*
X157545999Y-107438340D01*
X157570385Y-107435938D01*
X157593834Y-107428825D01*
X157615445Y-107417274D01*
X157634387Y-107401729D01*
X157642608Y-107392657D01*
X157705736Y-107315736D01*
X157793443Y-107243756D01*
X157857399Y-107209571D01*
X157893505Y-107190272D01*
X157893508Y-107190271D01*
X158002084Y-107157334D01*
X158115000Y-107146213D01*
X158227915Y-107157334D01*
X158336491Y-107190271D01*
X158336494Y-107190272D01*
X158372600Y-107209571D01*
X158436556Y-107243756D01*
X158524264Y-107315736D01*
X158596244Y-107403443D01*
X158630975Y-107468421D01*
X158639761Y-107484859D01*
X158653375Y-107505234D01*
X158670702Y-107522561D01*
X158691076Y-107536174D01*
X158713715Y-107545552D01*
X158737748Y-107550332D01*
X158762252Y-107550332D01*
X158786285Y-107545552D01*
X158808924Y-107536174D01*
X158829299Y-107522560D01*
X158846626Y-107505233D01*
X158860239Y-107484860D01*
X158903756Y-107403444D01*
X158975736Y-107315736D01*
X159063443Y-107243756D01*
X159127399Y-107209571D01*
X159163505Y-107190272D01*
X159163508Y-107190271D01*
X159272084Y-107157334D01*
X159385000Y-107146213D01*
X159497915Y-107157334D01*
G37*
G36*
X163211000Y-107670109D02*
G01*
X163213402Y-107694495D01*
X163220515Y-107717944D01*
X163232066Y-107739555D01*
X163247611Y-107758497D01*
X163266553Y-107774042D01*
X163288164Y-107785593D01*
X163311613Y-107792706D01*
X163335999Y-107795108D01*
X163360385Y-107792706D01*
X163383834Y-107785593D01*
X163405445Y-107774042D01*
X163424387Y-107758497D01*
X163439932Y-107739555D01*
X163451483Y-107717944D01*
X163483090Y-107641638D01*
X163491907Y-107628443D01*
X163554335Y-107535012D01*
X163645012Y-107444335D01*
X163751636Y-107373091D01*
X163870110Y-107324017D01*
X163923783Y-107313341D01*
X163995881Y-107299000D01*
X164124119Y-107299000D01*
X164196217Y-107313341D01*
X164249890Y-107324017D01*
X164368364Y-107373091D01*
X164474988Y-107444335D01*
X164565665Y-107535012D01*
X164628094Y-107628443D01*
X164636910Y-107641638D01*
X164685983Y-107760110D01*
X164711000Y-107885881D01*
X164711000Y-108014119D01*
X164685983Y-108139890D01*
X164659723Y-108203288D01*
X164636909Y-108258364D01*
X164565665Y-108364988D01*
X164474988Y-108455665D01*
X164368364Y-108526909D01*
X164368363Y-108526910D01*
X164368362Y-108526910D01*
X164249890Y-108575983D01*
X164124119Y-108601000D01*
X163995881Y-108601000D01*
X163870110Y-108575983D01*
X163751638Y-108526910D01*
X163751637Y-108526910D01*
X163751636Y-108526909D01*
X163645012Y-108455665D01*
X163554335Y-108364988D01*
X163483091Y-108258364D01*
X163451483Y-108182055D01*
X163439932Y-108160445D01*
X163424387Y-108141503D01*
X163405445Y-108125958D01*
X163383834Y-108114407D01*
X163360385Y-108107294D01*
X163335999Y-108104892D01*
X163311613Y-108107294D01*
X163288164Y-108114407D01*
X163266553Y-108125958D01*
X163247611Y-108141503D01*
X163232066Y-108160445D01*
X163220515Y-108182056D01*
X163213402Y-108205505D01*
X163211000Y-108229891D01*
X163211000Y-108601000D01*
X161909000Y-108601000D01*
X161909000Y-107299000D01*
X163211000Y-107299000D01*
X163211000Y-107670109D01*
G37*
G36*
X139652585Y-105428802D02*
G01*
X139802410Y-105458604D01*
X140084674Y-105575521D01*
X140338705Y-105745259D01*
X140554741Y-105961295D01*
X140724479Y-106215326D01*
X140836969Y-106486903D01*
X140841396Y-106497591D01*
X140901000Y-106797239D01*
X140901000Y-107102761D01*
X140888031Y-107167958D01*
X140841396Y-107402410D01*
X140724479Y-107684674D01*
X140554741Y-107938705D01*
X140338705Y-108154741D01*
X140084674Y-108324479D01*
X139802410Y-108441396D01*
X139652585Y-108471198D01*
X139502761Y-108501000D01*
X139197239Y-108501000D01*
X139047415Y-108471198D01*
X138897590Y-108441396D01*
X138615326Y-108324479D01*
X138361295Y-108154741D01*
X138145259Y-107938705D01*
X137975521Y-107684674D01*
X137858604Y-107402410D01*
X137811969Y-107167958D01*
X137799000Y-107102761D01*
X137799000Y-106797239D01*
X137858604Y-106497591D01*
X137863031Y-106486903D01*
X137975521Y-106215326D01*
X138145259Y-105961295D01*
X138361295Y-105745259D01*
X138615326Y-105575521D01*
X138897590Y-105458604D01*
X139047415Y-105428802D01*
X139197239Y-105399000D01*
X139502761Y-105399000D01*
X139652585Y-105428802D01*
G37*
G36*
X151929487Y-105698996D02*
G01*
X152166253Y-105797068D01*
X152166255Y-105797069D01*
X152379339Y-105939447D01*
X152560553Y-106120661D01*
X152702932Y-106333747D01*
X152801004Y-106570513D01*
X152851000Y-106821861D01*
X152851000Y-107078139D01*
X152801004Y-107329487D01*
X152709527Y-107550332D01*
X152702931Y-107566255D01*
X152560553Y-107779339D01*
X152379339Y-107960553D01*
X152166255Y-108102931D01*
X152166254Y-108102932D01*
X152166253Y-108102932D01*
X151929487Y-108201004D01*
X151678139Y-108251000D01*
X151421861Y-108251000D01*
X151170513Y-108201004D01*
X150933747Y-108102932D01*
X150933746Y-108102932D01*
X150933745Y-108102931D01*
X150720661Y-107960553D01*
X150539447Y-107779339D01*
X150397069Y-107566255D01*
X150390473Y-107550332D01*
X150298996Y-107329487D01*
X150249000Y-107078139D01*
X150249000Y-106821861D01*
X150298996Y-106570513D01*
X150397068Y-106333747D01*
X150539447Y-106120661D01*
X150720661Y-105939447D01*
X150933745Y-105797069D01*
X150933747Y-105797068D01*
X151170513Y-105698996D01*
X151421861Y-105649000D01*
X151678139Y-105649000D01*
X151929487Y-105698996D01*
G37*
G36*
X177750318Y-100795153D02*
G01*
X177955165Y-100880004D01*
X177968887Y-100885688D01*
X178165593Y-101017122D01*
X178332878Y-101184407D01*
X178464312Y-101381113D01*
X178464313Y-101381115D01*
X178554847Y-101599682D01*
X178601000Y-101831710D01*
X178601000Y-102068290D01*
X178554847Y-102300318D01*
X178464313Y-102518885D01*
X178464312Y-102518887D01*
X178332878Y-102715593D01*
X178165593Y-102882878D01*
X177968887Y-103014312D01*
X177968886Y-103014313D01*
X177968885Y-103014313D01*
X177750318Y-103104847D01*
X177518290Y-103151000D01*
X177281710Y-103151000D01*
X177049682Y-103104847D01*
X176831115Y-103014313D01*
X176831114Y-103014313D01*
X176831113Y-103014312D01*
X176634407Y-102882878D01*
X176467122Y-102715593D01*
X176335688Y-102518887D01*
X176335687Y-102518885D01*
X176245153Y-102300318D01*
X176199000Y-102068290D01*
X176199000Y-101831710D01*
X176245153Y-101599682D01*
X176335687Y-101381115D01*
X176335688Y-101381113D01*
X176467122Y-101184407D01*
X176634407Y-101017122D01*
X176831113Y-100885688D01*
X176844835Y-100880004D01*
X177049682Y-100795153D01*
X177281710Y-100749000D01*
X177518290Y-100749000D01*
X177750318Y-100795153D01*
G37*
G36*
X139974549Y-98731116D02*
G01*
X140085734Y-98753232D01*
X140295203Y-98839997D01*
X140483720Y-98965960D01*
X140644040Y-99126280D01*
X140770003Y-99314797D01*
X140842038Y-99488704D01*
X140856768Y-99524267D01*
X140892667Y-99704740D01*
X140901000Y-99746636D01*
X140901000Y-99973364D01*
X140856768Y-100195734D01*
X140770003Y-100405203D01*
X140644040Y-100593720D01*
X140483720Y-100754040D01*
X140295203Y-100880003D01*
X140295202Y-100880004D01*
X140295201Y-100880004D01*
X140233850Y-100905416D01*
X140085734Y-100966768D01*
X139974549Y-100988884D01*
X139863365Y-101011000D01*
X139636635Y-101011000D01*
X139525451Y-100988884D01*
X139414266Y-100966768D01*
X139266150Y-100905416D01*
X139204799Y-100880004D01*
X139204798Y-100880004D01*
X139204797Y-100880003D01*
X139016280Y-100754040D01*
X138855960Y-100593720D01*
X138729997Y-100405203D01*
X138643232Y-100195734D01*
X138599000Y-99973364D01*
X138599000Y-99746636D01*
X138607334Y-99704740D01*
X138643232Y-99524267D01*
X138657963Y-99488704D01*
X138729997Y-99314797D01*
X138855960Y-99126280D01*
X139016280Y-98965960D01*
X139204797Y-98839997D01*
X139414266Y-98753232D01*
X139525451Y-98731116D01*
X139636635Y-98709000D01*
X139863365Y-98709000D01*
X139974549Y-98731116D01*
G37*
G36*
X129802585Y-96978802D02*
G01*
X129952410Y-97008604D01*
X130234674Y-97125521D01*
X130488705Y-97295259D01*
X130704741Y-97511295D01*
X130874479Y-97765326D01*
X130991396Y-98047590D01*
X131051000Y-98347240D01*
X131051000Y-98652760D01*
X130991396Y-98952410D01*
X130874479Y-99234674D01*
X130704741Y-99488705D01*
X130488705Y-99704741D01*
X130234674Y-99874479D01*
X129952410Y-99991396D01*
X129802585Y-100021198D01*
X129652761Y-100051000D01*
X129347239Y-100051000D01*
X129197415Y-100021198D01*
X129047590Y-99991396D01*
X128765326Y-99874479D01*
X128511295Y-99704741D01*
X128295259Y-99488705D01*
X128125521Y-99234674D01*
X128008604Y-98952410D01*
X127949000Y-98652760D01*
X127949000Y-98347240D01*
X128008604Y-98047590D01*
X128125521Y-97765326D01*
X128295259Y-97511295D01*
X128511295Y-97295259D01*
X128765326Y-97125521D01*
X129047590Y-97008604D01*
X129197415Y-96978802D01*
X129347239Y-96949000D01*
X129652761Y-96949000D01*
X129802585Y-96978802D01*
G37*
G36*
X148350318Y-95595153D02*
G01*
X148568885Y-95685687D01*
X148568887Y-95685688D01*
X148765593Y-95817122D01*
X148932878Y-95984407D01*
X149064312Y-96181113D01*
X149064313Y-96181115D01*
X149154847Y-96399682D01*
X149201000Y-96631710D01*
X149201000Y-96868290D01*
X149154847Y-97100318D01*
X149074099Y-97295259D01*
X149064312Y-97318887D01*
X148932878Y-97515593D01*
X148765593Y-97682878D01*
X148568887Y-97814312D01*
X148568886Y-97814313D01*
X148568885Y-97814313D01*
X148350318Y-97904847D01*
X148118290Y-97951000D01*
X147881710Y-97951000D01*
X147649682Y-97904847D01*
X147431115Y-97814313D01*
X147431114Y-97814313D01*
X147431113Y-97814312D01*
X147234407Y-97682878D01*
X147067122Y-97515593D01*
X146935688Y-97318887D01*
X146925901Y-97295259D01*
X146845153Y-97100318D01*
X146799000Y-96868290D01*
X146799000Y-96631710D01*
X146845153Y-96399682D01*
X146935687Y-96181115D01*
X146935688Y-96181113D01*
X147067122Y-95984407D01*
X147234407Y-95817122D01*
X147431113Y-95685688D01*
X147431115Y-95685687D01*
X147649682Y-95595153D01*
X147881710Y-95549000D01*
X148118290Y-95549000D01*
X148350318Y-95595153D01*
G37*
G36*
X149201000Y-92801000D02*
G01*
X146799000Y-92801000D01*
X146799000Y-90699000D01*
X149201000Y-90699000D01*
X149201000Y-92801000D01*
G37*
G36*
X129802585Y-86978802D02*
G01*
X129952410Y-87008604D01*
X130234674Y-87125521D01*
X130488705Y-87295259D01*
X130704741Y-87511295D01*
X130874479Y-87765326D01*
X130991396Y-88047590D01*
X131051000Y-88347240D01*
X131051000Y-88652760D01*
X130991396Y-88952410D01*
X130874479Y-89234674D01*
X130704741Y-89488705D01*
X130488705Y-89704741D01*
X130234674Y-89874479D01*
X129952410Y-89991396D01*
X129802585Y-90021198D01*
X129652761Y-90051000D01*
X129347239Y-90051000D01*
X129197415Y-90021198D01*
X129047590Y-89991396D01*
X128765326Y-89874479D01*
X128511295Y-89704741D01*
X128295259Y-89488705D01*
X128125521Y-89234674D01*
X128008604Y-88952410D01*
X127949000Y-88652760D01*
X127949000Y-88347240D01*
X128008604Y-88047590D01*
X128125521Y-87765326D01*
X128295259Y-87511295D01*
X128511295Y-87295259D01*
X128765326Y-87125521D01*
X129047590Y-87008604D01*
X129197415Y-86978802D01*
X129347239Y-86949000D01*
X129652761Y-86949000D01*
X129802585Y-86978802D01*
G37*
G36*
X177750318Y-85395153D02*
G01*
X177968885Y-85485687D01*
X177968887Y-85485688D01*
X178165593Y-85617122D01*
X178332878Y-85784407D01*
X178464312Y-85981113D01*
X178464313Y-85981115D01*
X178554847Y-86199682D01*
X178601000Y-86431710D01*
X178601000Y-86668290D01*
X178554847Y-86900318D01*
X178534682Y-86949000D01*
X178464312Y-87118887D01*
X178332878Y-87315593D01*
X178165593Y-87482878D01*
X177968887Y-87614312D01*
X177968886Y-87614313D01*
X177968885Y-87614313D01*
X177750318Y-87704847D01*
X177518290Y-87751000D01*
X177281710Y-87751000D01*
X177049682Y-87704847D01*
X176831115Y-87614313D01*
X176831114Y-87614313D01*
X176831113Y-87614312D01*
X176634407Y-87482878D01*
X176467122Y-87315593D01*
X176335688Y-87118887D01*
X176265318Y-86949000D01*
X176245153Y-86900318D01*
X176199000Y-86668290D01*
X176199000Y-86431710D01*
X176245153Y-86199682D01*
X176335687Y-85981115D01*
X176335688Y-85981113D01*
X176467122Y-85784407D01*
X176634407Y-85617122D01*
X176831113Y-85485688D01*
X176831115Y-85485687D01*
X177049682Y-85395153D01*
X177281710Y-85349000D01*
X177518290Y-85349000D01*
X177750318Y-85395153D01*
G37*
G36*
X129802585Y-76978802D02*
G01*
X129952410Y-77008604D01*
X130234674Y-77125521D01*
X130488705Y-77295259D01*
X130704741Y-77511295D01*
X130874479Y-77765326D01*
X130991396Y-78047590D01*
X131051000Y-78347240D01*
X131051000Y-78652760D01*
X130991396Y-78952410D01*
X130874479Y-79234674D01*
X130704741Y-79488705D01*
X130488705Y-79704741D01*
X130234674Y-79874479D01*
X129952410Y-79991396D01*
X129802585Y-80021198D01*
X129652761Y-80051000D01*
X129347239Y-80051000D01*
X129197415Y-80021198D01*
X129047590Y-79991396D01*
X128765326Y-79874479D01*
X128511295Y-79704741D01*
X128295259Y-79488705D01*
X128125521Y-79234674D01*
X128008604Y-78952410D01*
X127949000Y-78652760D01*
X127949000Y-78347240D01*
X128008604Y-78047590D01*
X128125521Y-77765326D01*
X128295259Y-77511295D01*
X128511295Y-77295259D01*
X128765326Y-77125521D01*
X129047590Y-77008604D01*
X129197415Y-76978802D01*
X129347239Y-76949000D01*
X129652761Y-76949000D01*
X129802585Y-76978802D01*
G37*
G36*
X113346189Y-73960483D02*
G01*
X113346192Y-73960484D01*
X113346191Y-73960484D01*
X113874139Y-74179167D01*
X114349280Y-74496646D01*
X114753354Y-74900720D01*
X115070833Y-75375861D01*
X115070834Y-75375863D01*
X115289517Y-75903811D01*
X115401000Y-76464275D01*
X115401000Y-77035725D01*
X115289517Y-77596189D01*
X115113967Y-78020004D01*
X115070833Y-78124139D01*
X114753354Y-78599280D01*
X114349280Y-79003354D01*
X113874139Y-79320833D01*
X113874138Y-79320834D01*
X113874137Y-79320834D01*
X113346189Y-79539517D01*
X112785725Y-79651000D01*
X112214275Y-79651000D01*
X111653811Y-79539517D01*
X111125863Y-79320834D01*
X111125862Y-79320834D01*
X111125861Y-79320833D01*
X110650720Y-79003354D01*
X110246646Y-78599280D01*
X109929167Y-78124139D01*
X109886033Y-78020004D01*
X109710483Y-77596189D01*
X109599000Y-77035725D01*
X109599000Y-76464275D01*
X109710483Y-75903811D01*
X109929166Y-75375863D01*
X109929167Y-75375861D01*
X110246646Y-74900720D01*
X110650720Y-74496646D01*
X111125861Y-74179167D01*
X111653809Y-73960484D01*
X111653808Y-73960484D01*
X111653811Y-73960483D01*
X112214275Y-73849000D01*
X112785725Y-73849000D01*
X113346189Y-73960483D01*
G37*
G36*
X149575577Y-77113364D02*
G01*
X149725734Y-77143232D01*
X149935203Y-77229997D01*
X150123720Y-77355960D01*
X150284040Y-77516280D01*
X150410003Y-77704797D01*
X150496768Y-77914266D01*
X150541000Y-78136636D01*
X150541000Y-78363364D01*
X150496768Y-78585734D01*
X150410003Y-78795203D01*
X150284040Y-78983720D01*
X150123720Y-79144040D01*
X149935203Y-79270003D01*
X149725734Y-79356768D01*
X149614549Y-79378884D01*
X149503365Y-79401000D01*
X149276635Y-79401000D01*
X149165451Y-79378884D01*
X149054266Y-79356768D01*
X148844797Y-79270003D01*
X148656280Y-79144040D01*
X148495960Y-78983720D01*
X148369997Y-78795203D01*
X148283232Y-78585734D01*
X148239000Y-78363364D01*
X148239000Y-78136636D01*
X148283232Y-77914266D01*
X148369997Y-77704797D01*
X148495960Y-77516280D01*
X148656280Y-77355960D01*
X148844797Y-77229997D01*
X149054266Y-77143232D01*
X149204423Y-77113364D01*
X149276635Y-77099000D01*
X149503365Y-77099000D01*
X149575577Y-77113364D01*
G37*
G36*
X172435577Y-77113364D02*
G01*
X172585734Y-77143232D01*
X172795203Y-77229997D01*
X172983720Y-77355960D01*
X173144040Y-77516280D01*
X173270003Y-77704797D01*
X173356768Y-77914266D01*
X173401000Y-78136636D01*
X173401000Y-78363364D01*
X173356768Y-78585734D01*
X173270003Y-78795203D01*
X173144040Y-78983720D01*
X172983720Y-79144040D01*
X172795203Y-79270003D01*
X172585734Y-79356768D01*
X172474549Y-79378884D01*
X172363365Y-79401000D01*
X172136635Y-79401000D01*
X172025451Y-79378884D01*
X171914266Y-79356768D01*
X171704797Y-79270003D01*
X171516280Y-79144040D01*
X171355960Y-78983720D01*
X171229997Y-78795203D01*
X171143232Y-78585734D01*
X171099000Y-78363364D01*
X171099000Y-78136636D01*
X171143232Y-77914266D01*
X171229997Y-77704797D01*
X171355960Y-77516280D01*
X171516280Y-77355960D01*
X171704797Y-77229997D01*
X171914266Y-77143232D01*
X172064423Y-77113364D01*
X172136635Y-77099000D01*
X172363365Y-77099000D01*
X172435577Y-77113364D01*
G37*
G36*
X139974549Y-75871116D02*
G01*
X140085734Y-75893232D01*
X140295203Y-75979997D01*
X140483720Y-76105960D01*
X140644040Y-76266280D01*
X140770003Y-76454797D01*
X140856768Y-76664266D01*
X140901000Y-76886636D01*
X140901000Y-77113364D01*
X140856768Y-77335734D01*
X140770003Y-77545203D01*
X140644040Y-77733720D01*
X140483720Y-77894040D01*
X140295203Y-78020003D01*
X140085734Y-78106768D01*
X139998414Y-78124137D01*
X139863365Y-78151000D01*
X139636635Y-78151000D01*
X139501586Y-78124137D01*
X139414266Y-78106768D01*
X139204797Y-78020003D01*
X139016280Y-77894040D01*
X138855960Y-77733720D01*
X138729997Y-77545203D01*
X138643232Y-77335734D01*
X138599000Y-77113364D01*
X138599000Y-76886636D01*
X138643232Y-76664266D01*
X138729997Y-76454797D01*
X138855960Y-76266280D01*
X139016280Y-76105960D01*
X139204797Y-75979997D01*
X139414266Y-75893232D01*
X139525451Y-75871116D01*
X139636635Y-75849000D01*
X139863365Y-75849000D01*
X139974549Y-75871116D01*
G37*
M02*
