M48
; DRILL file {KiCad (5.1.5)-3} date 02/11/2020 17:07:15
; FORMAT={-:-/ absolute / inch / decimal}
; #@! TF.CreationDate,2020-11-02T17:07:15+01:00
; #@! TF.GenerationSoftware,Kicad,Pcbnew,(5.1.5)-3
; #@! TF.FileFunction,Plated,1,2,PTH
FMAT,2
INCH
T1C0.0157
T2C0.0236
T3C0.0295
T4C0.0315
T5C0.0354
T6C0.0394
T7C0.0433
T8C0.0472
T9C0.0512
T10C0.0591
T11C0.1260
%
G90
G05
T1
X5.7579Y-5.0591
X5.8858Y-5.0591
X6.2598Y-4.4685
X6.2598Y-4.7244
X6.3878Y-4.5669
X6.3878Y-4.685
X6.4173Y-5.0689
X6.5551Y-5.0689
X6.6831Y-4.8031
X6.6831Y-4.8622
X6.8209Y-4.7441
X6.8799Y-4.4488
X6.939Y-4.626
X6.939Y-4.7441
X6.9783Y-4.1437
X7.0472Y-4.1437
T2
X6.4Y-4.25
X6.4591Y-4.25
T3
X6.175Y-4.25
X6.225Y-4.25
X6.275Y-4.25
X7.0Y-4.25
X7.0Y-4.3
X7.0Y-4.35
T4
X6.1122Y-4.887
X6.1122Y-5.187
X5.876Y-4.887
X5.876Y-5.187
X6.1909Y-4.425
X6.1909Y-4.525
X6.1909Y-4.625
X6.1909Y-4.725
X6.4909Y-4.425
X6.4909Y-4.525
X6.4909Y-4.625
X6.4909Y-4.725
X6.4665Y-4.887
X6.4665Y-5.187
X6.2303Y-4.887
X6.2303Y-5.187
X6.3484Y-4.887
X6.3484Y-5.187
X5.9941Y-4.887
X5.9941Y-5.187
T5
X6.9079Y-4.8622
X7.0079Y-4.8622
X6.9079Y-5.0394
X7.0079Y-5.0394
X6.9079Y-5.2165
X7.0079Y-5.2165
T6
X5.9665Y-4.2106
X5.9665Y-4.6831
X6.6142Y-4.4783
X6.6142Y-4.5783
X6.6142Y-4.6783
X5.8268Y-3.6122
X5.8268Y-3.8091
X6.9843Y-3.4075
X6.9843Y-4.0138
X6.752Y-4.8969
X6.752Y-4.9969
X6.752Y-5.0969
X6.752Y-5.1969
T7
X5.7382Y-4.8461
X5.7382Y-5.2461
T8
X5.502Y-3.0315
X5.502Y-3.9315
X5.8815Y-3.0807
X6.7815Y-3.0807
T9
X5.4843Y-4.685
X5.4862Y-4.2106
X6.0433Y-4.4488
T10
X5.0984Y-3.0906
X5.0984Y-3.4843
X5.0984Y-3.878
X5.0984Y-4.311
X5.0984Y-4.7047
X5.0984Y-5.0984
T11
X4.4291Y-3.0217
X4.4291Y-5.1673
T0
M30
